<svg width="19" height="19" viewBox="0 0 19 19" fill="none" xmlns="http://www.w3.org/2000/svg">
<path id="cruz icono" fill-rule="evenodd" clip-rule="evenodd" d="M13.3594 5.64062H17.2188C18.2025 5.64062 19 6.43812 19 7.42188V11.5781C19 12.5619 18.2025 13.3594 17.2188 13.3594H13.3594V17.2188C13.3594 18.2025 12.5619 19 11.5781 19H7.42188C6.43812 19 5.64062 18.2025 5.64062 17.2188V13.3594H1.78125C0.797493 13.3594 0 12.5619 0 11.5781V7.42188C0 6.43812 0.797493 5.64062 1.78125 5.64062H5.64062V1.78125C5.64062 0.797493 6.43812 0 7.42188 0H11.5781C12.5619 0 13.3594 0.797493 13.3594 1.78125V5.64062Z" fill="white"/>
</svg>
