<svg width="17" height="12" viewBox="0 0 17 12" fill="none" xmlns="http://www.w3.org/2000/svg">
<path d="M6.50865 7.05685C6.79748 6.77142 7.05591 6.51603 7.32954 6.26064C9.26016 4.38278 11.1908 2.4899 13.1366 0.612047C13.7447 0.0261559 14.4743 -0.139096 15.28 0.116293C16.0857 0.386704 16.557 0.957573 16.6786 1.78383C16.7698 2.45986 16.5722 3.04575 16.0857 3.52648C14.9608 4.62315 13.8359 5.71982 12.7109 6.81649C11.1756 8.30375 9.6402 9.80604 8.12003 11.2933C7.73999 11.6689 7.31434 11.9243 6.76708 11.9844C6.09821 12.0595 5.52054 11.8642 5.04929 11.3985C4.12198 10.4971 3.19468 9.58069 2.28258 8.6643C1.72012 8.10845 1.17285 7.56763 0.610391 7.01179C0.00232321 6.41087 -0.164895 5.52452 0.169542 4.75836C0.503979 3.97717 1.27927 3.48141 2.13056 3.49644C2.70823 3.51146 3.20988 3.7368 3.62033 4.14242C4.56283 5.07384 5.50534 6.00525 6.43264 6.92165C6.44784 6.96672 6.47825 7.01179 6.50865 7.05685Z" fill="#84D1FF"/>
</svg>
