<?xml version="1.0" encoding="UTF-8"?>
<svg width="22px" height="18px" viewBox="0 0 22 18" version="1.1" xmlns="http://www.w3.org/2000/svg" xmlns:xlink="http://www.w3.org/1999/xlink">
    <!-- Generator: Sketch 64 (93537) - https://sketch.com -->
    <title>icono coberturas</title>
    <desc>Created with Sketch.</desc>
    <g id="Page-1" stroke="none" stroke-width="1" fill="none" fill-rule="evenodd">
        <g id="inicio-2-propuesta" transform="translate(-719.000000, -40.000000)" fill="#01387B" fill-rule="nonzero">
            <g id="cobertura" transform="translate(697.879469, 27.000000)">
                <g id="icono-coberturas" transform="translate(22.000000, 13.000000)">
                    <path d="M0,15.5426926 C0,12.1079649 0,8.67313095 0,5.23840325 C0.0283269621,5.21853828 0.0190240115,5.18677557 0.0237277506,5.15968698 C0.228810775,3.99349638 0.883571258,3.22842945 1.99961175,2.87893345 C2.31737546,2.77950237 2.64684625,2.77652794 2.97610799,2.78205189 C3.11147115,2.78428271 3.11157568,2.78226435 3.11168021,2.64076627 C3.11188926,2.47557895 3.10990324,2.31039163 3.11251643,2.14531055 C3.11565225,1.94411133 3.22655597,1.83288874 3.42359037,1.83257005 C3.93587982,1.83172021 4.44806475,1.83182644 4.9603542,1.83257005 C5.1615697,1.83288874 5.2769681,1.94814806 5.27905865,2.15136564 C5.28094015,2.33089398 5.2818809,2.51042232 5.27832696,2.68984443 C5.2769681,2.7578315 5.29536495,2.78428271 5.36686178,2.78375156 C5.78016366,2.78088336 6.19357006,2.78045844 6.60687194,2.78407025 C6.68652192,2.78481386 6.69979692,2.75124525 6.69885617,2.68155851 C6.6959294,2.45539529 6.69498865,2.22912585 6.69885617,2.00306886 C6.71484888,1.06474115 7.36093358,0.258563301 8.26102019,0.0492906211 C8.3286495,0.0335686126 8.4007735,0.0363305871 8.46349003,3.01923213e-15 C9.81398578,3.01923213e-15 11.1644815,3.01923213e-15 12.5149773,3.01923213e-15 C12.5271025,0.00605509785 12.5386005,0.0157220085 12.5513529,0.0177403744 C13.6067674,0.188664101 14.2994714,1.00907675 14.3018755,2.0916645 C14.3022936,2.29286372 14.303757,2.49406294 14.3010393,2.69515592 C14.3002031,2.75868133 14.3187045,2.78396402 14.3850794,2.7835391 C14.8021443,2.78120205 15.2193137,2.78120205 15.6363786,2.7835391 C15.7011856,2.78385779 15.7225093,2.76250561 15.7213595,2.69696183 C15.7180146,2.51743349 15.7192689,2.33779892 15.7206278,2.15816435 C15.7221957,1.94719199 15.8358171,1.83267628 16.0436178,1.83246382 C16.5526669,1.83193267 17.0616115,1.83182644 17.5706606,1.83246382 C17.775221,1.83278251 17.8849749,1.94347395 17.8865428,2.15062203 C17.8879017,2.32664479 17.8900968,2.50277378 17.8854976,2.6786903 C17.883407,2.75655674 17.9036853,2.78906305 17.985844,2.78396402 C18.0949707,2.77727155 18.2049337,2.7817332 18.3144786,2.78247681 C19.5485306,2.79118765 20.6233873,3.6522863 20.9181549,4.87106065 C20.9525445,5.0131961 20.9730319,5.15894337 21,5.30288473 C21,8.71604778 21,12.1293171 21,15.5424801 C20.9717776,15.5623451 20.9804534,15.5941078 20.9762722,15.6213026 C20.7957532,16.7776138 20.0045843,17.6653762 18.9203202,17.9256391 C18.8012633,17.954215 18.680534,17.9753547 18.5606409,18 C13.179877,18 7.79900848,18 2.41824453,18 C2.39807072,17.9723803 2.3672351,17.9802413 2.34037152,17.976417 C1.19631764,17.8100611 0.30281627,16.9617101 0.0576991996,15.8119851 C0.0384661331,15.7223271 0.0428562896,15.6271453 0,15.5426926 Z M5.63527536,10.3831118 C5.62912137,13.1229905 7.79493191,15.3411747 10.4862024,15.351194 C13.1728736,15.3611459 15.3565584,13.1497604 15.364314,10.4112627 C15.3720284,7.66840962 13.2035002,5.43715918 10.5244594,5.43173071 C7.8191823,5.42611128 5.64145562,7.63165412 5.63527536,10.3831118 Z M10.4993728,2.78247681 C11.3507496,2.78247681 12.2021264,2.78120205 13.0536077,2.78438894 C13.1415154,2.78470763 13.1696333,2.76027478 13.1669155,2.67008569 C13.1607484,2.46559335 13.1681699,2.26078232 13.1640933,2.05618375 C13.1540587,1.55584146 12.7847629,1.16597814 12.3130301,1.16502207 C11.1047963,1.16236633 9.89666706,1.16279125 8.68843328,1.16491584 C8.25903417,1.16565945 7.89381496,1.5025141 7.84625493,1.93699393 C7.82001852,2.17664833 7.84416438,2.41778995 7.83350257,2.65786927 C7.82921694,2.75475083 7.85618504,2.78534501 7.95590431,2.78482064 C8.80362263,2.78077713 9.65144547,2.78247681 10.4993728,2.78247681 Z" id="Shape"></path>
                    <path d="M14.1515287,10.392885 C14.1515287,10.7772243 14.1516695,11.1614575 14.1513559,11.5457968 C14.1511468,11.7980926 14.0521592,11.899967 13.8070422,11.9000732 C13.2345449,11.9004981 12.6620475,11.9024102 12.0895502,11.8992233 C12.0063463,11.8987984 11.9819914,11.9222752 11.982514,12.0074715 C11.9859634,12.5929039 11.9845001,13.1783362 11.984291,13.7636623 C11.9841865,14.0080971 11.8766276,14.1168764 11.6336011,14.1169826 C10.8773444,14.1174075 10.1209832,14.1174075 9.36472644,14.1169826 C9.12284972,14.1168764 9.01602258,14.0075659 9.01591805,13.7618564 C9.015709,13.1800359 9.01414108,12.5982153 9.01769502,12.0163948 C9.01821766,11.9280116 8.99553518,11.9003919 8.90605961,11.9011355 C8.34067017,11.9059158 7.7751762,11.9048535 7.20978676,11.9055971 C6.94700454,11.9059158 6.84979393,11.8088218 6.8496894,11.5447345 C6.84916677,10.7725502 6.84885318,10.0003659 6.84893768,9.22818158 C6.84893768,8.98725243 6.95243997,8.8822974 7.19212161,8.88187248 C7.76106499,8.88081018 8.33011289,8.8791105 8.89905627,8.88293477 C8.98989069,8.88357215 9.0191584,8.8630698 9.01842671,8.76512594 C9.01361844,8.1833054 9.01581352,7.60148486 9.01612711,7.01966431 C9.01623163,6.7753358 9.12379047,6.66634404 9.36702604,6.66623781 C10.1232828,6.66570666 10.879644,6.66560043 11.6359007,6.66623781 C11.877882,6.66645027 11.984291,6.77607941 11.9843955,7.0221076 C11.9846046,7.60392814 11.9863816,8.18574868 11.982514,8.76756923 C11.9818869,8.85850192 12.0089595,8.88144756 12.0959264,8.88081018 C12.6684237,8.87677345 13.240921,8.87783575 13.8134183,8.8780482 C14.0463057,8.87815443 14.1491608,8.98183471 14.149788,9.21840844 C14.1508332,9.60986521 14.1501015,10.001322 14.1501015,10.392885 C14.1504151,10.392885 14.1509378,10.392885 14.1515287,10.392885 Z" id="Path"></path>
                </g>
            </g>
        </g>
    </g>
</svg>