<?xml version="1.0" encoding="UTF-8"?>
<svg width="22px" height="18px" viewBox="0 0 22 18" version="1.1" xmlns="http://www.w3.org/2000/svg" xmlns:xlink="http://www.w3.org/1999/xlink">
    <!-- Generator: Sketch 64 (93537) - https://sketch.com -->
    <title>icono planes de salud</title>
    <desc>Created with Sketch.</desc>
    <g id="Page-1" stroke="none" stroke-width="1" fill="none" fill-rule="evenodd">
        <g id="inicio-2-propuesta" transform="translate(-898.000000, -43.000000)" fill="#01387B" fill-rule="nonzero">
            <g id="planes-de-salud" transform="translate(877.879469, 27.000000)">
                <g id="icono-planes-de-salud" transform="translate(21.000000, 16.000000)">
                    <path d="M10.494041,2.83502768 C10.7801801,2.4473063 11.0893482,2.08939544 11.431337,1.76221803 C12.1091494,1.11386224 12.8631205,0.587055848 13.7482841,0.272430239 C14.3631749,0.0538812676 14.9965614,-0.0229985014 15.6459049,0.00579680227 C16.4896345,0.0431753214 17.297642,0.226929967 18.0506158,0.620465784 C19.3736012,1.31201453 20.2740872,2.37744077 20.7447298,3.81683678 C21.1712185,5.12130095 21.0472793,6.38663304 20.4924088,7.62335442 C20.2892282,8.07604982 20.0525923,8.50964064 19.7847675,8.92588044 C19.7077022,9.04567629 19.7081555,9.04909112 19.6095119,8.94867673 C18.9808399,8.30890415 18.2442765,7.84568739 17.4018163,7.56004167 C16.7253638,7.33069446 16.0310504,7.23461782 15.3168812,7.27513429 C14.1283522,7.3426925 13.0639438,7.74601134 12.1305464,8.49395089 C11.0693112,9.34442757 10.3855149,10.4451096 10.0981065,11.7898134 C9.82710843,13.0577296 9.96247145,14.2852217 10.5007502,15.4635219 C10.7555192,16.0212463 11.0916148,16.5241489 11.5111223,16.9666921 C11.5746786,17.0337889 11.5609881,17.0641531 11.5035971,17.1108532 C11.1901678,17.3655809 10.8840824,17.629261 10.59069,17.907431 C10.516526,17.977758 10.4776306,17.9223824 10.4339301,17.8812199 C10.0636537,17.5318922 9.67043911,17.2101601 9.27804048,16.8876896 C8.70050369,16.4130286 8.12206025,15.9393827 7.55413396,15.4527236 C6.74875572,14.7627439 5.95924389,14.0546747 5.18514512,13.328424 C4.45184566,12.6403823 3.71773021,11.9533559 3.02949131,11.2179682 C2.34088975,10.4821189 1.69743942,9.70852203 1.15680333,8.85112341 C0.695589879,8.11951965 0.321414942,7.34813777 0.122858337,6.49692275 C-0.0983645476,5.54852358 -0.0098753938,4.62005962 0.300380635,3.70710083 C0.511358362,3.08634054 0.824515674,2.52206334 1.24230053,2.02239098 C2.111779,0.98252981 3.21345083,0.352817128 4.53398826,0.118486116 C5.12050089,0.0143800178 5.70982415,-0.0101698244 6.30132337,0.0656947255 C6.9959995,0.154757123 7.64035648,0.397302181 8.23874625,0.760196841 C9.12137116,1.29540186 9.86727308,1.988335 10.494041,2.83502768 Z" id="Path"></path>
                    <path d="M10.7226877,13.0318877 C10.7172585,10.3721984 12.7811593,8.10170717 15.4973048,8.04254759 C18.2546123,7.98246508 20.3518778,10.1407285 20.4979393,12.7262145 C20.6617712,15.6244802 18.4170842,17.9055851 15.7909691,17.9970471 C13.0624024,18.0920163 10.7390182,15.8847455 10.7226877,13.0318877 Z M13.1019324,13.142362 C13.0988498,13.3414372 13.1731952,13.5083023 13.3147235,13.6389887 C13.8406718,14.1249094 14.3693401,14.6078768 14.8983711,15.0903827 C14.9715378,15.1571103 15.0437072,15.2259606 15.1447082,15.2543868 C15.3862401,15.3224064 15.543544,15.1955963 15.6936855,15.0291004 C16.1608828,14.5109695 16.6319788,13.9965304 17.1020774,13.481076 C17.515601,13.0276422 17.9317539,12.5767927 18.3428295,12.1211439 C18.5985958,11.8376209 18.5762015,11.4225809 18.2990383,11.1654536 C18.0304882,10.9162635 17.6120687,10.9337991 17.3645529,11.204032 C16.6770393,11.954648 15.9870778,12.703049 15.3042788,13.4581874 C15.2201416,13.5513107 15.1820622,13.5329444 15.1041809,13.4598487 C14.7979141,13.1723571 14.4878394,12.8887418 14.1731408,12.6107564 C13.9767602,12.4372462 13.7410308,12.4219256 13.5121921,12.5166179 C13.2456367,12.626723 13.1112709,12.8473947 13.1019324,13.142362 Z" id="Shape"></path>
                </g>
            </g>
        </g>
    </g>
</svg>