<?xml version="1.0" encoding="UTF-8"?>
<svg width="384px" height="326px" viewBox="0 0 384 326" version="1.1" xmlns="http://www.w3.org/2000/svg" xmlns:xlink="http://www.w3.org/1999/xlink">
    <title>asi de simple@2x</title>
    <defs>
        <rect id="path-1" x="0" y="0" width="384" height="326"></rect>
    </defs>
    <g id="WEB-RED-SALUD-GLOBAL" stroke="none" stroke-width="1" fill="none" fill-rule="evenodd">
        <g id="inicio-2-propuesta" transform="translate(-756.000000, -641.000000)">
            <g id="asi-de-simple" transform="translate(756.000000, 641.000000)">
                <mask id="mask-2" fill="white">
                    <use xlink:href="#path-1"></use>
                </mask>
                <use id="Mask" fill="#D8D8D8" opacity="0" xlink:href="#path-1"></use>
                <g mask="url(#mask-2)">
                    <g transform="translate(-0.000000, 5.000000)">
                        <g transform="translate(0.000000, 0.000000)">
                            <g id="Group" transform="translate(13.552589, 15.042760)" fill-rule="nonzero">
                                <g transform="translate(0.000000, -0.000000)" id="Path">
                                    <g transform="translate(1.858437, 0.572044)">
                                        <path d="M49.7047187,42.6101338 L32.3459253,39.0505438 L22.1209798,40.7114835 C22.1209798,40.7114835 23.3097855,53.7643249 7.85328396,62.5464675 C-7.60321756,71.3275986 4.52401982,92.4504623 4.52401982,92.4504623 C4.52401982,92.4504623 8.01442643,88.7229576 14.2695918,88.5530198 C14.2979691,86.4591434 14.8543667,83.7988076 16.5580175,80.5780817 C16.5580175,80.5780817 15.3752926,84.0405644 15.820208,88.5813428 C17.8390495,88.7158769 20.1041653,89.2267018 22.5962994,90.315113 C24.527982,91.1587327 26.1992017,92.1318289 27.7609661,93.1261674 L29.1575341,90.6873577 L28.5220855,93.6157501 C35.7765369,98.3487201 41.0739687,103.156544 60.1678307,96.486485 C83.9459724,88.1777405 49.7047187,42.6101338 49.7047187,42.6101338 Z" fill="#765E69"></path>
                                        <g transform="translate(60.518493, 0.000000)" fill="#5B4A54">
                                            <path d="M0,8.75609672 C0,8.75609672 0.343567898,8.3454137 1.08441785,7.66566251 C1.81716001,6.98085365 2.93400904,6.00472284 4.51401599,4.98003838 C6.06868606,3.91590407 8.11387786,2.84772363 10.5857425,1.92621568 C13.0464589,0.95918869 16.0260743,0.38767169 19.2894626,0.272356756 C22.5710934,0.0811767329 26.1142007,0.734628028 29.69582,1.80786615 C30.577543,2.12548798 31.4714276,2.44715596 32.3764604,2.77287007 C32.8375914,2.91954258 33.2754124,3.12184948 33.7071526,3.34337554 C34.1439602,3.55579778 34.5827947,3.7702431 35.0236561,3.98468842 C35.9033521,4.43785588 36.8073715,4.7989737 37.6921348,5.35026001 C38.5343323,5.85602727 39.3846375,6.35673685 40.2349427,6.99299206 C41.9507552,8.18457972 43.5145466,9.57543967 44.956721,11.1473643 C46.413084,12.7000698 47.6819542,14.4631744 48.7481295,16.3496863 C50.9230461,20.1115832 52.263873,24.3377744 53.1516768,28.5680117 C54.0435345,32.8073528 54.4722342,37.0912015 55.161397,41.1818471 C55.5191535,43.2200891 55.9417724,45.2209044 56.6430969,47.0345858 C57.3342866,48.8705209 58.4055293,50.3736612 59.974388,51.3315844 C60.8175989,51.8768015 61.6577693,52.3926841 62.4837512,52.9490281 C63.3006117,53.5347065 64.1326744,54.0859928 64.904942,54.6929136 C66.4525178,55.8966396 67.9190156,57.1448732 69.2294383,58.488191 C71.8715666,61.1485268 73.9005428,64.1628997 75.1086046,67.2167224 C76.3389628,70.2675104 76.7575278,73.2879525 76.7605682,75.9219884 C76.7017867,78.5600704 76.3703805,80.8319769 75.9396538,82.6588082 C75.711622,83.5702008 75.5139944,84.3844861 75.3183938,85.084468 C75.0812408,85.7723115 74.8785458,86.3579899 74.7153764,86.8323996 C74.3890376,87.7791959 74.2137065,88.2839517 74.2137065,88.2839517 C74.2137065,88.2839517 74.3525525,87.7680691 74.612002,86.8010421 C74.7417268,86.3185401 74.9018557,85.7237578 75.0893486,85.0247875 C75.2261676,84.3146902 75.3842697,83.4993934 75.5616277,82.5849662 C75.8940474,80.7581349 76.0997828,78.5034245 76.0237722,75.9391845 C75.8818857,73.3789906 75.3244747,70.5143249 74.0626988,67.6567399 C72.7999094,64.8001664 70.7780275,62.0235042 68.1906268,59.5341177 C66.9025005,58.281838 65.4572857,57.1175618 63.9299794,55.9947585 C63.16886,55.4323453 62.3621342,54.9235434 61.5726375,54.3712456 C60.7578039,53.84019 59.895337,53.329365 59.0470587,52.8003325 C57.1457803,51.7038291 55.7005655,49.7232445 54.9374191,47.7224292 C54.1124507,45.7044179 53.6553737,43.6024492 53.2814015,41.5075612 C52.5547402,37.3137391 52.1047575,33.0885594 51.2179672,28.9706024 C50.3767833,24.8546685 49.1139939,20.8307842 47.0890716,17.2873788 C46.0897856,15.5141588 44.9303706,13.8501845 43.5915706,12.3713211 C42.2750671,10.8843653 40.7964076,9.52890908 39.2376836,8.41015191 C38.4937933,7.8264965 37.6404476,7.30252162 36.8033176,6.78158135 C36.0229421,6.27884869 35.1179093,5.8833387 34.2969948,5.43118277 C33.8774163,5.21167978 33.4598648,4.99419986 33.0443402,4.77773148 C32.6328695,4.55114775 32.2163314,4.34479471 31.7795239,4.19407606 C30.9190839,3.8582466 30.0687787,3.52545175 29.2306352,3.1987261 C25.82232,2.09615348 22.4545438,1.33244493 19.3006108,1.3992062 C16.1669472,1.41033308 13.2613155,1.80179694 10.8188416,2.61810529 C8.36825999,3.38990612 6.30077175,4.33366783 4.71671091,5.30372942 C3.11440753,6.24445652 1.92458832,7.10931853 1.1543476,7.74557374 C0.371945188,8.36969053 0,8.75609672 0,8.75609672 Z"></path>
                                            <path d="M58.3822193,52.6020717 C48.5667176,46.2283927 59.3328585,19.138487 37.4570087,5.61022438 C15.5801454,-7.9180382 0.599976979,7.27116405 0.599976979,7.27116405 C0.599976979,7.27116405 -3.44277331,88.2020174 17.0071177,96.7454379 C33.4547974,103.617803 40.3302093,100.85328 47.2167694,95.0642675 C46.2032947,94.052733 45.23644,92.5819618 44.576668,90.4486355 C44.5097786,90.2685824 44.4773475,90.1522559 44.4773475,90.1522559 C44.5077517,90.2574555 44.5442368,90.3464705 44.576668,90.4486355 C44.8614543,91.2153787 45.8759424,93.2677822 48.5940814,93.8706568 C49.8193722,92.7812341 51.0639191,91.6129117 52.3824495,90.3980588 C53.2378221,89.6100734 54.1013025,88.9606682 54.9647829,88.4286011 C53.2651859,85.495151 50.8135908,80.9796609 50.6534618,79.0567338 C50.6534618,79.0567338 52.9145237,83.9606532 55.5759081,88.0775986 C59.1301636,86.1081409 62.6388128,86.0697026 65.4876899,86.6756118 C66.0917208,83.0836527 65.9934138,78.4488016 64.7346783,73.6328858 C64.7346783,73.6328858 67.2359337,79.999484 66.2923888,86.8657803 C69.6439494,87.7498614 71.8989304,89.4128242 71.8989304,89.4128242 C78.7946118,71.6128514 71.4053683,61.0585002 58.3822193,52.6020717 Z"></path>
                                        </g>
                                    </g>
                                    <g transform="translate(39.435918, 15.505555)">
                                        <g transform="translate(9.368837, 49.124189)">
                                            <path d="M0.984819878,0.98624615 C0.984819878,0.98624615 6.33697938,34.9292983 0.737532069,31.9705598 C-2.76807666,30.1184401 6.00760013,57.9417084 31.6991819,51.6954828 C57.3907637,45.4492572 44.2155935,31.3130624 44.2155935,31.3130624 C44.2155935,31.3130624 31.6991819,33.9430521 30.0522856,25.7243342 C28.4053894,17.5056163 30.0522856,9.61564708 30.0522856,9.61564708 L0.984819878,0.98624615 Z" fill="#FFAC9D"></path>
                                            <path d="M8.14805854,23.1661634 C15.3052164,26.7065342 23.1120114,28.7397186 31.0323156,29.6794341 C31.5694572,29.7431608 32.1096391,29.7846337 32.6477942,29.8422912 C31.3971665,28.9359563 30.4333521,27.6219729 30.0532991,25.7243342 C28.4064028,17.5056163 30.0532991,9.61564708 30.0532991,9.61564708 L0.985833352,0 C0.985833352,0 3.14656126,13.6162661 3.50634475,20.4532279 C5.00324677,21.4465547 6.53967431,22.3710973 8.14805854,23.1661634 Z" fill="#D89087"></path>
                                        </g>
                                        <g transform="translate(-0.000000, 0.000000)" fill="#FFAC9D">
                                            <path d="M9.74861243,49.1949962 C9.74861243,49.1949962 16.9574575,73.0702454 42.3257408,73.7196505 C60.87334,74.1940602 68.2443409,52.1223771 68.0071879,33.8479946 C67.7061859,10.7506155 53.1851215,-3.17619163 31.3082582,0.621108931 C9.43240835,4.41739796 0.713486137,25.065852 9.74861243,49.1949962 Z"></path>
                                            <path d="M-2.88046814e-14,39.3062348 C-2.88046814e-14,39.3062348 0.4753196,52.5967868 7.37100096,53.5466177 C14.2666823,54.4964486 14.7420019,46.1897272 14.7420019,46.1897272 L9.27329283,36.4587652 L-2.88046814e-14,39.3062348 Z"></path>
                                        </g>
                                    </g>
                                    <g transform="translate(0.000000, -0.000000)" fill="#765E69">
                                        <path d="M81.7109896,14.4545977 C81.7109896,14.4545977 81.7626722,29.6539152 70.8242406,40.0969976 C59.8858089,50.5400799 43.9539878,49.3525383 41.1010567,59.321211 C38.2481257,69.2888721 42.6273495,81.6427431 42.6273495,81.6427431 C42.6273495,81.6427431 22.5544711,76.4090635 23.5051103,52.9131398 C24.4557495,29.4172162 21.1274988,8.53206308 42.0527094,2.59840163 C62.9769066,-3.33525983 79.5705266,4.72363564 81.7109896,14.4545977 Z"></path>
                                        <path d="M76.2736937,16.6981812 C75.8753981,14.8339231 75.1801545,13.07183 74.2568792,11.4361787 C74.0136452,11.035611 73.7389936,10.6522394 73.4825845,10.2607756 L73.0903699,9.67813168 L72.6353197,9.14201839 C72.3302639,8.78696978 72.0363562,8.42281735 71.7231926,8.07687255 L70.7026236,7.11591476 C70.5313464,6.95811538 70.3661501,6.79222372 70.1908189,6.63948201 L69.6303675,6.21868365 L68.512505,5.37911 C67.7047657,4.91380413 66.9335115,4.38477158 66.0872602,3.99533079 C65.2308741,3.62814376 64.4140136,3.17902244 63.5150616,2.92108114 C62.6353656,2.61660925 61.760737,2.30606815 60.8415155,2.13613035 L59.482446,1.82558926 C59.0263825,1.73758576 58.5591707,1.70117051 58.0990532,1.63542077 L56.7156603,1.45941376 C56.2535159,1.4078255 55.7842771,1.41996392 55.3201058,1.39568709 C53.4613933,1.28037216 51.5925461,1.4047909 49.7378875,1.56764796 L46.9619805,1.94090419 C46.0437725,2.11387659 45.1316453,2.32731038 44.2174912,2.51747886 C43.7816971,2.62267845 43.2557038,2.69753201 42.8959203,2.82700843 L41.5368508,3.25185292 L40.1767679,3.67265128 C39.7318525,3.82134685 39.3477456,4.03781524 38.9301941,4.21584531 C38.114347,4.59618229 37.2721496,4.91178106 36.5252188,5.44789435 C35.7640994,5.94253473 34.9523062,6.36839076 34.2996285,7.00363443 C33.6124927,7.59133598 32.8919123,8.14464536 32.3314608,8.86283486 L31.4314953,9.87740398 C31.1325203,10.216268 30.9146233,10.6218934 30.6511199,10.9900919 L29.88696,12.1149183 C29.6599417,12.5084052 29.4643411,12.9231344 29.2504979,13.3257251 L28.6211302,14.5405781 L28.1164198,15.8221923 L27.6117095,17.1038065 L27.2154409,18.4319514 L26.8191723,19.7611077 C26.7005958,20.208206 26.61141,20.6664311 26.5060086,21.118587 C26.0661607,22.9231646 25.7834012,24.7752843 25.5128035,26.6263924 L25.1540335,29.4182277 L24.8722875,32.227259 C24.5378409,35.9820752 24.3006879,39.7601566 24.0483327,43.5453187 L24.0422518,43.6363568 L24.0280632,43.6889566 L23.5355145,45.4662228 C23.3389004,46.0478551 23.1098552,46.617349 22.8970255,47.1929122 C22.7054788,47.7775791 22.3902882,48.3076232 22.1308387,48.8629556 C21.8521332,49.4081727 21.6129531,49.9746321 21.260264,50.4773647 L20.2751666,52.0250125 C19.959976,52.5499989 19.5262089,52.9890049 19.1573041,53.47353 C18.7661029,53.9418704 18.4022655,54.4344877 17.9887679,54.8795629 L16.6783452,56.1510618 C16.2283625,56.5587102 15.8331074,57.0310968 15.3324509,57.3780532 L13.8791283,58.471522 C13.3865796,58.823536 12.9274756,59.2261267 12.4085766,59.5346448 L10.8427583,60.4450258 L7.75774153,62.2141997 C6.83446614,62.8201089 5.92335246,63.4856986 5.1308153,64.2969492 C4.30382,65.0697616 3.64911539,65.9993618 3.04204409,66.9522273 C2.4785522,67.9344274 2.00931345,68.9752964 1.66878597,70.0677536 C1.34852799,71.1642571 1.09009196,72.2880719 0.97151543,73.4391982 C0.836723305,74.5862783 0.785036099,75.749543 0.828615508,76.9128077 C0.89043746,79.2423717 1.25832875,81.5709241 1.8116859,83.852946 C2.37821821,86.1319332 3.07650223,88.3917013 4.00687194,90.5634659 C2.94475053,88.4523934 2.07721625,86.2371328 1.41237689,83.9591571 C0.745510589,81.6832045 0.259042768,79.339479 0.0806712335,76.9522575 C-0.0206762291,75.7596583 -0.0247301276,74.5559323 0.0583747918,73.3532177 C0.119183269,72.1474686 0.357349807,70.9518348 0.657338296,69.7733971 C0.979623227,68.597994 1.44379461,67.4590061 2.02147514,66.3726181 C2.64172161,65.314553 3.32784394,64.2736839 4.20044559,63.3966835 C5.02744089,62.4832679 6.02064602,61.7236054 7.05743056,61.0135082 L8.60196589,60.0889657 L10.0816388,59.1795961 L11.5602983,58.2722497 C12.0498066,57.9657547 12.4744524,57.5702447 12.9345699,57.2242999 L14.2895855,56.1540964 C14.7578108,55.8162439 15.1135404,55.3559957 15.5341323,54.9675664 L16.7513154,53.753725 C17.1344088,53.3298921 17.4648015,52.8615516 17.824585,52.4184995 C18.162072,51.9592628 18.5664484,51.5455452 18.8502213,51.0498933 L19.7451194,49.5953066 C20.0694313,49.1249431 20.2792205,48.5928759 20.5305622,48.0830625 C20.7626479,47.5651569 21.0525017,47.0705165 21.217698,46.5263109 C21.4051909,45.9912092 21.6109262,45.4611651 21.7852438,44.9230287 L22.2149571,43.2813082 L22.1946876,43.4239346 C22.4277867,39.6438301 22.6456838,35.8536103 22.9649283,32.0563097 L23.2365395,29.206817 L23.5892287,26.3573243 C23.876042,24.4617086 24.1760305,22.5620468 24.6422288,20.6836272 C24.7547245,20.2132636 24.8489776,19.740877 24.975662,19.2735481 L25.3972674,17.8796535 L25.8219133,16.4867705 L26.3641222,15.125245 L26.9093715,13.7647311 L27.5924534,12.456817 C27.8245391,12.0228687 28.0393958,11.5798166 28.287697,11.1559836 L29.126854,9.93202684 C29.4197482,9.53348225 29.6660225,9.10155701 29.9984422,8.73234691 L31.0007686,7.63078583 C31.6301364,6.85797346 32.4257139,6.25509889 33.1898738,5.62288982 C33.9216025,4.94313863 34.8063658,4.48491349 35.6445094,3.95992708 C36.459343,3.39852543 37.4059283,3.04651142 38.3180554,2.64290914 C38.7761459,2.45577526 39.2362634,2.22211079 39.692327,2.07746135 L41.0584908,1.67689368 L42.4266816,1.28138369 C42.9688905,1.11346896 43.3935363,1.08008832 43.8830446,0.972865663 C44.8316568,0.798881727 45.7752017,0.602644032 46.7258409,0.447879251 L49.6051223,0.131268949 C51.5307241,0.0139309452 53.4684876,-0.081153299 55.3991568,0.104969051 C55.8815707,0.145430432 56.3660116,0.151499639 56.8443716,0.22129552 L58.2794517,0.451925389 C58.7557847,0.535882754 59.2371852,0.591517152 59.7094644,0.69873981 L61.1151537,1.06997298 C62.061739,1.28037216 62.9667718,1.6333977 63.8707912,1.98136557 C64.79508,2.27774519 65.6301831,2.79059318 66.4977174,3.21341461 C67.3551169,3.65950133 68.1354924,4.24619135 68.9442452,4.76612009 L70.0610942,5.6896511 L70.6174918,6.15091084 C70.7918094,6.3168025 70.9549788,6.4958441 71.1242291,6.66679344 L72.127569,7.70563938 C72.4326248,8.07687255 72.7184247,8.4653018 73.0133458,8.84361571 L73.4521803,9.41412117 L73.8261524,10.0301457 C74.0693863,10.4438633 74.3298493,10.846454 74.5588946,11.2662409 C75.4213615,12.984838 75.9899208,14.8278539 76.2736937,16.6981812 Z"></path>
                                        <path d="M48.2987535,46.9703746 C48.2987535,46.9703746 46.3964617,53.6151448 50.439212,61.6851671 C50.439212,61.6851671 52.3415038,50.7676751 54.7191153,43.4107846 C57.0967268,36.0528826 48.2987535,46.9703746 48.2987535,46.9703746 Z"></path>
                                        <path d="M80.6610253,13.4066479 C80.6610253,13.4066479 80.9204748,14.2624061 81.1120215,15.8181462 C81.1991803,16.5950047 81.2873526,17.5458471 81.2934335,18.6383044 C81.330932,19.7327847 81.2640427,20.9658453 81.151547,22.3111862 C81.033984,23.6555156 80.8069657,25.1030215 80.4927885,26.6193117 C80.1796249,28.1356019 79.7509251,29.7166304 79.2097297,31.316878 C78.9482532,32.1210479 78.6736016,32.9363447 78.3280067,33.735457 C78.1597699,34.1491746 77.9895062,34.5659268 77.8192425,34.9847021 C77.6297227,35.3751544 77.440203,35.7676298 77.2486562,36.1621283 C76.3486908,37.8524025 75.2237339,39.3140698 73.8920283,40.621984 C71.2539538,43.2479276 68.0746839,45.0808281 65.1427018,46.660845 C62.1934907,48.2287235 59.4337993,49.5872144 57.3115834,51.085297 C56.2575698,51.8378786 55.3515235,52.6056333 54.6684416,53.3976649 C53.9772519,54.1826156 53.4907841,54.968578 53.1948495,55.6675483 C53.03168,56.01147 52.9151305,56.331115 52.8320255,56.6173792 C52.7316916,56.8995974 52.6658157,57.1454002 52.6333845,57.3497302 C52.5502796,57.7563671 52.5056867,57.973847 52.5056867,57.973847 C52.5056867,57.973847 52.5158215,57.7523209 52.5350775,57.3355687 C52.5350775,57.124158 52.5614278,56.8682398 52.6181824,56.567814 C52.655681,56.2633421 52.7225703,55.9163858 52.8482411,55.540095 C53.0661382,54.7804325 53.4502451,53.8690399 54.1029227,52.9616935 C54.7424252,52.0472663 55.5998248,51.1075507 56.648771,50.235608 C58.7314613,48.4593534 61.4729102,46.8914749 64.3075987,45.19412 C67.1443142,43.5078919 70.1178488,41.6517261 72.5096489,39.2473086 C73.6852795,38.0536978 74.7524682,36.6861032 75.5115607,35.3073816 C75.7051344,34.9199639 75.898708,34.5325462 76.0902547,34.1481631 C76.2503837,33.7688376 76.4094993,33.3905237 76.5676013,33.0152444 C76.9010345,32.2454667 77.2172385,31.479735 77.497971,30.7150149 C78.0949076,29.1967016 78.5438768,27.6854691 78.9715631,26.2511131 C79.3850608,24.8127111 79.6830223,23.4279203 79.9434853,22.144283 C80.4289396,19.5699277 80.6184594,17.3799555 80.6823083,15.8393884 C80.732982,14.2957867 80.6610253,13.4066479 80.6610253,13.4066479 Z"></path>
                                    </g>
                                </g>
                                <g transform="translate(62.795495, 34.174775)" id="Path">
                                    <path d="M4.54847412,19.2410979 C4.54847412,19.2410979 4.53023158,18.9002108 4.56671667,18.3003708 C4.60218828,17.6985078 4.68732015,16.8407265 4.94575618,15.829192 C5.07244051,15.3234248 5.23966382,14.7782077 5.47073603,14.2147829 C5.71701037,13.6574274 5.98760809,13.0606221 6.40921354,12.5052896 C6.79940127,11.9378188 7.33654282,11.3905786 8.00644955,10.9819186 C8.67838323,10.553028 9.52564801,10.3810671 10.3313603,10.3820742 L10.9272834,10.4549092 L11.0752507,10.4751398 L11.1117358,10.4801975 L11.1208571,10.4812091 L11.1928138,10.4994167 L11.2080159,10.5044743 L11.2688244,10.5236935 L11.5100313,10.5995586 C11.7806291,10.6612622 12.2964876,10.9192035 12.602557,11.1275796 C13.2805715,11.5595048 13.7285273,12.1826101 14.0984455,12.7642425 C14.477485,13.351944 14.7024764,13.9679685 14.900104,14.5425201 C15.0896237,15.1201063 15.2213754,15.6734157 15.3065073,16.1862637 C15.4950136,17.2089251 15.5375795,18.0656948 15.5568355,18.6635117 C15.5730511,19.2613286 15.557849,19.6042388 15.557849,19.6042388 C15.557849,19.6042388 15.4494072,19.2805478 15.258874,18.7151 C15.0723946,18.1516753 14.8129451,17.3464938 14.4653233,16.4179051 C14.1045264,15.4984202 13.661638,14.4272052 12.98261,13.5036742 C12.6481633,13.0444375 12.2458139,12.6307199 11.7927908,12.3505248 C11.6802951,12.2554406 11.5799611,12.2422906 11.4786136,12.1795755 C11.4248995,12.1542871 11.385374,12.1239411 11.3205116,12.0976412 L11.0782911,12.0278453 L10.8350572,11.9580494 L10.7742488,11.9408534 L10.7590466,11.9368072 C10.785397,11.943888 10.6901304,11.9185996 10.8158012,11.9509687 L10.8097204,11.9499572 L10.7843835,11.9479341 L10.6810091,11.9398418 L10.2705519,11.8973574 C9.73645074,11.8953343 9.20437656,11.9661417 8.73716476,12.2513945 C8.27806075,12.5315895 7.81591632,12.8684305 7.4612002,13.3256441 C6.70920203,14.1945523 6.18219522,15.2242944 5.76464368,16.1154563 C5.35418645,17.0147105 5.05825186,17.8047189 4.85961083,18.3580283 C4.66299676,18.9204415 4.54847412,19.2410979 4.54847412,19.2410979 Z" fill="#352C38"></path>
                                    <path d="M30.8653698,21.3066514 C30.8653698,21.3066514 30.8390194,21.0031911 30.8451003,20.4701124 C30.8511811,19.9339991 30.8947605,19.1723136 31.0650243,18.2639556 C31.2342745,17.3576207 31.5089261,16.2955094 32.093701,15.2182252 C32.4109186,14.6932388 32.7696886,14.1318371 33.3412883,13.6837273 C33.910861,13.2376406 34.6983308,12.941261 35.4847871,12.9705955 L36.0533464,13.0525298 L36.1242896,13.0646682 L36.1415187,13.0677028 L36.2286775,13.0940027 L36.2550278,13.104118 L36.3604292,13.1435679 L36.5702184,13.2224676 C36.86818,13.3448633 37.3303244,13.6240468 37.5482214,13.8546767 C38.085363,14.3412248 38.4238635,14.9309494 38.6762187,15.4832472 C39.1768752,16.6040275 39.3593006,17.6813117 39.4667289,18.5937158 C39.5731437,19.5071315 39.5701033,20.268817 39.5589551,20.7998726 C39.5447665,21.3309282 39.5153757,21.6354001 39.5153757,21.6354001 C39.5153757,21.6354001 39.1545787,20.4923661 38.6143967,18.7788267 C38.3275834,17.9473453 37.9900964,16.9762722 37.4833591,16.0891564 C37.2421521,15.638012 36.9107459,15.2536289 36.5762993,14.9511801 C36.4911674,14.8823957 36.3989412,14.7913576 36.3300249,14.7670808 C36.2327314,14.7286425 36.2459065,14.6740196 36.0685485,14.6264775 L35.8567323,14.5546585 L35.7503175,14.5182433 L35.7239671,14.5091395 L35.7168728,14.5071164 C35.64897,14.4868857 35.8009912,14.5324048 35.7837621,14.5273471 L35.7736274,14.5263356 L35.7330884,14.523301 C35.6246466,14.5141972 35.5182318,14.5030703 35.4118169,14.4858742 C34.9973058,14.466655 34.6050911,14.5870276 34.2321325,14.8490151 C33.8682951,15.1261755 33.5237137,15.5044894 33.2328465,15.9182071 C32.9581949,16.3481092 32.6906376,16.7830691 32.4767944,17.2281443 C32.2639647,17.6711964 32.0673507,18.1021101 31.9001273,18.508747 C31.5697346,19.3230322 31.3123121,20.0270603 31.1420483,20.5217006 C30.9657037,21.0203871 30.8653698,21.3066514 30.8653698,21.3066514 Z" fill="#352C38"></path>
                                    <path d="M0,4.57587057 C0,4.57587057 0.209789248,4.25926027 0.674974101,3.80103513 C0.903005892,3.56433606 1.19590006,3.30032555 1.5496027,3.01102668 C1.91039967,2.74094696 2.3127491,2.4051175 2.79617649,2.12188784 C3.27250957,1.82146209 3.80762417,1.52305941 4.40253378,1.2620835 C4.98528169,0.968738496 5.64606714,0.7725008 6.32509514,0.541870931 C6.66866304,0.44071748 7.02844654,0.372944668 7.39025698,0.293033441 C7.75206742,0.21211068 8.11995871,0.128153316 8.50102517,0.107922625 C9.25707724,0.0199191227 10.0313719,-0.0336922065 10.8107338,0.0239652607 C11.5900958,0.0361036749 12.3603365,0.169626231 13.1092943,0.335517891 C13.4873203,0.399244565 13.8552116,0.489271137 14.2048604,0.632909038 C14.558563,0.759350852 14.9071983,0.880734993 15.2436719,1.01628062 C15.9318211,1.24589895 16.5084882,1.66973191 17.0821148,1.98027301 C17.6618223,2.28879104 18.1178859,2.72071627 18.551653,3.08284563 C18.9702181,3.46621721 19.3776349,3.7737237 19.651273,4.15304914 C19.9482211,4.50101702 20.1823337,4.82571959 20.3759074,5.08568396 C20.7610277,5.60864731 20.9475071,5.92626914 20.9475071,5.92626914 C20.9475071,5.92626914 20.5796158,5.80286193 19.9938274,5.55402444 C19.7029602,5.42758263 19.3482441,5.28394473 18.9681911,5.09377624 C18.5992863,4.88641166 18.1067377,4.78424668 17.6364855,4.58699745 C17.1530581,4.41301351 16.6655768,4.16923369 16.1000579,4.04481495 C15.5416334,3.91230393 15.0004379,3.6594203 14.3923532,3.57040526 C13.7883223,3.47532102 13.1994935,3.26694491 12.5640449,3.22951813 C11.9377176,3.15668765 11.3103768,3.04440732 10.665807,3.05452266 C10.0283314,2.98674985 9.38680199,3.02721123 8.74932645,3.03732657 C8.11286439,3.04036118 7.48653707,3.13848003 6.86831754,3.17084913 C6.26124624,3.27604872 5.65214799,3.30841782 5.0886561,3.4338481 C4.51502946,3.52185161 3.97282054,3.63109733 3.4670967,3.7413546 C2.45159512,3.94770764 1.59014169,4.16316449 0.978003015,4.32197541 C0.355729594,4.48280939 0,4.57587057 0,4.57587057 Z" fill="#352C38"></path>
                                    <path d="M29.3907642,8.62200862 C29.3907642,8.62200862 29.4900847,8.33473282 29.7687902,7.89876144 C30.0383745,7.45368626 30.4913976,6.86901931 31.1491426,6.259064 C31.4846027,5.96470746 31.8616153,5.65113176 32.3075441,5.38105204 C32.7362439,5.08163783 33.2490621,4.8580887 33.7801228,4.62037809 C34.0486936,4.50708622 34.3405742,4.43627881 34.6314415,4.34928684 C34.9223087,4.25824873 35.2202702,4.17732597 35.5354608,4.15304914 C35.847611,4.11562237 36.1628016,4.06808024 36.4810327,4.04380342 C36.8012906,4.04380342 37.124589,4.06706871 37.4478875,4.08123019 C38.0985382,4.09235707 38.7208116,4.30174472 39.3309233,4.46156717 C39.9319138,4.65072412 40.4680418,4.97138056 40.9930217,5.23437954 C41.478476,5.56009365 41.9081893,5.92424607 42.3105387,6.25805246 C42.7007264,6.60602034 42.9834859,7.01468028 43.2672588,7.35657895 C43.5479912,7.70353528 43.7729826,8.03936474 43.9209499,8.37418267 C44.0902002,8.68978143 44.2108036,8.98312644 44.3131646,9.21679091 C44.5138325,9.688166 44.5918701,9.97038413 44.5918701,9.97038413 C44.5918701,9.97038413 44.3030298,9.85001152 43.8601414,9.61634705 C43.6402174,9.49799751 43.3706332,9.36245188 43.0919276,9.18745641 C42.8182895,9.00436867 42.4716812,8.85466156 42.1149381,8.68674683 C41.7551546,8.52490131 41.4075328,8.29629451 41.0102508,8.13748359 C40.6068879,7.99182262 40.2055519,7.81379254 39.7981351,7.64587782 C39.3653814,7.54978204 38.9498568,7.38490191 38.5171032,7.2908292 C38.0742148,7.24935629 37.6505824,7.08346463 37.1995862,7.10470685 L36.5337333,7.05008399 C36.3097554,7.07031468 36.0857776,7.06728007 35.8617997,7.07436082 C35.4138439,7.06728007 34.967915,7.16742199 34.5229997,7.1997911 C34.0872056,7.29790994 33.6422902,7.34039439 33.2298061,7.46279007 C32.8061737,7.5487705 32.4088916,7.67015464 32.0288386,7.7743427 C31.2738,7.99081108 30.6150415,8.20424487 30.1468162,8.36609039 C29.6664293,8.52894745 29.3907642,8.62200862 29.3907642,8.62200862 Z" fill="#352C38"></path>
                                    <path d="M28.7147766,13.3428402 C28.5303242,15.3487131 28.4299902,17.32424 28.5120817,19.2704324 C28.6032944,21.207521 28.8445013,23.1375289 29.5417719,24.8642183 L29.7921001,25.514635 L30.1174255,26.1225672 C30.3069452,26.5484233 30.6150415,26.8872873 30.8673967,27.2686358 C30.9393534,27.392043 31.2991369,27.7956453 31.3609588,28.2002591 C31.455212,28.6079075 31.3852822,29.0499481 31.1694121,29.4151121 C31.0609704,29.5981998 30.9119896,29.7570107 30.7447663,29.8814295 C30.6616614,29.9461677 30.5714621,29.9947213 30.4802494,30.0422635 L30.3059318,30.1211632 L29.6157555,30.4165312 C27.778326,31.2095743 25.9165731,31.9540637 23.9869175,32.564019 C25.6328003,31.3896274 27.3475993,30.34977 29.0857083,29.3574546 L29.736359,28.9831868 L29.896488,28.8931603 C29.9137171,28.8779872 29.9339866,28.8678719 29.9471617,28.8516873 C29.975539,28.8233644 29.9978355,28.7930183 30.0130376,28.7586262 C30.0393879,28.6888303 30.0474957,28.6038614 30.016078,28.5259732 C29.977566,28.4288659 29.9765525,28.4561774 29.7566285,28.1800284 C29.4252223,27.7541724 29.0674658,27.3364086 28.8272723,26.8549182 L28.4320172,26.1508902 L28.1259478,25.4114585 C27.359761,23.4126663 27.1813895,21.2935015 27.3323972,19.2532364 C27.4732702,17.2099366 27.9181855,15.2030522 28.7147766,13.3428402 Z" fill="#BF7E79"></path>
                                    <path d="M7.43180944,34.2472124 C7.43180944,34.2472124 21.9579413,37.9565095 29.0522636,37.618657 C29.0532771,37.6196685 16.8915816,48.4086956 7.43180944,34.2472124 Z" fill="#FFFFFF"></path>
                                    <path d="M8.44528406,38.631203 C8.44528406,38.631203 8.66824848,38.8011408 9.05742274,39.0975204 C9.43544877,39.4030039 10.0181967,39.78941 10.6972247,40.258762 C11.3894279,40.712941 12.1961537,41.2328698 13.0981461,41.7103141 C13.5430614,41.9621862 14.0173676,42.1857353 14.5038354,42.4001806 C14.9781415,42.644972 15.4940001,42.7967021 15.9966835,42.9848476 C16.5024073,43.1568084 17.0223198,43.2802156 17.5310841,43.4015998 C18.0489696,43.4410496 18.5546935,43.6059298 19.051296,43.5826645 C19.5448582,43.5674914 20.0343664,43.642345 20.4833357,43.5422031 C20.930278,43.4602688 21.3822877,43.4724072 21.7593002,43.3216886 C22.1444206,43.2023275 22.506231,43.1062317 22.8325699,43.0202513 C23.1355988,42.8776249 23.3991022,42.7542177 23.6169992,42.6520527 C24.0578607,42.4487343 24.3244045,42.3405001 24.3244045,42.3405001 C24.3244045,42.3405001 24.1136018,42.5195417 23.7203736,42.820979 C23.5207191,42.9706861 23.2774852,43.1517508 22.9987797,43.3591153 C22.6906834,43.5159032 22.3379942,43.6949448 21.9427391,43.8739864 C21.5596457,44.0945009 21.0873666,44.1562045 20.6039392,44.2887155 C20.1205118,44.4455034 19.5884376,44.4353881 19.0401478,44.4738264 C18.4898311,44.52238 17.9314066,44.4121228 17.3577799,44.3635691 C16.8003689,44.2452196 16.2277557,44.1218124 15.677439,43.9447938 C15.1402974,43.7323716 14.5879538,43.55333 14.0903377,43.2852733 C13.5734657,43.0526204 13.0991595,42.764333 12.6471499,42.4780688 C12.1809515,42.2150698 11.784683,41.8792403 11.3863874,41.5980337 C11.0022805,41.2986195 10.6516183,40.9992053 10.3384547,40.7139526 C9.71314082,40.141424 9.24390207,39.6123915 8.92263061,39.2411583 C8.60237263,38.8648675 8.44528406,38.631203 8.44528406,38.631203 Z" fill="#BF7E79"></path>
                                </g>
                            </g>
                            <path d="M56.2478418,200.46591 C56.2478418,200.46591 36.9918239,232.835014 38.0052985,263.686817 C39.0187731,294.538619 38.5120358,335 38.5120358,335 L93.2396656,332.976931 C93.2396656,332.976931 106.921573,299.090525 107.42831,286.952111 C107.42831,286.952111 111.988946,318.309681 112.495684,330.953862 L157.088567,330.617021 C157.088567,330.617021 167.730051,283.917507 163.676152,251.042635 C159.622254,218.167764 122.63043,191.867866 122.63043,191.867866 L56.2478418,200.46591 Z" id="Path" fill="#01387B" fill-rule="nonzero"></path>
                            <path d="M126.53028,194.885274 C124.128345,192.937058 122.63043,191.867866 122.63043,191.867866 L56.2478418,200.46591 C56.2478418,200.46591 54.721549,203.032173 52.5516998,207.40706 C63.1202132,210.081557 101.998113,210.828069 126.53028,194.885274 Z" id="Path" fill="#241E26" fill-rule="nonzero" opacity="0.5"></path>
                            <g id="Group" opacity="0.5" transform="translate(107.427297, 239.123724)" fill="#241E26" fill-rule="nonzero">
                                <path d="M56.2488552,11.9189112 C55.7451584,7.83028866 54.721549,3.84686575 53.3330887,0 C47.9201208,10.9002959 37.1701954,19.8715955 28.5232299,27.38932 C20.9616957,33.9642943 9.23579427,43.6730026 0,47.8283864 C0,47.8283864 4.56063582,79.1859563 5.06737313,91.8301377 L49.6602567,91.4932967 C49.6612702,91.4932967 60.3027538,44.7937828 56.2488552,11.9189112 Z" id="Path"></path>
                            </g>
                            <g id="Group" transform="translate(124.657379, 115.497011)" fill-rule="nonzero">
                                <path d="M4.72887261,0.67469352 C4.72887261,0.67469352 49.3217562,19.8938493 52.024693,34.3921734 C54.7276298,48.8904976 20.6069796,45.5190531 20.6069796,45.5190531 L0,33.0437979 L3.64850866,0" id="Path" fill="#FFAC9D"></path>
                                <path d="M4.72887261,0.67469352 C4.72887261,0.67469352 49.3217562,19.8938493 52.024693,34.3921734 C54.7276298,48.8904976 20.6069796,45.5190531 20.6069796,45.5190531 L0,33.0437979 L3.64850866,0" id="Path" fill="#D89087"></path>
                            </g>
                            <path d="M104.478086,109.427804 C115.789476,109.17492 125.753959,107.806314 150.866846,125.378691 C150.866846,125.378691 147.612579,148.445724 137.697757,157.556616 L118.051551,147.751812 L104.478086,109.427804 Z" id="Path" fill="#1AA484" fill-rule="nonzero"></path>
                            <path d="M136.306256,116.357827 C131.734472,126.270865 128.410276,136.977958 121.934173,145.671085 C121.233862,146.610801 120.496052,147.504997 119.73696,148.374917 C119.631558,148.622743 119.526157,148.876638 119.421769,149.121429 L137.697757,157.557627 C147.612579,148.446736 150.866846,125.379703 150.866846,125.379703 C145.353544,121.520699 140.546634,118.595341 136.306256,116.357827 Z" id="Path" fill="#241E26" fill-rule="nonzero" opacity="0.2"></path>
                            <g id="Group" transform="translate(33.890987, 109.080912)" fill-rule="nonzero">
                                <path d="M23.9257131,91.3849973 C23.9257131,91.3849973 14.9909208,89.3619283 13.5011131,79.2465831 C12.0123189,69.131238 -8.3909523,20.9518492 3.94404738,9.11386075 C12.727832,0.68474365 28.3931093,1.35842564 28.3931093,1.35842564 C28.3931093,1.35842564 33.357108,21.0833486 50.2345009,19.5660469 C67.1118939,18.0487451 70.5870984,0.346891122 70.5870984,0.346891122 C70.5870984,0.346891122 88.9532856,-2.18194516 94.4138869,6.4160982 C99.8744882,15.0141416 103.913185,78.025661 88.0279832,83.5891008 C72.1437954,89.1525406 41.2997086,94.9253681 23.9257131,91.3849973 Z" id="Path" fill="#1AA484"></path>
                                <path d="M62.6140935,74.0958494 C51.1952749,72.0090537 41.6665865,66.7298551 31.4122502,61.5700175 C23.2324965,57.4540836 14.925045,54.1868271 6.2719986,54.7148481 C9.5191713,65.7142744 12.9254595,75.3319446 13.5011131,79.2455716 C14.9909208,89.3609167 23.9257131,91.3839858 23.9257131,91.3839858 C41.2997086,94.9243565 72.1437954,89.1515291 88.0279832,83.5880893 C92.1467441,82.145641 94.9226511,76.8360964 96.6850835,69.6198092 C85.9452929,75.7102585 74.6004579,76.2868331 62.6140935,74.0958494 Z" id="Path" fill="#241E26" opacity="0.2"></path>
                            </g>
                            <g id="Group" transform="translate(0.000000, 113.473942)" fill-rule="nonzero">
                                <path d="M177.71987,44.2637388 C175.851023,64.0695845 85.055858,83.1268947 106.56787,75.220741 C106.56787,75.220741 104.888543,76.1341567 103.347048,76.1371913 C101.340368,76.1412374 100.96741,73.9654267 106.08647,73.4303249 C106.08647,73.4303249 99.2678127,75.322906 102.25959,72.158826 C102.828149,71.5579745 104.258162,71.4426596 105.387173,70.8438311 C105.387173,70.8438311 103.433193,72.0576726 102.25959,72.4046289 C100.793092,72.8385772 97.3898442,69.9000694 107.698908,66.3384564 C107.698908,66.3384564 95.1095263,56.1482577 110.827504,64.7361858 C110.827504,64.7361858 146.531202,38.6052147 147.431167,38.0306631 C160.464451,29.7148379 179.588717,24.457893 177.71987,44.2637388 Z" id="Path" fill="#FFAC9D"></path>
                                <g id="Path">
                                    <g transform="translate(0.000000, 23.602135)">
                                        <path d="M24.323391,2.874954e-14 C24.323391,2.874954e-14 0,39.449846 0,59.3436953 C0,79.2375445 101.68495,113.291865 67.9028,97.4451658 C67.9028,97.4451658 93.5771527,106.212135 68.5787876,95.0852558 C68.5787876,95.0852558 94.2531403,103.852225 69.9297492,92.3874932 C69.9297492,92.3874932 91.2127164,99.8050758 70.6057368,89.6897307 C70.6057368,89.6897307 86.8213308,83.6205236 66.8893254,87.6666616 C66.8893254,87.6666616 31.7552005,55.6343982 30.7417258,55.9722507 C29.7282512,56.3090917 44.9303706,24.9515218 44.9303706,24.9515218 L24.323391,2.874954e-14 Z" fill="#FFAC9D"></path>
                                        <path d="M38.9599916,37.4085694 C42.097709,30.7951567 44.9303706,24.9515218 44.9303706,24.9515218 L24.323391,2.874954e-14 C24.323391,2.874954e-14 17.8776924,10.4542092 11.6235405,23.3128359 C18.5658417,31.007579 28.4715427,35.6525454 38.9599916,37.4085694 Z" fill="#D89087"></path>
                                    </g>
                                    <path d="M46.9573199,0 C38.2667749,4.49222477 32.4251072,1.68926264 12.4991826,38.4383115 C12.4991826,38.4383115 26.6878273,57.3206262 43.5794089,60.6920708 L57.2613164,40.4613805 L46.9573199,0 Z" fill="#1AA484"></path>
                                </g>
                            </g>
                            <g id="Group" transform="translate(257.218374, -0.000000)" fill-rule="nonzero">
                                <g transform="translate(3.751342, 84.139441)" id="Path">
                                    <path d="M0,32.8748717 L13.6819075,34.3921734 L23.3099164,0 L54.4641264,5.29740624 L41.5524597,40.4613805 L54.7276298,45.5190531 C54.7276298,45.5190531 13.1751701,73.8420194 0,32.8748717 Z" fill="#F19C7C"></path>
                                    <path d="M28.2161471,35.6950299 C34.2149034,36.7025183 39.4677424,35.8578869 44.1439143,33.4028927 L54.463113,5.29841778 L23.3089029,0.00101153451 L14.5149836,31.4152274 C18.9641372,33.2885893 23.507544,34.9040099 28.2161471,35.6950299 Z" fill="#C97F6B"></path>
                                </g>
                                <g transform="translate(0.000000, -0.000000)" id="Path">
                                    <g transform="translate(5.965232, 28.489500)" fill="#F19C7C">
                                        <path d="M18.0778989,1.17981909 C18.0778989,1.17981909 7.20635662,13.7724122 1.10523937,48.2364046 C-4.99689136,82.6993855 15.381043,87.7408735 32.4915351,83.4125173 C49.6020272,79.0841611 53.1917543,59.0638701 63.0032022,25.4738435 C72.81465,-8.11517155 18.0778989,1.17981909 18.0778989,1.17981909 Z"></path>
                                        <path d="M52.7954857,49.5291457 C52.7954857,49.5291457 63.8048606,31.2557748 66.7672469,43.439708 C69.7306468,55.6236412 59.5827253,65.9210625 51.7951863,63.1848617 C44.0076473,60.4476493 52.7954857,49.5291457 52.7954857,49.5291457 Z"></path>
                                    </g>
                                    <g transform="translate(0.000000, -0.000000)">
                                        <path d="M58.5174841,43.070128 C58.5174841,43.070128 51.3593128,55.0325352 56.6172192,64.4762214 C61.8751255,73.9199076 44.8497653,105.518223 41.7536003,100.657799 C38.6574353,95.797376 46.2615354,89.758515 35.116355,85.0123951 C23.970161,80.2662751 12.1266966,75.2531101 10.0369119,90.2754091 C7.94712719,105.296697 6.52116839,84.2153059 7.69173158,73.8764116 C7.69173158,73.8764116 -1.66061227,92.5908116 0.259922148,102.594888 C2.18045657,112.598964 23.4330195,124.169908 42.2724993,115.560737 C61.1119791,106.951567 55.7750218,79.1272873 64.6307631,70.5019325 C72.0514243,63.2745184 72.9949691,73.9431729 72.9949691,73.9431729 C72.9949691,73.9431729 93.090144,53.1085965 85.1982171,39.0604052 C78.0471402,26.3312549 67.4249126,29.060375 67.4249126,29.060375 L68.1171158,34.7593605 C68.1171158,34.7593605 78.0522075,18.90558 67.0681695,15.8193882 C56.085145,12.734208 45.0119212,16.9654569 37.7544294,4.5984359 C37.7544294,4.5984359 35.7284937,7.57841657 36.5676506,9.97777644 C36.5676506,9.97777644 29.8138557,7.55211667 29.9141897,-1.437477e-14 C29.9141897,-1.437477e-14 12.3344588,1.58102844 14.8995631,23.6577692 C14.8995631,23.6577692 11.4993558,15.005103 15.4407586,6.20576424 C15.4407586,6.20576424 1.02408202,16.4293436 11.4821267,31.2999124 C21.9411848,46.1694698 45.9139136,28.5768615 58.5174841,43.070128 Z" fill="#5B4A54"></path>
                                        <path d="M41.3988842,91.3506703 C41.3765877,92.3622048 41.3421296,93.3747509 41.2934828,94.3872969 C41.4333423,93.3757624 41.5316494,92.3581587 41.3988842,91.3506703 Z" fill="#51434C"></path>
                                        <path d="M85.1972036,39.0593937 C80.6436622,30.9539676 74.6864583,29.119044 70.9568717,28.854022 C72.7324792,24.0067486 73.601027,17.6543119 67.0681695,15.8193882 C63.5726955,14.8371882 60.0691138,14.596443 56.6810681,14.3253518 C56.0182557,19.6713117 53.3436961,24.6824537 48.6442143,28.3765777 C41.9198101,33.6628571 34.4028688,35.6323148 25.9656926,35.2459086 C22.5046767,35.0870977 18.2085578,34.6946223 13.7776467,33.8722447 C25.1245086,43.932967 46.7621919,29.5540039 58.5174841,43.0711396 C58.5174841,43.0711396 51.3593128,55.0335467 56.6172192,64.4772329 C61.8751255,73.9209191 44.8497653,105.519234 41.7536003,100.658811 C41.3086849,99.9598406 41.0897744,99.2365934 40.9985617,98.4971617 C40.309399,105.555649 38.5753439,112.3916 34.3248313,118.02787 C36.9811483,117.552449 39.649627,116.758394 42.2714858,115.559726 C61.1119791,106.949544 55.7740083,79.1262757 64.6297496,70.5009209 C72.0504108,63.2735069 72.9939557,73.9421614 72.9939557,73.9421614 C72.9939557,73.9421614 93.0891306,53.107585 85.1972036,39.0593937 Z" fill="#51434C"></path>
                                    </g>
                                </g>
                                <g transform="translate(13.093551, 47.648244)" id="Path">
                                    <path d="M0.70537834,37.834515 C0.70537834,37.834515 14.2656688,41.5073968 24.7976972,44.0999597 C24.7976972,44.1009713 10.8755962,53.8734062 0.70537834,37.834515 Z" fill="#FFFFFF"></path>
                                    <path d="M12.0147417,33.614393 C10.6485779,33.2907019 9.31484529,32.8891227 7.97908573,32.4915897 L5.98963504,31.8593806 L5.00048381,31.5306319 C4.55962234,31.3748556 4.12889563,31.0703837 3.84512273,30.6647583 C3.55425552,30.2641907 3.38500525,29.7675272 3.38095135,29.2597369 C3.37284356,29.0058417 3.41844992,28.7499235 3.49446051,28.5071552 C3.56743069,28.2562947 3.70526323,28.0236417 3.76505824,27.899223 L4.69644142,26.0572186 C5.31871484,24.8292157 5.94504216,23.6032359 6.54197871,22.3620831 C7.78044471,19.9020311 8.97127739,17.4187139 10.1874469,14.9404543 C11.3955087,12.4571371 12.5944492,9.9657276 13.8896698,7.48443344 C13.3352991,10.2287266 12.5093173,12.9001892 11.5455029,15.517029 C10.5938503,18.1409495 9.46078564,20.6930511 8.23549482,23.1996336 C7.59801928,24.4407865 6.95750331,25.6809278 6.27138099,26.8967923 L5.20824611,28.7033929 C5.10487169,28.8824345 5.05521144,28.9471727 5.02683415,29.029107 C4.99136254,29.1130644 4.97007957,29.2020794 4.95994482,29.2941291 C4.93460796,29.4782284 4.97311999,29.6805353 5.06838661,29.8524961 C5.16263975,30.0305262 5.30655314,30.1670834 5.50722112,30.2712714 L6.44975252,30.7173581 L8.32366711,31.6358315 C9.56314658,32.2720867 10.804653,32.9042958 12.0147417,33.614393 Z" fill="#C97F6B"></path>
                                    <path d="M48.0772093,42.0647523 C48.7025232,41.6641846 49.2903385,41.2180979 49.7970758,40.7204229 C50.0534849,40.47462 50.2794897,40.2106095 50.4740768,39.9395183 C50.5541413,39.7958804 50.6443406,39.6583117 50.7162973,39.5187199 C50.7629171,39.3720474 50.8318334,39.2354903 50.8703454,39.09691 C50.8774397,38.9552952 50.9169652,38.8207611 50.9108844,38.6892616 C50.8774397,38.5567506 50.8794667,38.4303088 50.8399412,38.3058901 C50.7760923,38.1824828 50.7193377,38.0631218 50.6696774,37.9427492 L50.4000932,37.5957928 C50.2318564,37.3621284 49.9349083,37.1719599 49.7180248,36.9585261 L48.8717734,36.4163436 L48.4542219,36.1482869 L48.5119899,35.6354389 C48.7217792,33.775227 49.0460911,31.9686263 49.5741114,30.1650603 C49.8244396,29.26176 50.1487515,28.3705981 50.5642761,27.4935976 C50.9899354,26.625701 51.4561337,25.7224007 52.3520453,24.9789228 C52.7898663,24.615782 53.4090993,24.2900678 54.1043429,24.278941 C54.802627,24.2576987 55.4036174,24.543963 55.8394115,24.8767579 C56.0248774,25.0224188 56.197168,25.1266069 56.3947956,25.3056485 L56.9846378,25.8943616 L57.4386745,26.536686 C57.5623184,26.7673159 57.6646793,27.0080611 57.7731211,27.2417255 C57.8531856,27.4865169 57.9210884,27.7343429 57.9889912,27.9771111 C58.0244628,28.2269602 58.0700692,28.4747861 58.0913521,28.7216005 C58.114662,29.2172525 58.0852713,29.7048121 58.0001394,30.1751756 C57.8379835,31.1159027 57.4913751,31.9999839 57.0079477,32.7819001 C57.2319256,31.8937728 57.3251653,30.991484 57.298815,30.1245989 C57.2917206,29.6906506 57.2167235,29.2678292 57.1275377,28.8642269 C57.0758505,28.6639431 57.0049073,28.4717515 56.9481527,28.2775369 L56.6887032,27.7394005 L56.357297,27.2579101 L55.9711632,26.8290195 C55.8272498,26.7197737 55.6894173,26.610528 55.5566521,26.4982477 C55.4076713,26.3849558 55.1765991,26.2706524 54.9901198,26.1573606 C54.6840504,25.9823651 54.3982506,25.8963846 54.1793401,25.9307768 C53.9584026,25.9550536 53.7283439,26.0794724 53.4881504,26.3090907 C53.0158712,26.7733851 52.5810906,27.5027015 52.2466439,28.2694446 C51.9040895,29.0412454 51.6284244,29.8676691 51.3598536,30.7021851 C51.0963502,31.5397357 50.8784532,32.397517 50.668664,33.2603559 C50.4507669,34.1181372 50.2541528,35.0001953 50.0960508,35.8559535 L49.7372808,35.0760604 L50.6717044,35.8377458 C50.9504099,36.1624484 51.2605331,36.4214013 51.4905919,36.8067959 C51.6051145,36.9989875 51.7226776,37.1861213 51.8230116,37.3833706 C51.8929413,37.6099543 51.9547633,37.8375496 52.0105044,38.0621102 C52.043949,38.2937516 52.0206391,38.5415776 52.0165852,38.7742305 C51.9851675,39.0048604 51.8969952,39.2243634 51.8321328,39.4408318 C51.7388932,39.6421271 51.6182897,39.8252149 51.5068075,40.0093142 C51.3760692,40.1741943 51.2311424,40.3218783 51.0943233,40.47462 C50.7973752,40.7497574 50.485225,40.9884796 50.1588862,41.1928096 C49.4991142,41.5852849 48.7988033,41.8735723 48.0772093,42.0647523 Z" fill="#C97F6B"></path>
                                    <path d="M19.6624212,5.37740705 C19.6624212,5.37740705 19.8884261,5.10732734 20.3607052,4.74014031 C20.8258901,4.35676873 21.5373493,3.89854359 22.4626516,3.46661836 C22.9308769,3.27847294 23.4426816,3.05391228 24.0122543,2.90622824 C24.5787866,2.74944039 25.1878849,2.60377942 25.8405626,2.54409888 C26.4851324,2.43889929 27.1763221,2.46115305 27.8756196,2.48239528 C28.5759306,2.53802967 29.296511,2.65435614 30.0018894,2.84047849 C30.6981464,3.08425831 31.4106191,3.2774614 32.0359329,3.68308674 C32.3572044,3.86010528 32.672395,4.04015843 32.9683296,4.23740766 C33.2460216,4.46803752 33.5196598,4.69360972 33.7740419,4.9303088 C34.3182778,5.36324557 34.7033982,5.91453188 35.0581143,6.42535681 C35.2253376,6.68734425 35.4158708,6.91898565 35.5405282,7.17895002 C35.6509969,7.44397206 35.7584252,7.70090183 35.8617997,7.94670471 C36.0391577,8.4474143 36.2428661,8.87225879 36.2925264,9.29912636 C36.3594157,9.71891318 36.3867795,10.0881233 36.4121164,10.3855144 C36.4587362,10.9813083 36.4354263,11.3191608 36.4354263,11.3191608 C36.4354263,11.3191608 36.146586,11.0915655 35.728021,10.6970671 C35.5212722,10.4988063 35.2658766,10.2681764 35.0094675,9.99809671 C34.7621797,9.71992472 34.3861806,9.49030638 34.0649091,9.19898444 C33.9037667,9.05838114 33.7355299,8.91069711 33.5622257,8.75896693 C33.3858811,8.61532903 33.1750784,8.50102563 32.9804913,8.36750307 C32.5923305,8.1014695 32.2173449,7.80508988 31.7612813,7.60784065 C31.5413573,7.49960646 31.333595,7.37316465 31.1238058,7.2487459 C30.8896931,7.1607424 30.6535536,7.0757735 30.4255218,6.97259698 C29.9816199,6.74904785 29.4698152,6.63777905 28.9833474,6.47391046 C28.7492347,6.36668781 28.4745831,6.35353786 28.2222279,6.28677658 C27.9617649,6.2463152 27.718531,6.13808101 27.4509737,6.11279264 C26.9209265,6.04805443 26.4050679,5.91857802 25.8750207,5.88115124 C25.3520678,5.80528615 24.8321553,5.7628017 24.3284584,5.71930572 C23.8247615,5.66063672 23.3393072,5.65456751 22.8802032,5.60297925 C21.0549354,5.49777966 19.6624212,5.37740705 19.6624212,5.37740705 Z" fill="#352C38"></path>
                                    <path d="M12.2893933,6.23114218 C12.2893933,6.23114218 12.0370381,6.11481571 11.6509043,5.9297049 C11.2901073,5.75470943 10.7742488,5.50384887 10.1550158,5.20342312 C9.85604074,5.07495823 9.56720047,4.90906657 9.24795597,4.78363629 C8.94391358,4.62988305 8.62061517,4.51254504 8.30947846,4.38003402 C7.99530133,4.25359221 7.67808377,4.15446183 7.37606833,4.04622763 C7.06290467,3.97845482 6.77102398,3.84796687 6.46495464,3.82369004 C6.16902005,3.72961733 5.86700461,3.7316404 5.5639757,3.676006 C5.26094679,3.62340621 4.94676965,3.67094833 4.62651167,3.62239467 C4.30726716,3.62947541 3.98092833,3.67195986 3.64952213,3.66690219 C3.31811593,3.66993679 3.00089837,3.75895183 2.68266734,3.77918252 C2.36544978,3.80952856 2.04721875,3.82065544 1.78067492,3.88438211 C1.51413109,3.94203958 1.25265464,3.96429334 1.03881149,3.9926163 C0.603017403,4.03914689 0.319244507,4.0482507 0.319244507,4.0482507 C0.319244507,4.0482507 0.395255104,3.79739014 0.589842233,3.39075327 C0.690176221,3.19148097 0.811793176,2.93859734 0.983070388,2.67964451 C1.13711853,2.39944945 1.36008295,2.12734666 1.637775,1.85726695 C1.91952094,1.59325644 2.20734774,1.26855386 2.59854894,1.02679711 C2.995831,0.798190312 3.42047686,0.534179804 3.90795816,0.353115126 C4.15828639,0.27118083 4.42077632,0.208465691 4.68833362,0.143727482 C4.95589092,0.0759546694 5.22750212,0.00514725354 5.51532892,0.0152625987 C6.08692861,-0.0110372987 6.67677084,-0.0201411093 7.24127621,0.131589068 C7.82098369,0.234765588 8.34697702,0.457303181 8.85067391,0.700071464 C9.11113689,0.806282588 9.31991267,0.97925499 9.54389056,1.12491596 C9.7617876,1.27664614 9.98677897,1.41522636 10.1600831,1.60033718 C10.9262699,2.26592689 11.4248995,3.04177386 11.7583326,3.72759426 C12.0694693,4.43465689 12.222504,5.05371601 12.2681104,5.50890654 C12.3268919,5.95802786 12.2893933,6.23114218 12.2893933,6.23114218 Z" fill="#352C38"></path>
                                    <path d="M19.9674771,17.9932655 C19.9674771,17.9932655 20.0090296,17.6867705 20.1519295,17.1638072 C20.2978698,16.6438785 20.5380633,15.9004006 20.9860191,15.0668962 C21.2110105,14.6511555 21.4846486,14.2101264 21.8282165,13.772132 C22.185973,13.3462759 22.5923764,12.8981662 23.125464,12.5400829 C23.4001157,12.3721682 23.6626056,12.1728959 23.9889444,12.0606156 L24.466291,11.8653894 L24.98519,11.7672706 C25.683474,11.6347595 26.4141892,11.7318669 27.0830824,11.9220354 C27.1905108,11.9574391 27.2026725,11.9382199 27.3871248,12.0221773 L27.5928602,12.1202961 L28.0033174,12.3165338 C28.2769556,12.4460102 28.6144426,12.7221592 28.9012559,12.9305353 C29.4231954,13.4120257 29.81541,13.9926465 30.0495227,14.5955211 C30.3079587,15.1913149 30.4001849,15.8022817 30.4326161,16.3606488 C30.477209,16.9220504 30.4275487,17.4440023 30.3596459,17.9133543 C30.2228268,18.8550929 29.95831,19.5925016 29.7535881,20.0932111 C29.5437988,20.5939207 29.3856968,20.8589428 29.3856968,20.8589428 C29.3856968,20.8589428 29.4323166,20.5524478 29.4799499,20.0244268 C29.5285967,19.4974173 29.5812974,18.7438241 29.5468393,17.8688468 C29.5235293,17.4318638 29.477923,16.9635234 29.3826564,16.4921483 C29.3360365,16.2554492 29.2833359,16.0157155 29.1921231,15.7881203 C29.1221934,15.5504096 29.0259133,15.3268605 28.9124041,15.1083691 C28.8262588,14.8726815 28.6478873,14.6986976 28.5201895,14.4903215 C28.3641144,14.3052107 28.1766216,14.139319 28.0114252,13.9673581 C27.8006225,13.8479971 27.6901537,13.7023361 27.4165156,13.5769058 L27.000991,13.3928065 L26.7932287,13.3007569 C26.842889,13.3139068 26.6989756,13.2815377 26.6624905,13.2724339 C26.1719688,13.1227268 25.6702988,13.0357348 25.1888984,13.1176691 L24.8270879,13.1682459 L24.4764257,13.2825493 C24.2352187,13.3351491 24.0234025,13.4797985 23.8004381,13.5870212 C23.3697114,13.8378817 22.9734428,14.152469 22.6126459,14.4791946 C22.269078,14.8271625 21.9478065,15.1710842 21.6660606,15.5119713 C21.1137169,16.1998148 20.6971788,16.8310123 20.411379,17.2770991 C20.1225387,17.7252089 19.9674771,17.9932655 19.9674771,17.9932655 Z" fill="#352C38"></path>
                                    <path d="M0,14.052327 C0,14.052327 0.0111482209,13.743809 0.101347463,13.2097188 C0.195600603,12.6776516 0.361810442,11.9149546 0.725647833,11.0409888 C0.90908674,10.6050174 1.13813201,10.1387 1.43609355,9.66934799 C1.75027068,9.21011132 2.11106765,8.72457476 2.60564326,8.31591481 C2.86306582,8.12170019 3.10427278,7.89815106 3.41844992,7.75350162 L3.8745135,7.51275641 L4.38125081,7.36406084 C5.06331923,7.16478854 5.80011529,7.18906536 6.48421066,7.31348411 C6.59467939,7.33776094 6.60481414,7.31753025 6.79636085,7.38327999 L7.01020399,7.46116815 L7.43789028,7.61593293 C7.72267665,7.71809791 8.08550057,7.95985466 8.39156991,8.13889627 C8.95810222,8.56677537 9.40605801,9.1069348 9.6979387,9.68350947 C10.0141428,10.2509803 10.166164,10.8498088 10.2523093,11.4021066 C10.3526433,11.9564275 10.3536568,12.4804024 10.3323738,12.9548121 C10.2877809,13.904643 10.0982612,14.6653169 9.94319956,15.1832226 C9.78408404,15.7021398 9.65131887,15.9813234 9.65131887,15.9813234 C9.65131887,15.9813234 9.66753446,15.6717938 9.66348056,15.1417497 C9.65942667,14.6117056 9.6381437,13.8581124 9.51754022,12.9902158 C9.45166437,12.5582906 9.36045165,12.0960193 9.21957868,11.6367826 C9.14964893,11.4061527 9.07465181,11.1724883 8.96012917,10.9550084 C8.86688951,10.72539 8.74932645,10.5119562 8.6155478,10.3066147 C8.50710602,10.0810425 8.31251889,9.92425469 8.16455159,9.73004006 C7.99023396,9.5611138 7.78753903,9.41444129 7.60612707,9.25967651 C7.38417613,9.16155766 7.26053222,9.02803511 6.97574585,8.92991626 L6.54400566,8.7872899 L6.32813557,8.71547094 C6.3788093,8.72356322 6.23185548,8.70636713 6.19435692,8.70029793 C5.6916735,8.59914448 5.18392271,8.5617177 4.71265701,8.69119412 L4.35794089,8.77616302 L4.02045384,8.92485859 C3.78532773,9.00072368 3.58871365,9.1656038 3.37791093,9.29406869 C2.97454803,9.58640216 2.61071064,9.93740464 2.28335833,10.2985225 C1.97526205,10.6778479 1.6894622,11.0521157 1.44318787,11.4193027 C0.960773946,12.1577229 0.609098251,12.8263472 0.367891289,13.2987338 C0.127697803,13.7711204 0,14.052327 0,14.052327 Z" fill="#352C38"></path>
                                </g>
                            </g>
                            <g id="Group" transform="translate(196.613064, 239.577903)" fill-rule="nonzero">
                                <path d="M20.550225,0.00101153451 C20.550225,0.00101153451 5.30351272,43.1601546 5.76093627e-14,91.7138112 L38.4481869,91.7138112 L46.4029493,61.3677758 L55.6833364,64.0655384 L51.0426361,92.3885047 L96.1199605,92.3885047 L105.400348,22.9294643 L23.2004612,0.675705055" id="Path" fill="#472A12"></path>
                                <path d="M73.6542685,37.9962709 C83.6086163,38.6659068 93.5366137,38.526315 103.417991,37.7737333 L105.401361,22.9284528 L23.2014746,0.67469352 L20.550225,-5.749908e-14 C20.550225,-5.749908e-14 17.6243238,8.28345613 13.8896698,21.67415 C32.5274681,30.9418292 52.7614891,36.592261 73.6542685,37.9962709 Z" id="Path" fill="#241E26" opacity="0.2"></path>
                                <path d="M7.00310967,49.4731415 C4.21706792,62.3074914 1.63574805,76.746135 0.00101347463,91.7127997 L38.4492004,91.7127997 L46.2570089,61.928166 C32.9835317,58.3523914 19.832685,54.3993146 7.00310967,49.4731415 Z" id="Path" fill="#241E26" opacity="0.2"></path>
                            </g>
                            <g id="Group" transform="translate(157.460093, 62.385505)" fill-rule="nonzero">
                                <g transform="translate(0.000000, 0.000000)" id="Path">
                                    <path d="M5.16609975,29.4041715 C5.16609975,29.4041715 -5.71152341,88.2734571 8.19132151,105.454371 C17.5456923,117.014187 68.9339233,96.2392913 68.9339233,96.2392913 L62.2997183,66.8177985 L27.1088389,79.7108174 C27.1088389,79.7108174 20.0307321,36.3584712 21.4242597,30.7950314 C21.4242597,30.7950314 30.0935217,30.3711985 30.9884198,19.9432892 C31.7029194,11.6284755 26.3619081,11.8985552 26.3619081,11.8985552 C26.3619081,11.8985552 29.0486293,-2.70092244 20.9884656,3.40773449 C20.9884656,3.40773449 18.6017329,-4.1595552 14.42115,3.25903891 C14.42115,3.25903891 9.0983813,-3.7286415 7.70485369,4.15323542 C7.70485369,4.15323542 1.97872205,-1.4365043 1.08281048,8.09822002 C0.259869086,16.8672127 -2.26570968,26.6224516 5.16609975,29.4041715 Z" fill="#F19C7C"></path>
                                    <path d="M21.7901241,17.1716846 C21.0026543,15.3317033 20.2688986,13.4684568 19.3527176,11.6952368 C13.1340373,11.601164 6.91434348,11.4898952 0.69667665,11.5880141 C-0.18605975,18.9358008 -1.18129183,26.2400915 4.28640378,29.0127076 C4.31072717,29.0116961 4.33201014,29.0046153 4.357347,29.0036038 C8.07781235,28.8812081 11.8165203,29.0076499 15.5268509,29.3879869 C14.9775476,24.3798795 17.3348896,18.2358189 21.7901241,17.1716846 Z" fill="#C97F6B" opacity="0.6"></path>
                                    <path d="M51.7190432,102.34896 C61.4717096,99.2546757 68.9339233,96.2392913 68.9339233,96.2392913 L62.2997183,66.8177985 L46.6597779,72.5481415 C47.0986124,82.5623332 49.0120525,92.6837475 51.7190432,102.34896 Z" fill="#C97F6B"></path>
                                    <path d="M0.64194902,10.2902153 C0.64194902,10.2902153 0.64194902,1.86109822 4.52659726,2.19793921 C8.41124551,2.5347802 8.07375846,6.24407726 8.07375846,8.60398728 C8.07375846,10.9638973 6.89103357,21.417095 3.17563559,20.4055604 C0.894304202,19.7844783 0.64194902,10.2902153 0.64194902,10.2902153 Z" fill="#F19C7C"></path>
                                    <path d="M7.39777088,11.3017498 C7.39777088,11.3017498 7.39777088,2.87263273 11.2824191,3.20947372 C15.1670674,3.54631471 14.8295803,7.25561177 14.8295803,9.61552179 C14.8295803,11.9754318 13.6468554,22.4286295 9.93145745,21.417095 C7.65012606,20.7960128 7.39777088,11.3017498 7.39777088,11.3017498 Z" fill="#F19C7C"></path>
                                    <path d="M13.0833635,10.5815373 C13.0833635,10.5815373 13.8525908,2.42148834 17.5142746,3.09415879 C21.1759584,3.76784077 20.5161864,7.32743072 20.3003164,9.61248719 C20.0844463,11.8975437 18.0068233,21.9107238 14.5670904,20.5997751 C12.4560227,19.7945936 13.0833635,10.5815373 13.0833635,10.5815373 Z" fill="#F19C7C"></path>
                                    <path d="M18.1831679,11.0104279 C18.1831679,11.0104279 18.9523951,2.85037897 23.0377113,3.5635108 C27.1230275,4.27664263 26.4267705,7.83319798 26.2109004,10.1182544 C25.9950303,12.4033109 23.788696,22.4043526 19.9435733,21.0549656 C17.5842044,20.2265188 18.1831679,11.0104279 18.1831679,11.0104279 Z" fill="#F19C7C"></path>
                                    <path d="M15.5025275,26.9775002 C15.4366516,26.458583 15.3829375,25.9366312 15.3849644,25.4075986 C15.3869914,24.8805891 15.4315842,24.3515566 15.52077,23.8275817 C15.702182,22.7826665 16.0721002,21.7498898 16.6558616,20.8395087 C17.2426634,19.9321623 18.0088502,19.1391192 18.8844923,18.4998294 C19.3223133,18.1801845 19.7854712,17.8969549 20.2688986,17.6481174 C20.7573934,17.3992799 21.2418343,17.1888807 21.7982318,17.022989 L21.8782963,17.8372743 C21.1891336,17.8190667 20.5303751,17.740167 19.8604684,17.6440712 C19.1936021,17.5459524 18.5297762,17.4124298 17.8700042,17.2343997 C17.2112457,17.0533351 16.558568,16.8237167 15.9322407,16.4939565 C15.3109808,16.1682424 14.6927612,15.7403633 14.2397381,15.1041081 C14.0096793,14.7925554 13.8454965,14.4162646 13.7613781,14.0278353 C13.6853675,13.6262561 13.6336803,13.2772767 13.803944,12.7745441 C13.9681269,12.3345266 14.2964927,12.009824 14.623845,11.7933556 C14.9552512,11.5728411 15.300846,11.4332493 15.642387,11.320969 C17.0136181,10.9011822 18.3676202,10.8597092 19.7074337,10.8607032 C22.3880741,10.8809515 25.0190542,11.2592654 27.6287514,11.718502 C28.3746687,11.8631515 28.9553897,12.2819268 29.4418575,12.7775787 C29.9242714,13.2782883 30.2698663,13.8862205 30.5009385,14.5204526 C30.7441724,15.1556963 30.8252503,15.8263437 30.8850454,16.4868757 C30.899234,16.8186591 30.8870723,17.1514539 30.8850454,17.4812142 L30.7918057,18.4664488 L30.7948461,17.4802026 L30.7117412,16.5030603 C30.6083668,15.8607359 30.4847229,15.2184115 30.2141251,14.634756 C29.9546756,14.0511006 29.5959056,13.5149873 29.1327477,13.0952005 C28.6776976,12.6895752 28.1030575,12.3385727 27.542606,12.2637191 C24.9410167,11.9349704 22.3090231,11.7579519 19.7135145,11.7802057 C18.4264018,11.8196555 17.1078713,11.8934975 15.9525102,12.259673 C15.3890183,12.4427608 14.8680924,12.7522903 14.7505293,13.1235235 C14.6907343,13.2438961 14.6917478,13.5807371 14.7485023,13.8164246 C14.8022165,14.0693083 14.8995101,14.3130881 15.0606525,14.5325911 C15.3687488,14.9786778 15.8552166,15.3418187 16.3933717,15.6280829 C16.9305132,15.9194049 17.5284632,16.1318271 18.1335076,16.3219956 C19.3496772,16.6871596 20.6479381,16.8985703 21.9157949,17.0108506 L24.4018482,17.2313651 L21.9948459,17.8251359 C21.5428362,17.9364047 21.0492741,18.1164578 20.5962509,18.3238224 C20.1371469,18.5321985 19.6922316,18.7749668 19.2706261,19.0531388 C18.4274152,19.6084712 17.6804844,20.3104762 17.0896287,21.1328538 C16.4957326,21.9511852 16.0528442,22.8888777 15.8015025,23.8872622 C15.5572551,24.8876699 15.4690828,25.9285389 15.5025275,26.9775002 Z" fill="#C97F6B"></path>
                                </g>
                                <g transform="translate(56.251952, 52.495702)" fill="#6FA1DD" id="Path">
                                    <path d="M0.0479961564,13.407669 C0.0479961564,13.407669 -0.92392601,37.9808769 5.87952916,51.290648 L24.3450369,47.1949448 L44.7543889,0.0968863202 C44.7543889,0.0968863202 34.0642585,-0.926786607 19.9718938,3.6807531 C5.87952916,8.28930434 0.0479961564,13.407669 0.0479961564,13.407669 Z"></path>
                                    <path d="M0.0479961564,13.407669 C0.0479961564,13.407669 -0.92392601,37.9808769 5.87952916,51.290648 L24.3450369,47.1949448 L44.7543889,0.0968863202 C44.7543889,0.0968863202 34.0642585,-0.926786607 19.9718938,3.6807531 C5.87952916,8.28930434 0.0479961564,13.407669 0.0479961564,13.407669 Z" opacity="0.5"></path>
                                </g>
                            </g>
                            <path d="M240.972848,125.159188 C240.972848,125.159188 216.675808,199.36536 206.956586,253.686787 C206.956586,253.686787 243.402147,275.02713 303.658281,269.206761 C303.658281,269.206761 338.646466,147.469594 334.272309,137.768978 C329.898153,128.068362 305.115658,125.159188 305.115658,125.159188 C305.115658,125.159188 296.825435,140.602286 278.389318,135.344329 C261.381187,130.494021 263.811499,115.458572 263.811499,115.458572 C263.811499,115.458572 248.261758,110.609276 240.972848,125.159188 Z" id="Path" fill="#6FA1DD" fill-rule="nonzero"></path>
                            <path d="M242.096792,207.146084 C233.249158,209.902515 224.337676,212.485974 215.359304,214.787215 C212.112132,228.044387 209.15988,241.376412 206.9576,253.686787 C206.9576,253.686787 243.403161,275.02713 303.659295,269.206761 C303.659295,269.206761 324.086889,198.128254 331.773081,160.26854 C306.384528,182.603222 274.537101,197.039842 242.096792,207.146084 Z" id="Path" fill="#241E26" fill-rule="nonzero" opacity="0.11"></path>
                            <g id="Group" transform="translate(285.264271, 130.494021)" fill-rule="nonzero">
                                <g transform="translate(0.000000, 19.885757)" id="Path">
                                    <path d="M55.8114937,-2.874954e-14 C55.8114937,-2.874954e-14 91.2172298,47.5916873 90.730762,60.2014765 C90.2442942,72.8112658 36.5098695,114.318573 21.8144874,110.272435 C17.8122761,109.170874 20.3378549,96.5165771 20.3378549,96.5165771 C20.3378549,96.5165771 -17.5650827,110.096428 16.936634,93.1218673 C16.936634,93.1218673 -18.5370049,97.9721753 15.4792575,90.2116825 C15.4792575,90.2116825 -19.0224592,87.7870342 14.9927897,86.8169726 C14.9927897,86.8169726 -14.1638619,76.1462951 21.309777,83.9067878 C21.309777,83.9067878 29.0851544,88.2715593 29.0851544,92.6373422 L56.7803755,56.15635 L30.4300352,24.7987801 L55.8114937,-2.874954e-14 Z" fill="#F19C7C"></path>
                                    <path d="M74.5161814,26.8208376 C62.8612232,9.11898363 55.8125072,0 55.8125072,0 L32.9637218,27.3266049 L48.8732464,46.5184492 C59.7782334,43.3988767 70.0021655,39.2809197 74.5161814,26.8208376 Z" fill="#C97F6B"></path>
                                </g>
                                <path d="M39.7762982,-2.874954e-14 C39.7762982,-2.874954e-14 55.3260394,5.33483302 73.7925606,34.921206 C73.7925606,34.921206 64.4240011,57.6736518 42.5562591,63.4940214 L22.469192,42.3135002 L39.7762982,-2.874954e-14 Z" id="Path" fill="#6FA1DD"></path>
                            </g>
                            <g id="Group" transform="translate(151.757691, 110.366508)" stroke="#286DD1">
                                <g transform="translate(35.469585, 0.000000)" id="Path">
                                    <path d="M28.2242549,13.4594782 C23.1913399,15.3530708 18.1584249,17.2456519 13.1265234,19.1392445"></path>
                                    <path d="M14.2433724,6.916873 C12.4677649,9.66217767 10.6921573,12.4074823 8.91654976,15.1517755"></path>
                                    <path d="M0.395255104,0 C0.470252227,5.36720213 0.544235874,10.7354158 0.618219522,16.1026179"></path>
                                </g>
                                <g transform="translate(-0.000000, 70.390664)" id="Path">
                                    <path d="M-2.88046814e-14,6.17440667 C4.96703914,4.11593393 9.93509176,2.05847273 14.9021309,2.874954e-14"></path>
                                    <path d="M14.1906717,12.2527176 C15.8740531,9.45076695 17.5584479,6.64881635 19.2418293,3.84585422"></path>
                                    <path d="M28.2597265,18.7093424 C28.0073713,13.3471979 27.7560296,7.98505345 27.5036744,2.62290899"></path>
                                </g>
                                <g transform="translate(38.583993, 66.396114)" id="Path">
                                    <path d="M6.34232421,15.6838426 C4.22821614,13.1893985 2.11410807,10.6939429 5.76093627e-14,8.19949876"></path>
                                    <path d="M17.0050908,4.47604022 C11.8383971,2.98402681 6.67271694,1.49201341 1.5060233,-2.874954e-14"></path>
                                </g>
                            </g>
                        </g>
                    </g>
                </g>
            </g>
        </g>
    </g>
</svg>