<?xml version="1.0" encoding="UTF-8"?>
<svg width="100px" height="100px" viewBox="0 0 100 100" version="1.1" xmlns="http://www.w3.org/2000/svg" xmlns:xlink="http://www.w3.org/1999/xlink">
    <title>elige plan salud@2x</title>
    <defs>
        <rect id="path-1" x="0" y="0" width="100" height="100" rx="21"></rect>
    </defs>
    <g id="WEB-RED-SALUD-GLOBAL" stroke="none" stroke-width="1" fill="none" fill-rule="evenodd">
        <g id="inicio-2-propuesta" transform="translate(-269.000000, -1019.000000)">
            <g id="elige-plan-salud" transform="translate(269.000000, 1019.000000)">
                <mask id="mask-2" fill="white">
                    <use xlink:href="#path-1"></use>
                </mask>
                <use id="Mask" fill="#D5EDFF" xlink:href="#path-1"></use>
                <g id="Group" mask="url(#mask-2)">
                    <g transform="translate(7.000000, 12.000000)">
                        <g>
                            <path d="M54.8874126,5.73356643 L51.0797203,10.7181818 C50.0979021,11.9769231 45.4846154,14.1482517 47.4671329,16.0426573 C49.8776224,18.3398601 52.8230769,18.4405594 53.7545455,17.4335664 L60.4195804,10.051049 C61.4202797,8.83636364 62.8300699,6.52657343 60.7405594,4.53146853 C58.3363636,2.22797203 55.8188811,4.72027972 54.8874126,5.73356643 Z" id="Path" fill="#F2BA8B" fill-rule="nonzero"></path>
                            <path d="M17.9622378,22.8335664 C17.8174825,30.8328671 17.1629371,48.4867133 17.1629371,48.4867133 C17.1629371,48.4867133 16.8734266,52.1181818 18.3146853,53.7545455 C19.7559441,55.3909091 21.9083916,56.1083916 21.9083916,56.1083916 L18.3083916,63.5916084 L40.0342657,68.186014 L50.8216783,52.7979021 L22.7076923,26.5216783 C22.7076923,26.5216783 23.4818182,22.4181818 17.9622378,22.8335664 Z" id="Path" fill="#F2BA8B" fill-rule="nonzero"></path>
                            <g transform="translate(22.027972, 0.000000)" fill-rule="nonzero">
                                <g>
                                    <path d="M28.8,0.358741259 L3.69440559,0.358741259 C1.98881119,0.358741259 0.61048951,1.73706294 0.61048951,3.44265734 L0.61048951,51.451049 C0.61048951,53.1503497 1.98881119,54.534965 3.69440559,54.534965 L28.8,54.534965 C30.4993007,54.534965 31.8776438,53.1566434 31.8776438,51.451049 L31.8776438,3.44265734 C31.8839161,1.73706294 30.5055944,0.358741259 28.8,0.358741259 Z" id="Path" fill="#221F1F"></path>
                                    <rect id="Rectangle" fill="#E20707" x="2.54265734" y="7.16853147" width="27.4153846" height="39.7636364"></rect>
                                    <path d="M16.2503497,2.97062937 C15.6146853,2.97062937 15.0986014,3.48671329 15.0986014,4.12237762 C15.0986014,4.75804196 15.6146853,5.27412587 16.2503497,5.27412587 C16.886014,5.27412587 17.4020979,4.75804196 17.4020979,4.12237762 C17.4020979,3.48671329 16.886014,2.97062937 16.2503497,2.97062937 Z" id="Path" fill="#403F41"></path>
                                    <path d="M18.2391608,49.5 L14.2552448,49.5 C13.5566434,49.5 12.9902098,50.0664336 12.9902098,50.765035 C12.9902098,51.4636364 13.5566434,52.0300699 14.2552448,52.0300699 L18.2391608,52.0300699 C18.9377622,52.0300699 19.5104895,51.4636364 19.5104895,50.765035 C19.5104895,50.0664336 18.9440559,49.5 18.2391608,49.5 Z" id="Path" fill="#403F41"></path>
                                    <g transform="translate(6.923077, 16.993007)">
                                        <path d="M9.32727273,0.597902098 C4.34895105,0.597902098 0.308391608,4.63846154 0.308391608,9.61678322 C0.308391608,14.5951049 4.34265734,18.6356643 9.32727273,18.6356643 C14.3055944,18.6356643 18.3461538,14.6013986 18.3461538,9.61678322 C18.3398601,4.63216783 14.3055944,0.597902098 9.32727273,0.597902098 Z" id="Path" fill="#FFFFFF"></path>
                                        <g transform="translate(3.776224, 3.776224)" fill="#2DA08F" id="Rectangle">
                                            <rect x="3.68811189" y="0.566433566" width="3.72587413" height="10.5482517"></rect>
                                            <rect x="0.276923077" y="3.97762238" width="10.5482517" height="3.71958042"></rect>
                                        </g>
                                    </g>
                                </g>
                                <path d="M28.9132867,0.358741259 L3.80769231,0.358741259 C2.10839161,0.358741259 0.723776224,1.73706294 0.723776224,3.44265734 L0.723776224,51.451049 C0.723776224,51.9608392 0.84965035,52.4391608 1.06993007,52.8608392 L31.6951049,2.12727273 C31.1979021,1.08251748 30.1405594,0.358741259 28.9132867,0.358741259 Z" id="Path" fill="#FFFFFF" opacity="0.1"></path>
                            </g>
                            <polygon id="Rectangle" fill="#D0D2D3" fill-rule="nonzero" transform="translate(29.310246, 65.486176) rotate(-61.971665) translate(-29.310246, -65.486176) " points="26.0061074 52.4143752 32.6143844 52.4143752 32.6143844 78.5579775 26.0061074 78.5579775"></polygon>
                            <polygon id="Rectangle" fill="#F0F1F1" fill-rule="nonzero" transform="translate(23.559846, 62.371051) rotate(-61.979415) translate(-23.559846, -62.371051) " points="20.2555714 55.8694968 26.8641212 55.8694968 26.8641212 68.8726053 20.2555714 68.8726053"></polygon>
                            <polygon id="Path" fill="#221F1F" fill-rule="nonzero" points="15.6839161 60.5202797 0.61048951 89.4965035 32.7776224 89.4965035 40.8713287 73.9384615"></polygon>
                            <path d="M35.6601399,75.5622378 C35.0055944,75.3923077 34.3321678,75.7825175 34.1622378,76.4370629 C33.9923077,77.0916084 34.3825175,77.765035 35.0370629,77.934965 C35.6916084,78.1048951 36.365035,77.7146853 36.534965,77.0601399 C36.7048951,76.4055944 36.3146853,75.7321678 35.6601399,75.5622378 Z" id="Path" fill="#F0F1F1" fill-rule="nonzero"></path>
                            <path d="M33.6839161,79.2692308 C33.0293706,79.0993007 32.3559441,79.4895105 32.186014,80.1440559 C32.0097902,80.7986014 32.4062937,81.472028 33.0608392,81.641958 C33.7153846,81.8118881 34.3888112,81.4216783 34.5587413,80.7671329 C34.734965,80.1125874 34.3384615,79.4391608 33.6839161,79.2692308 Z" id="Path" fill="#F0F1F1" fill-rule="nonzero"></path>
                            <path d="M31.713986,82.9762238 C31.0594406,82.8062937 30.386014,83.1965035 30.2160839,83.851049 C30.0461538,84.5055944 30.4300699,85.179021 31.0909091,85.348951 C31.7454545,85.5188811 32.4188811,85.1286713 32.5888112,84.4741259 C32.7587413,83.8195804 32.3685315,83.1461538 31.713986,82.9762238 Z" id="Path" fill="#F0F1F1" fill-rule="nonzero"></path>
                            <polygon id="Path" fill="#403F41" fill-rule="nonzero" points="15.6839161 60.5202797 0.61048951 89.4965035 16.6972028 89.4965035 28.2776224 67.2293706"></polygon>
                            <path d="M52.3006993,39.3104895 L51.086014,40.8461538 C50.1041958,42.1048951 48.9398601,44.2762238 50.9286713,46.1706294 C53.3391608,48.4678322 55.8566434,45.9818182 56.7818182,44.9685315 L57.8391608,43.627972 C58.8398601,42.4132867 60.2496503,40.1034965 58.1601399,38.1083916 C55.7433566,35.8111888 53.2258741,38.3034965 52.3006993,39.3104895 Z" id="Path" fill="#F2BA8B" fill-rule="nonzero"></path>
                            <path d="M52.3006993,29.441958 L51.086014,30.9776224 C50.1041958,32.2300699 48.9398601,34.4076923 50.9223776,36.3020979 C53.3328671,38.5993007 55.8503497,36.1132867 56.7818182,35.1 L57.8391608,33.7594406 C58.8398601,32.5447552 60.2496503,30.234965 58.1601399,28.2398601 C55.7433566,25.9363636 53.2258741,28.4286713 52.3006993,29.441958 Z" id="Path" fill="#F2BA8B" fill-rule="nonzero"></path>
                            <path d="M52.3006993,19.4916084 L51.086014,21.0272727 C50.1041958,22.286014 48.9398601,24.4573427 50.9223776,26.3517483 C53.3328671,28.648951 55.8503497,26.1629371 56.7755245,25.1496503 L57.8328671,23.8090909 C58.8335664,22.5944056 60.2433566,20.2846154 58.1538462,18.2895105 C55.7433566,15.986014 53.2258741,18.4783217 52.3006993,19.4916084 Z" id="Path" fill="#F2BA8B" fill-rule="nonzero"></path>
                        </g>
                        <g transform="translate(37.132867, 41.538462)">
                            <path d="M11.0328671,3.97132867 C10.5041958,2.2972028 9.14475524,-0.604195804 6.07342657,0.333566434 C3.63146853,1.08251748 4.33636364,4.72027972 4.72027972,6.1993007 L16.1244755,42.2937063 C16.7034965,43.9678322 16.9678322,46.6993007 19.9321678,45.9881119 C23.5384615,45.1321678 22.7328671,41.2741259 22.348951,39.7951049 L11.0328671,3.97132867 Z" id="Path" fill="#FBC69A" fill-rule="nonzero"></path>
                            <path d="M24.3629371,21.0776224 C23.8342657,19.4034965 22.5251748,16.6972028 19.3972028,17.4398601 C15.7909091,18.3020979 16.5965035,22.1601399 16.9804196,23.6391608 L23.1104895,42.7027972 C23.6895105,44.3769231 25.0174825,46.7748252 27.9818182,46.0699301 C31.5881119,45.2076923 30.7825175,41.3559441 30.4048951,39.8769231 L24.3629371,21.0776224 Z" id="Path" fill="#FBC69A" fill-rule="nonzero"></path>
                            <path d="M31.4622378,20.6559441 C30.9335664,18.9818182 29.6307692,16.2755245 26.5027972,17.0244755 C22.8965035,17.8867133 23.7020979,21.7447552 24.086014,23.2237762 L30.2160839,42.2874126 C30.7951049,43.9615385 32.1230769,46.3594406 35.0874126,45.6545455 C38.6937063,44.7986014 37.8881119,40.9405594 37.5104895,39.4615385 L31.4622378,20.6559441 Z" id="Path" fill="#FBC69A" fill-rule="nonzero"></path>
                            <path d="M38.272028,21.2286713 C37.7433566,19.5608392 36.4342657,16.8482517 33.3062937,17.5972028 C29.7,18.4594406 30.5055944,22.3111888 30.8895105,23.7965035 L35.5090909,37.9762238 C36.0881119,39.6503497 37.4160839,42.0545455 40.3804196,41.3433566 C43.9867133,40.4811189 43.1811189,36.6293706 42.7972028,35.1503497 L38.272028,21.2286713 Z" id="Path" fill="#FBC69A" fill-rule="nonzero"></path>
                            <path d="M44.5468531,40.7769231 C43.6846154,37.9888112 41.8216783,32.2174825 41.8216783,32.2174825 L18.258042,39.4237762 C18.258042,39.4237762 10.0384615,32.4881119 6.65244755,32.3118881 C3.26643357,32.141958 -0.453146853,33.5769231 0.0881118881,34.3825175 C0.635664336,35.1881119 14.6391608,46.0321678 14.6391608,46.0321678 C14.6391608,46.0321678 15.2874126,46.8566434 16.3258741,47.958042 L44.6979021,47.958042 L44.527972,47.4167832 C44.527972,47.4104895 45.4090909,43.565035 44.5468531,40.7769231 Z" id="Path" fill="#FBC69A" fill-rule="nonzero"></path>
                        </g>
                    </g>
                </g>
            </g>
        </g>
    </g>
</svg>