<?xml version="1.0" encoding="UTF-8"?>
<svg width="940px" height="291px" viewBox="0 0 940 291" version="1.1" xmlns="http://www.w3.org/2000/svg" xmlns:xlink="http://www.w3.org/1999/xlink">
    <title>fondo asi de facil@2x</title>
    <defs>
        <path d="M82.0040983,39.9090013 L850.004098,4.18608824 C897.449289,1.97921269 937.700242,38.652113 939.907117,86.0973037 C939.969031,87.4283715 940,88.7606984 940,90.0932053 L940,204.451684 C940,251.948173 901.496488,290.451684 854,290.451684 L86,290.451684 C38.5035115,290.451684 -5.10267766e-14,251.948173 0,204.451684 L0,125.816118 C8.58447977e-15,79.8732804 36.1108802,42.043688 82.0040983,39.9090013 Z" id="path-1"></path>
    </defs>
    <g id="WEB-RED-SALUD-GLOBAL" stroke="none" stroke-width="1" fill="none" fill-rule="evenodd">
        <g id="inicio-2-propuesta" transform="translate(-250.000000, -677.000000)">
            <g id="fondo-asi-de-facil" transform="translate(250.000000, 677.000000)">
                <mask id="mask-2" fill="white">
                    <use xlink:href="#path-1"></use>
                </mask>
                <use id="Mask" fill="#F1F8FF" xlink:href="#path-1"></use>
                <g id="version-en-blanco" mask="url(#mask-2)" fill="#B2E1FF" fill-rule="nonzero" opacity="0.443777902">
                    <g transform="translate(654.000000, 7.451684)" id="Path">
                        <path d="M52.3478261,172 C23.4187643,172 0,195.451396 0,224.420768 L0,320 C0,320 88.7551487,320.197058 172,270.535278 L172,172 L52.3478261,172 Z"></path>
                        <path d="M234.824911,152.734411 C285.845441,125.921478 313.227116,66.7344111 313.227116,66.7344111 C321.303725,27.0115473 318.545859,0 318.545859,0 L220.641597,0 C193.259923,0 171,22.443418 171,50.0508083 L171,172 C171,171.602771 196.41177,172.993072 234.824911,152.734411 Z"></path>
                        <path d="M242.004161,211.062257 C286.431345,159.268482 305.669903,106.284047 314,66 C314,66 286.23301,125.136187 235.062413,151.92607 C196.386963,172.167315 171,170.77821 171,170.77821 L171,270 C195.990291,255.513619 220.385576,236.066148 242.004161,211.062257 Z"></path>
                        <path d="M248.995839,279.937743 C204.568655,331.731518 185.330097,384.715953 177,425 C177,425 204.76699,365.863813 255.937587,339.07393 C294.613037,318.832685 320,320.22179 320,320.22179 L320,221 C295.009709,235.486381 270.614424,254.735409 248.995839,279.937743 Z"></path>
                    </g>
                </g>
            </g>
        </g>
    </g>
</svg>