<?xml version="1.0" encoding="UTF-8"?>
<!DOCTYPE svg PUBLIC "-//W3C//DTD SVG 1.1//EN" "http://www.w3.org/Graphics/SVG/1.1/DTD/svg11.dtd">
<!-- Creator: CorelDRAW 2018 -->
<svg xmlns="http://www.w3.org/2000/svg" xml:space="preserve"  version="1.1" style="shape-rendering:geometricPrecision; text-rendering:geometricPrecision; image-rendering:optimizeQuality; fill-rule:evenodd; clip-rule:evenodd"
viewBox="0 0 522.51 171.73"
 xmlns:xlink="http://www.w3.org/1999/xlink">
 <defs>
  <style type="text/css">
   <![CDATA[
    .str0 {stroke:#286DD1;stroke-width:0.53;stroke-miterlimit:22.9256}
    .fil2 {fill:none}
    .fil17 {fill:#1AA484}
    .fil4 {fill:#2271BF}
    .fil9 {fill:#352C38}
    .fil22 {fill:#472A12}
    .fil21 {fill:#51434C}
    .fil6 {fill:#5B4A54}
    .fil24 {fill:#6FA1DD}
    .fil5 {fill:#765E69}
    .fil10 {fill:#BF7E79}
    .fil20 {fill:#C97F6B}
    .fil8 {fill:#D89087}
    .fil19 {fill:#F19C7C}
    .fil0 {fill:#F1F8FF}
    .fil7 {fill:#FFAC9D}
    .fil11 {fill:white}
    .fil12 {fill:#01387B;fill-rule:nonzero}
    .fil15 {fill:#1AA484;fill-rule:nonzero}
    .fil3 {fill:#2271BF;fill-rule:nonzero}
    .fil26 {fill:#6FA1DD;fill-rule:nonzero}
    .fil27 {fill:#241E26;fill-rule:nonzero;fill-opacity:0.109804}
    .fil18 {fill:#241E26;fill-opacity:0.200000}
    .fil16 {fill:#241E26;fill-rule:nonzero;fill-opacity:0.200000}
    .fil1 {fill:#B2E1FF;fill-opacity:0.443137}
    .fil14 {fill:#241E26;fill-opacity:0.501961}
    .fil25 {fill:#6FA1DD;fill-opacity:0.501961}
    .fil13 {fill:#241E26;fill-rule:nonzero;fill-opacity:0.501961}
    .fil23 {fill:#C97F6B;fill-opacity:0.600000}
   ]]>
  </style>
    <clipPath id="id0">
     <path d="M60.07 39.45l405.47 -18.86c25.05,-1.17 46.3,18.19 47.46,43.24 0.04,0.7 0.05,1.41 0.05,2.11l0 60.38c0,25.07 -20.33,45.4 -45.4,45.4l-405.47 0c-25.07,0 -45.4,-20.33 -45.4,-45.4l0 -41.52c0,-24.26 19.06,-44.23 43.29,-45.35z"/>
    </clipPath>
 </defs>
 <g id="Layer_x0020_1">
  <metadata id="CorelCorpID_0Corel-Layer"/>
  <g id="_935430984">
   <path class="fil0" d="M60.07 39.45l405.47 -18.86c25.05,-1.17 46.3,18.19 47.46,43.24 0.04,0.7 0.05,1.41 0.05,2.11l0 60.38c0,25.07 -20.33,45.4 -45.4,45.4l-405.47 0c-25.07,0 -45.4,-20.33 -45.4,-45.4l0 -41.52c0,-24.26 19.06,-44.23 43.29,-45.35z"/>
   <g style="clip-path:url(#id0)">
    <g>
     <path id="1" class="fil1" d="M489.83 133.74c23.45,-27.34 33.61,-55.32 38.01,-76.59 0,0 -3.74,7.96 -10.92,17.66 6.92,-9.52 10.51,-17.27 10.51,-17.27 4.26,-20.97 2.81,-35.23 2.81,-35.23l-51.69 0c-14.46,0 -26.21,11.85 -26.21,26.42l0 63.89c-20.42,2.57 -41.67,0.5 -62.64,0.5 -15.28,0 -27.64,12.38 -27.64,27.67l0 50.46c0,0 46.86,0.11 90.81,-26.11l0 -0.59c13.01,-7.62 25.69,-17.79 36.96,-30.81zm-24.7 -23.42c-1.25,0.3 -2.52,0.58 -3.78,0.84 1.16,-0.24 2.43,-0.52 3.78,-0.84zm-12.78 2.3l-0.01 0c0,0 0,0 0.01,0z"/>
    </g>
   </g>
   <path class="fil2" d="M60.07 39.45l405.47 -18.86c25.05,-1.17 46.3,18.19 47.46,43.24 0.04,0.7 0.05,1.41 0.05,2.11l0 60.38c0,25.07 -20.33,45.4 -45.4,45.4l-405.47 0c-25.07,0 -45.4,-20.33 -45.4,-45.4l0 -41.52c0,-24.26 19.06,-44.23 43.29,-45.35z"/>
   <g>
    <g id="WEB-RED-SALUD-GLOBAL">
     <g id="inicio-2-propuesta">
      <g id="circulos">
       <path id="Oval" class="fil3" d="M19.27 71.44c10.64,0 19.27,8.63 19.27,19.27 0,10.64 -8.63,19.27 -19.27,19.27 -10.64,0 -19.27,-8.63 -19.27,-19.27 0,-10.64 8.63,-19.27 19.27,-19.27zm0 10.03c-5.1,0 -9.24,4.14 -9.24,9.24 0,5.1 4.14,9.24 9.24,9.24 5.1,0 9.24,-4.14 9.24,-9.24 0,-5.1 -4.14,-9.24 -9.24,-9.24z"/>
       <circle id="Oval-Copy" class="fil4" cx="27.19" cy="55.87" r="8.18"/>
      </g>
     </g>
    </g>
   </g>
   <g>
    <g id="WEB-RED-SALUD-GLOBAL_0">
     <g id="inicio-2-propuesta_1">
      <path id="ovalo" class="fil4" d="M507.46 138.16c8.31,0 15.05,6.74 15.05,15.05 0,8.31 -6.74,15.05 -15.05,15.05 -8.31,0 -15.04,-6.74 -15.04,-15.05 0,-8.31 6.73,-15.05 15.04,-15.05zm0 10.04c-2.77,0 -5.01,2.24 -5.01,5.01 0,2.77 2.24,5.02 5.01,5.02 2.77,0 5.02,-2.25 5.02,-5.02 0,-2.77 -2.25,-5.01 -5.02,-5.01z"/>
     </g>
    </g>
   </g>
   <g id="Group">
    <g id="Path">
     <g>
      <path class="fil5" d="M307.48 30.12l-8.98 -1.84 -5.29 0.86c0,0 0.62,6.75 -7.38,11.29 -8,4.55 -1.72,15.47 -1.72,15.47 0,0 1.8,-1.92 5.04,-2.01 0.01,-1.08 0.3,-2.46 1.18,-4.13 0,0 -0.61,1.79 -0.38,4.14 1.05,0.07 2.22,0.34 3.51,0.9 1,0.44 1.86,0.94 2.67,1.45l0.72 -1.26 -0.33 1.52c3.76,2.45 6.5,4.93 16.37,1.48 12.31,-4.3 -5.41,-27.87 -5.41,-27.87z"/>
      <g>
       <path class="fil6" d="M313.08 12.61c0,0 0.17,-0.21 0.56,-0.57 0.38,-0.35 0.95,-0.86 1.77,-1.39 0.81,-0.55 1.86,-1.1 3.14,-1.58 1.28,-0.5 2.82,-0.79 4.5,-0.85 1.7,-0.1 3.54,0.24 5.39,0.79 0.45,0.17 0.92,0.33 1.38,0.5 0.24,0.08 0.47,0.18 0.69,0.3 0.23,0.11 0.46,0.22 0.68,0.33 0.46,0.23 0.93,0.42 1.38,0.71 0.44,0.26 0.88,0.52 1.32,0.85 0.89,0.61 1.7,1.33 2.44,2.14 0.76,0.81 1.41,1.72 1.96,2.7 1.13,1.94 1.82,4.13 2.28,6.32 0.46,2.19 0.69,4.41 1.04,6.52 0.19,1.06 0.41,2.09 0.77,3.03 0.36,0.95 0.91,1.73 1.72,2.22 0.44,0.29 0.87,0.55 1.3,0.84 0.42,0.3 0.85,0.59 1.25,0.9 0.8,0.62 1.56,1.27 2.24,1.97 1.37,1.37 2.42,2.93 3.04,4.51 0.64,1.58 0.85,3.14 0.86,4.5 -0.03,1.37 -0.21,2.54 -0.43,3.49 -0.12,0.47 -0.22,0.89 -0.32,1.25 -0.12,0.36 -0.23,0.66 -0.31,0.91 -0.17,0.49 -0.26,0.75 -0.26,0.75 0,0 0.07,-0.27 0.2,-0.77 0.07,-0.25 0.15,-0.56 0.25,-0.92 0.07,-0.36 0.15,-0.79 0.25,-1.26 0.17,-0.94 0.27,-2.11 0.23,-3.44 -0.07,-1.32 -0.36,-2.8 -1.01,-4.28 -0.65,-1.48 -1.7,-2.92 -3.04,-4.2 -0.66,-0.65 -1.41,-1.25 -2.2,-1.83 -0.4,-0.3 -0.81,-0.56 -1.22,-0.84 -0.42,-0.28 -0.87,-0.54 -1.31,-0.82 -0.98,-0.56 -1.73,-1.59 -2.12,-2.62 -0.43,-1.05 -0.67,-2.14 -0.86,-3.22 -0.38,-2.17 -0.61,-4.35 -1.07,-6.48 -0.43,-2.13 -1.09,-4.22 -2.13,-6.05 -0.52,-0.92 -1.12,-1.78 -1.81,-2.54 -0.68,-0.77 -1.45,-1.47 -2.26,-2.05 -0.38,-0.3 -0.82,-0.57 -1.26,-0.84 -0.4,-0.26 -0.87,-0.47 -1.29,-0.7 -0.22,-0.12 -0.43,-0.23 -0.65,-0.34 -0.21,-0.12 -0.43,-0.22 -0.65,-0.3 -0.45,-0.18 -0.89,-0.35 -1.32,-0.52 -1.77,-0.57 -3.51,-0.96 -5.14,-0.93 -1.62,0.01 -3.12,0.21 -4.39,0.63 -1.27,0.4 -2.33,0.89 -3.15,1.39 -0.83,0.49 -1.45,0.94 -1.85,1.27 -0.4,0.32 -0.59,0.52 -0.59,0.52z"/>
       <path class="fil6" d="M343.28 35.29c-5.08,-3.3 0.49,-17.31 -10.83,-24.31 -11.31,-7 -19.06,0.86 -19.06,0.86 0,0 -2.1,41.87 8.48,46.29 8.51,3.55 12.07,2.12 15.63,-0.87 -0.52,-0.53 -1.02,-1.29 -1.36,-2.39 -0.04,-0.09 -0.06,-0.15 -0.06,-0.15 0.02,0.05 0.04,0.1 0.06,0.15 0.14,0.4 0.67,1.46 2.07,1.77 0.64,-0.56 1.28,-1.17 1.96,-1.8 0.45,-0.4 0.89,-0.74 1.34,-1.02 -0.88,-1.51 -2.15,-3.85 -2.23,-4.84 0,0 1.17,2.53 2.55,4.66 1.84,-1.02 3.65,-1.04 5.12,-0.72 0.32,-1.86 0.27,-4.26 -0.39,-6.75 0,0 1.3,3.29 0.81,6.85 1.73,0.45 2.9,1.31 2.9,1.31 3.57,-9.2 -0.25,-14.67 -6.99,-19.04z"/>
      </g>
     </g>
     <g>
      <g>
       <path class="fil7" d="M306.56 41.73c0,0 2.77,17.56 -0.12,16.03 -1.82,-0.96 2.72,13.43 16.01,10.2 13.29,-3.23 6.48,-10.54 6.48,-10.54 0,0 -6.48,1.36 -7.33,-2.9 -0.85,-4.25 0,-8.33 0,-8.33l-15.04 -4.46z"/>
       <path class="fil8" d="M310.27 53.2c3.7,1.83 7.74,2.88 11.84,3.37 0.28,0.03 0.56,0.06 0.83,0.08 -0.64,-0.46 -1.14,-1.14 -1.34,-2.13 -0.85,-4.25 0,-8.33 0,-8.33l-15.04 -4.97c0,0 1.12,7.04 1.31,10.58 0.77,0.51 1.57,0.99 2.4,1.4z"/>
      </g>
      <g>
       <path class="fil7" d="M306.25 41.25c0,0 3.73,12.35 16.85,12.69 9.6,0.25 13.41,-11.17 13.29,-20.63 -0.16,-11.95 -7.67,-19.15 -18.99,-17.19 -11.31,1.97 -15.82,12.65 -11.15,25.13z"/>
       <path class="fil7" d="M301.21 36.14c0,0 0.24,6.87 3.81,7.36 3.57,0.5 3.81,-3.8 3.81,-3.8l-2.82 -5.04 -4.8 1.48z"/>
      </g>
     </g>
     <g>
      <path class="fil5" d="M323.08 15.26c0,0 0.02,7.86 -5.63,13.27 -5.66,5.4 -13.9,4.78 -15.38,9.94 -1.48,5.16 0.79,11.55 0.79,11.55 0,0 -10.39,-2.71 -9.89,-14.86 0.49,-12.16 -1.23,-22.96 9.59,-26.03 10.83,-3.07 19.41,1.1 20.52,6.13z"/>
      <path class="fil5" d="M320.26 16.42c-0.2,-0.96 -0.56,-1.88 -1.04,-2.72 -0.12,-0.21 -0.27,-0.41 -0.4,-0.61l-0.2 -0.3 -0.24 -0.28c-0.16,-0.18 -0.31,-0.37 -0.47,-0.55l-0.53 -0.5c-0.09,-0.08 -0.17,-0.16 -0.26,-0.24l-0.29 -0.22 -0.58 -0.44c-0.42,-0.24 -0.82,-0.51 -1.25,-0.71 -0.45,-0.19 -0.87,-0.42 -1.34,-0.56 -0.45,-0.15 -0.9,-0.32 -1.38,-0.4l-0.7 -0.16c-0.24,-0.05 -0.48,-0.07 -0.72,-0.1l-0.71 -0.09c-0.24,-0.03 -0.48,-0.02 -0.73,-0.04 -0.96,-0.06 -1.92,0.01 -2.88,0.09l-1.44 0.2c-0.47,0.09 -0.95,0.2 -1.42,0.29 -0.22,0.06 -0.5,0.1 -0.68,0.16l-0.71 0.22 -0.7 0.22c-0.23,0.08 -0.43,0.19 -0.64,0.28 -0.43,0.2 -0.86,0.36 -1.25,0.64 -0.39,0.26 -0.81,0.48 -1.15,0.81 -0.35,0.3 -0.73,0.59 -1.02,0.96l-0.46 0.52c-0.16,0.18 -0.27,0.39 -0.41,0.58l-0.39 0.58c-0.12,0.2 -0.22,0.42 -0.33,0.63l-0.33 0.62 -0.26 0.67 -0.26 0.66 -0.2 0.69 -0.21 0.69c-0.06,0.23 -0.11,0.46 -0.16,0.7 -0.23,0.93 -0.38,1.89 -0.51,2.85l-0.19 1.44 -0.15 1.45c-0.17,1.95 -0.29,3.9 -0.42,5.86l-0.01 0.05 0 0.02 -0.26 0.92c-0.1,0.3 -0.22,0.6 -0.33,0.9 -0.1,0.3 -0.26,0.57 -0.39,0.86 -0.15,0.28 -0.27,0.58 -0.45,0.84l-0.51 0.8c-0.17,0.27 -0.39,0.49 -0.58,0.75 -0.21,0.24 -0.39,0.49 -0.61,0.72l-0.68 0.66c-0.23,0.21 -0.43,0.46 -0.69,0.64l-0.75 0.56c-0.26,0.18 -0.5,0.39 -0.76,0.55l-0.81 0.47 -1.6 0.92c-0.48,0.31 -0.95,0.65 -1.36,1.07 -0.43,0.4 -0.77,0.89 -1.08,1.38 -0.29,0.51 -0.53,1.04 -0.71,1.61 -0.17,0.57 -0.3,1.15 -0.36,1.74 -0.07,0.6 -0.1,1.2 -0.07,1.8 0.03,1.21 0.22,2.41 0.5,3.59 0.3,1.18 0.66,2.35 1.14,3.47 -0.55,-1.09 -1,-2.24 -1.34,-3.41 -0.35,-1.18 -0.6,-2.39 -0.69,-3.63 -0.05,-0.62 -0.06,-1.24 -0.01,-1.86 0.03,-0.62 0.15,-1.24 0.31,-1.85 0.16,-0.61 0.4,-1.2 0.7,-1.76 0.32,-0.55 0.68,-1.09 1.13,-1.54 0.43,-0.47 0.94,-0.87 1.48,-1.23l0.8 -0.48 0.76 -0.47 0.77 -0.47c0.25,-0.16 0.47,-0.37 0.71,-0.54l0.7 -0.56c0.24,-0.17 0.43,-0.41 0.64,-0.61l0.63 -0.63c0.2,-0.22 0.37,-0.46 0.56,-0.69 0.17,-0.24 0.38,-0.45 0.53,-0.71l0.46 -0.75c0.17,-0.24 0.28,-0.52 0.41,-0.78 0.12,-0.27 0.27,-0.53 0.35,-0.81 0.1,-0.28 0.21,-0.55 0.3,-0.83l0.22 -0.85 -0.01 0.08c0.12,-1.96 0.23,-3.92 0.4,-5.88l0.14 -1.48 0.18 -1.47c0.15,-0.98 0.3,-1.97 0.54,-2.94 0.06,-0.24 0.11,-0.49 0.18,-0.73l0.22 -0.72 0.21 -0.72 0.29 -0.7 0.28 -0.71 0.35 -0.67c0.12,-0.23 0.23,-0.46 0.36,-0.68l0.43 -0.63c0.16,-0.21 0.28,-0.43 0.46,-0.62l0.51 -0.57c0.33,-0.4 0.74,-0.71 1.14,-1.04 0.38,-0.35 0.83,-0.59 1.27,-0.86 0.42,-0.29 0.91,-0.47 1.38,-0.68 0.24,-0.1 0.47,-0.22 0.71,-0.29l0.71 -0.21 0.7 -0.21c0.29,-0.08 0.51,-0.1 0.76,-0.15 0.49,-0.09 0.98,-0.2 1.47,-0.28l1.49 -0.16c0.99,-0.06 2,-0.11 3,-0.01 0.25,0.02 0.5,0.02 0.74,0.06l0.75 0.12c0.24,0.04 0.49,0.07 0.74,0.12l0.72 0.2c0.49,0.1 0.96,0.29 1.43,0.47 0.48,0.15 0.91,0.42 1.36,0.63 0.44,0.24 0.84,0.54 1.26,0.81l0.58 0.48 0.29 0.23c0.09,0.09 0.17,0.18 0.26,0.27l0.52 0.54c0.16,0.19 0.31,0.39 0.46,0.59l0.23 0.29 0.19 0.32c0.12,0.22 0.26,0.42 0.38,0.64 0.44,0.89 0.74,1.84 0.88,2.81z"/>
      <path class="fil5" d="M305.79 32.08c0,0 -0.98,3.44 1.11,7.61 0,0 0.98,-5.64 2.21,-9.45 1.23,-3.81 -3.32,1.84 -3.32,1.84z"/>
      <path class="fil5" d="M322.53 14.72c0,0 0.14,0.44 0.24,1.25 0.04,0.4 0.09,0.89 0.09,1.45 0.02,0.57 -0.01,1.21 -0.07,1.9 -0.06,0.7 -0.18,1.45 -0.34,2.23 -0.16,0.79 -0.39,1.61 -0.67,2.43 -0.13,0.42 -0.27,0.84 -0.45,1.25 -0.09,0.22 -0.18,0.43 -0.27,0.65 -0.09,0.2 -0.19,0.41 -0.29,0.61 -0.47,0.87 -1.05,1.63 -1.74,2.31 -1.36,1.36 -3.01,2.3 -4.52,3.12 -1.53,0.81 -2.96,1.51 -4.05,2.29 -0.55,0.39 -1.02,0.79 -1.37,1.2 -0.36,0.4 -0.61,0.81 -0.76,1.17 -0.09,0.18 -0.15,0.34 -0.19,0.49 -0.05,0.15 -0.09,0.27 -0.1,0.38 -0.05,0.21 -0.07,0.32 -0.07,0.32 0,0 0,-0.11 0.01,-0.33 0,-0.11 0.02,-0.24 0.05,-0.39 0.02,-0.16 0.05,-0.34 0.12,-0.54 0.11,-0.39 0.31,-0.86 0.65,-1.33 0.33,-0.47 0.77,-0.96 1.31,-1.41 1.08,-0.92 2.5,-1.73 3.96,-2.61 1.47,-0.87 3.01,-1.83 4.25,-3.07 0.61,-0.62 1.16,-1.33 1.55,-2.04 0.1,-0.2 0.2,-0.4 0.3,-0.6 0.08,-0.2 0.17,-0.39 0.25,-0.59 0.17,-0.4 0.33,-0.79 0.48,-1.19 0.31,-0.78 0.54,-1.57 0.76,-2.31 0.21,-0.74 0.37,-1.46 0.5,-2.12 0.25,-1.33 0.35,-2.47 0.39,-3.26 0.02,-0.8 -0.02,-1.26 -0.02,-1.26z"/>
     </g>
    </g>
    <g id="Path_2">
     <path class="fil9" d="M315.65 35.42c0,0 -0.01,-0.18 0,-0.49 0.02,-0.31 0.07,-0.76 0.2,-1.28 0.07,-0.26 0.15,-0.54 0.27,-0.83 0.13,-0.29 0.27,-0.6 0.49,-0.89 0.2,-0.29 0.48,-0.58 0.82,-0.79 0.35,-0.22 0.79,-0.31 1.21,-0.31l0.31 0.04 0.07 0.01 0.02 0 0.01 0 0.03 0.01 0.01 0.01 0.03 0.01 0.13 0.03c0.14,0.04 0.4,0.17 0.56,0.28 0.35,0.22 0.58,0.54 0.78,0.84 0.19,0.31 0.31,0.63 0.41,0.92 0.1,0.3 0.17,0.59 0.21,0.86 0.1,0.52 0.12,0.97 0.13,1.28 0.01,0.31 0,0.48 0,0.48 0,0 -0.06,-0.16 -0.15,-0.46 -0.1,-0.29 -0.23,-0.7 -0.41,-1.19 -0.19,-0.47 -0.42,-1.02 -0.77,-1.5 -0.17,-0.24 -0.38,-0.45 -0.62,-0.6 -0.06,-0.05 -0.11,-0.06 -0.16,-0.09 -0.03,-0.01 -0.05,-0.03 -0.08,-0.04l-0.13 -0.04 -0.12 -0.03 -0.03 -0.01 -0.01 0c0.01,0 -0.04,-0.01 0.03,0l-0.01 0 -0.01 0 -0.05 0 -0.21 -0.02c-0.28,0 -0.56,0.03 -0.8,0.18 -0.24,0.14 -0.47,0.32 -0.66,0.56 -0.39,0.44 -0.66,0.98 -0.88,1.44 -0.21,0.46 -0.36,0.87 -0.46,1.16 -0.11,0.29 -0.16,0.46 -0.16,0.46z"/>
     <path class="fil9" d="M329.26 36.48c0,0 -0.01,-0.15 -0.01,-0.43 0,-0.28 0.02,-0.67 0.11,-1.14 0.09,-0.47 0.23,-1.02 0.54,-1.58 0.16,-0.27 0.34,-0.56 0.64,-0.79 0.3,-0.23 0.7,-0.38 1.11,-0.37l0.29 0.04 0.04 0.01 0.01 0 0.04 0.02 0.02 0 0.05 0.02 0.11 0.04c0.15,0.07 0.39,0.21 0.51,0.33 0.27,0.25 0.45,0.56 0.58,0.84 0.26,0.58 0.35,1.14 0.41,1.61 0.05,0.47 0.05,0.87 0.05,1.14 -0.01,0.28 -0.03,0.43 -0.03,0.43 0,0 -0.18,-0.59 -0.46,-1.47 -0.15,-0.43 -0.32,-0.94 -0.59,-1.4 -0.12,-0.23 -0.29,-0.43 -0.47,-0.58 -0.04,-0.04 -0.09,-0.09 -0.12,-0.1 -0.05,-0.02 -0.05,-0.05 -0.14,-0.07l-0.11 -0.04 -0.05 -0.02 -0.02 0 0 0c-0.04,-0.01 0.04,0.01 0.03,0.01l0 0 -0.02 -0.01c-0.06,0 -0.11,-0.01 -0.17,-0.01 -0.21,-0.01 -0.42,0.05 -0.61,0.18 -0.19,0.15 -0.37,0.34 -0.52,0.56 -0.14,0.22 -0.28,0.44 -0.39,0.67 -0.11,0.23 -0.21,0.46 -0.3,0.67 -0.17,0.42 -0.3,0.78 -0.39,1.04 -0.09,0.26 -0.14,0.4 -0.14,0.4z"/>
     <path class="fil9" d="M313.29 27.83c0,0 0.11,-0.17 0.35,-0.4 0.12,-0.12 0.27,-0.26 0.45,-0.41 0.19,-0.14 0.4,-0.31 0.65,-0.46 0.25,-0.16 0.52,-0.31 0.83,-0.45 0.3,-0.15 0.64,-0.25 0.99,-0.37 0.18,-0.05 0.37,-0.09 0.56,-0.13 0.18,-0.04 0.37,-0.08 0.57,-0.09 0.39,-0.05 0.79,-0.08 1.19,-0.05 0.41,0.01 0.81,0.08 1.19,0.17 0.2,0.03 0.39,0.07 0.57,0.15 0.18,0.06 0.36,0.13 0.54,0.2 0.35,0.12 0.65,0.34 0.95,0.5 0.3,0.16 0.53,0.38 0.76,0.57 0.22,0.19 0.43,0.35 0.57,0.55 0.15,0.18 0.27,0.35 0.37,0.48 0.2,0.27 0.3,0.44 0.3,0.44 0,0 -0.19,-0.07 -0.49,-0.2 -0.15,-0.06 -0.34,-0.14 -0.54,-0.23 -0.19,-0.11 -0.44,-0.16 -0.68,-0.27 -0.25,-0.09 -0.51,-0.21 -0.8,-0.28 -0.29,-0.06 -0.57,-0.2 -0.88,-0.24 -0.31,-0.05 -0.62,-0.16 -0.95,-0.18 -0.32,-0.04 -0.65,-0.09 -0.98,-0.09 -0.33,-0.03 -0.66,-0.01 -0.99,-0.01 -0.33,0 -0.66,0.06 -0.97,0.07 -0.32,0.06 -0.63,0.07 -0.93,0.14 -0.29,0.04 -0.57,0.1 -0.83,0.16 -0.53,0.1 -0.98,0.22 -1.29,0.3 -0.32,0.08 -0.51,0.13 -0.51,0.13z"/>
     <path class="fil9" d="M328.5 29.92c0,0 0.05,-0.15 0.19,-0.37 0.14,-0.23 0.38,-0.53 0.72,-0.85 0.17,-0.15 0.36,-0.32 0.6,-0.45 0.22,-0.16 0.48,-0.28 0.76,-0.4 0.14,-0.06 0.29,-0.09 0.44,-0.14 0.15,-0.05 0.3,-0.09 0.47,-0.1 0.16,-0.02 0.32,-0.04 0.48,-0.06 0.17,0 0.34,0.02 0.5,0.02 0.34,0.01 0.66,0.12 0.98,0.2 0.31,0.1 0.59,0.26 0.86,0.4 0.25,0.17 0.47,0.36 0.68,0.53 0.2,0.18 0.35,0.39 0.5,0.57 0.14,0.18 0.26,0.35 0.33,0.52 0.09,0.17 0.15,0.32 0.21,0.44 0.1,0.24 0.14,0.39 0.14,0.39 0,0 -0.15,-0.06 -0.38,-0.18 -0.11,-0.06 -0.25,-0.14 -0.4,-0.23 -0.14,-0.09 -0.32,-0.17 -0.5,-0.25 -0.19,-0.09 -0.37,-0.21 -0.57,-0.29 -0.21,-0.07 -0.42,-0.17 -0.63,-0.25 -0.22,-0.05 -0.44,-0.14 -0.66,-0.19 -0.23,-0.02 -0.45,-0.1 -0.68,-0.09l-0.35 -0.03c-0.11,0.01 -0.23,0.01 -0.35,0.01 -0.23,0 -0.46,0.05 -0.69,0.07 -0.22,0.05 -0.45,0.07 -0.67,0.13 -0.22,0.05 -0.42,0.11 -0.62,0.16 -0.39,0.12 -0.73,0.23 -0.97,0.31 -0.25,0.08 -0.39,0.13 -0.39,0.13z"/>
     <path class="fil10" d="M328.15 32.36c-0.1,1.04 -0.15,2.06 -0.11,3.07 0.05,1 0.17,2 0.53,2.89l0.13 0.34 0.17 0.32c0.1,0.22 0.26,0.39 0.39,0.59 0.04,0.06 0.22,0.27 0.26,0.48 0.04,0.21 0.01,0.44 -0.1,0.63 -0.06,0.09 -0.14,0.18 -0.22,0.24 -0.05,0.03 -0.09,0.06 -0.14,0.08l-0.09 0.04 -0.36 0.16c-0.95,0.41 -1.91,0.79 -2.91,1.11 0.85,-0.61 1.74,-1.15 2.64,-1.66l0.34 -0.19 0.08 -0.05c0.01,-0.01 0.02,-0.01 0.02,-0.02 0.02,-0.02 0.03,-0.03 0.04,-0.05 0.01,-0.04 0.02,-0.08 0,-0.12 -0.02,-0.05 -0.02,-0.04 -0.13,-0.18 -0.18,-0.22 -0.36,-0.44 -0.48,-0.69l-0.21 -0.36 -0.16 -0.38c-0.39,-1.04 -0.49,-2.13 -0.41,-3.19 0.07,-1.06 0.3,-2.09 0.72,-3.06z"/>
     <path class="fil11" d="M317.14 43.18c0,0 7.51,1.92 11.18,1.74 0,0 -6.29,5.58 -11.18,-1.74z"/>
     <path class="fil10" d="M317.66 45.45c0,0 0.12,0.08 0.32,0.24 0.19,0.16 0.49,0.36 0.85,0.6 0.35,0.23 0.77,0.5 1.24,0.75 0.23,0.13 0.47,0.25 0.73,0.36 0.24,0.12 0.51,0.2 0.77,0.3 0.26,0.09 0.53,0.15 0.79,0.21 0.27,0.02 0.53,0.11 0.79,0.1 0.25,-0.01 0.51,0.03 0.74,-0.02 0.23,-0.05 0.46,-0.04 0.66,-0.12 0.2,-0.06 0.39,-0.11 0.55,-0.15 0.16,-0.08 0.3,-0.14 0.41,-0.19 0.23,-0.11 0.37,-0.16 0.37,-0.16 0,0 -0.11,0.09 -0.32,0.24 -0.1,0.08 -0.23,0.17 -0.37,0.28 -0.16,0.08 -0.34,0.18 -0.55,0.27 -0.19,0.11 -0.44,0.14 -0.69,0.21 -0.25,0.08 -0.52,0.08 -0.81,0.1 -0.28,0.02 -0.57,-0.03 -0.87,-0.06 -0.29,-0.06 -0.58,-0.12 -0.87,-0.21 -0.28,-0.11 -0.56,-0.21 -0.82,-0.35 -0.27,-0.12 -0.51,-0.27 -0.74,-0.41 -0.25,-0.14 -0.45,-0.31 -0.66,-0.46 -0.2,-0.15 -0.38,-0.31 -0.54,-0.46 -0.32,-0.29 -0.57,-0.57 -0.73,-0.76 -0.17,-0.19 -0.25,-0.31 -0.25,-0.31z"/>
    </g>
   </g>
   <path id="Path_3" class="fil12" d="M302.89 103.71c0,0 -9.96,16.74 -9.43,32.7 0.52,15.96 0.28,35.31 0.28,35.31l28.44 -0.02c0,0 6.93,-16.97 7.19,-23.25 0,0 2.18,16.73 2.44,23.27l23.07 -0.02c0,0 5.69,-24.82 3.59,-41.83 -2.1,-17.01 -21.23,-30.61 -21.23,-30.61l-34.35 4.45z"/>
   <path id="Path_4" class="fil13" d="M339.25 100.82c-1.24,-1.01 -2.01,-1.56 -2.01,-1.56l-34.35 4.45c0,0 -0.79,1.32 -1.91,3.59 5.47,1.38 25.58,1.77 38.27,-6.48z"/>
   <path id="Path_5" class="fil14" d="M358.47 129.87c-0.26,-2.11 -0.79,-4.18 -1.51,-6.17 -2.8,5.64 -8.36,10.28 -12.83,14.17 -3.92,3.41 -9.98,8.43 -14.76,10.58 0,0 2.18,16.73 2.44,23.27l23.07 -0.02c0,0 5.69,-24.82 3.59,-41.83z"/>
   <g id="Group_6">
    <g>
     <path id="Path_7" class="fil7" d="M340.73 60.1c0,0 23.07,9.94 24.47,17.44 1.4,7.5 -16.26,5.76 -16.26,5.76l-10.66 -6.46 1.89 -17.09 0.56 0.35zm0 0l0 0 0 0z"/>
    </g>
    <g>
     <path id="Path_8" class="fil8" d="M340.73 60.1c0,0 23.07,9.94 24.47,17.44 1.4,7.5 -16.26,5.76 -16.26,5.76l-10.66 -6.46 1.89 -17.09 0.56 0.35zm0 0l0 0 0 0z"/>
    </g>
   </g>
   <path id="Path_9" class="fil15" d="M327.84 56.61c5.86,-0.13 11.01,-0.84 24,8.25 0,0 -1.68,11.93 -6.81,16.65l-10.16 -5.07 -7.03 -19.83z"/>
   <path id="Path_10" class="fil16" d="M344.31 60.19c-2.37,5.13 -4.08,10.67 -7.44,15.17 -0.36,0.49 -0.74,0.95 -1.13,1.4 -0.06,0.13 -0.11,0.26 -0.16,0.38l9.45 4.37c5.13,-4.71 6.81,-16.65 6.81,-16.65 -2.85,-1.99 -5.34,-3.51 -7.53,-4.67z"/>
   <g id="Group_11">
    <path id="Path_12" class="fil17" d="M303.71 103.71c0,0 -4.63,-1.05 -5.4,-6.28 -0.77,-5.24 -11.32,-30.16 -4.94,-36.28 4.54,-4.37 12.65,-4.02 12.65,-4.02 0,0 2.56,10.21 11.3,9.42 8.73,-0.78 10.52,-9.94 10.52,-9.94 0,0 9.51,-1.31 12.33,3.14 2.83,4.45 4.91,37.04 -3.3,39.92 -8.22,2.88 -24.18,5.87 -33.16,4.04z"/>
    <path id="Path_13" class="fil18" d="M323.72 94.76c-5.91,-1.08 -10.84,-3.81 -16.14,-6.48 -4.23,-2.13 -8.53,-3.82 -13.01,-3.54 1.68,5.69 3.44,10.66 3.74,12.69 0.77,5.23 5.4,6.28 5.4,6.28 8.98,1.83 24.94,-1.16 33.16,-4.04 2.13,-0.74 3.56,-3.49 4.48,-7.22 -5.56,3.15 -11.43,3.45 -17.63,2.31z"/>
   </g>
   <g id="Group_14">
    <path id="Path_15" class="fil7" d="M365.73 81.6c-0.96,10.25 -47.93,20.11 -36.8,16.02 0,0 -0.87,0.47 -1.67,0.47 -1.04,0 -1.23,-1.12 1.42,-1.4 0,0 -3.53,0.98 -1.98,-0.66 0.29,-0.31 1.03,-0.37 1.61,-0.68 0,0 -1.01,0.63 -1.61,0.81 -0.76,0.22 -2.52,-1.3 2.81,-3.14 0,0 -6.51,-5.27 1.62,-0.83 0,0 18.47,-13.52 18.94,-13.81 6.74,-4.3 16.63,-7.02 15.66,3.22z"/>
    <g id="Path_16">
     <g>
      <path class="fil7" d="M286.38 70.91c0,0 -12.58,20.41 -12.58,30.7 0,10.29 52.6,27.91 35.12,19.71 0,0 13.29,4.54 0.35,-1.22 0,0 13.28,4.54 0.7,-1.39 0,0 11.01,3.83 0.35,-1.4 0,0 8.39,-3.14 -1.92,-1.05 0,0 -18.18,-16.57 -18.7,-16.39 -0.53,0.17 7.34,-16.05 7.34,-16.05l-10.66 -12.91z"/>
      <path class="fil8" d="M293.95 90.27c1.62,-3.43 3.09,-6.45 3.09,-6.45l-10.66 -12.91c0,0 -3.34,5.41 -6.57,12.06 3.59,3.98 8.71,6.39 14.14,7.3z"/>
     </g>
     <path class="fil17" d="M298.09 58.7c-4.5,2.33 -7.52,0.88 -17.83,19.89 0,0 7.34,9.77 16.08,11.51l7.08 -10.47 -5.33 -20.93z"/>
    </g>
   </g>
   <g id="Group_17">
    <g id="Path_18">
     <path class="fil19" d="M408.8 60.53l7.08 0.79 4.98 -17.79 16.12 2.74 -6.68 18.19 6.81 2.62c0,0 -21.49,14.65 -28.31,-6.55z"/>
     <path class="fil20" d="M423.4 61.99c3.1,0.52 5.82,0.09 8.24,-1.18l5.34 -14.54 -16.12 -2.74 -4.55 16.25c2.3,0.97 4.65,1.8 7.09,2.21z"/>
    </g>
    <g id="Path_19">
     <g>
      <path class="fil19" d="M419.3 15.35c0,0 -5.63,6.51 -8.78,24.34 -3.16,17.83 7.38,20.44 16.24,18.2 8.85,-2.24 10.7,-12.6 15.78,-29.97 5.08,-17.38 -23.24,-12.57 -23.24,-12.57z"/>
      <path class="fil19" d="M437.26 40.36c0,0 5.69,-9.45 7.23,-3.15 1.53,6.3 -3.72,11.63 -7.75,10.22 -4.03,-1.42 0.52,-7.07 0.52,-7.07z"/>
     </g>
     <g>
      <path class="fil6" d="M437.13 22.28c0,0 -3.7,6.19 -0.98,11.08 2.72,4.88 -6.09,21.23 -7.69,18.71 -1.6,-2.51 2.33,-5.64 -3.43,-8.09 -5.77,-2.46 -11.9,-5.05 -12.98,2.72 -1.08,7.77 -1.82,-3.13 -1.21,-8.48 0,0 -4.84,9.68 -3.84,14.85 0.99,5.18 11.98,11.17 21.73,6.71 9.75,-4.45 6.98,-18.85 11.57,-23.31 3.83,-3.74 4.32,1.78 4.32,1.78 0,0 10.4,-10.78 6.32,-18.04 -3.7,-6.59 -9.2,-5.18 -9.2,-5.18l0.36 2.95c0,0 5.14,-8.2 -0.54,-9.8 -5.68,-1.59 -11.41,0.6 -15.17,-5.8 0,0 -1.05,1.54 -0.61,2.78 0,0 -3.5,-1.25 -3.44,-5.16 0,0 -9.1,0.82 -7.77,12.24 0,0 -1.76,-4.48 0.28,-9.03 0,0 -7.46,5.29 -2.05,12.98 5.41,7.69 17.81,-1.41 24.33,6.09z"/>
      <path class="fil21" d="M428.28 47.26c-0.01,0.52 -0.03,1.04 -0.06,1.57 0.08,-0.52 0.13,-1.05 0.06,-1.57z"/>
      <path class="fil21" d="M450.94 20.21c-2.36,-4.2 -5.44,-5.15 -7.37,-5.28 0.92,-2.51 1.37,-5.8 -2.01,-6.75 -1.81,-0.5 -3.62,-0.63 -5.38,-0.77 -0.34,2.77 -1.72,5.36 -4.15,7.27 -3.48,2.73 -7.37,3.75 -11.74,3.55 -1.79,-0.08 -4.01,-0.28 -6.3,-0.71 5.87,5.21 17.06,-2.23 23.14,4.76 0,0 -3.7,6.19 -0.98,11.08 2.72,4.88 -6.09,21.23 -7.69,18.71 -0.23,-0.36 -0.34,-0.73 -0.39,-1.11 -0.36,3.65 -1.25,7.18 -3.45,10.1 1.37,-0.25 2.75,-0.66 4.11,-1.28 9.75,-4.45 6.98,-18.85 11.57,-23.31 3.83,-3.74 4.32,1.78 4.32,1.78 0,0 10.4,-10.78 6.32,-18.04z"/>
     </g>
    </g>
    <g id="Path_20">
     <path class="fil11" d="M414 44.22c0,0 7.01,1.9 12.46,3.24 0,0 -7.2,5.06 -12.46,-3.24z"/>
     <path class="fil20" d="M419.85 42.04c-0.71,-0.17 -1.4,-0.38 -2.09,-0.58l-1.03 -0.33 -0.51 -0.17c-0.23,-0.08 -0.45,-0.24 -0.6,-0.45 -0.15,-0.2 -0.23,-0.46 -0.24,-0.72 0,-0.13 0.02,-0.27 0.06,-0.39 0.04,-0.13 0.11,-0.25 0.14,-0.32l0.48 -0.95c0.33,-0.64 0.65,-1.27 0.96,-1.91 0.64,-1.27 1.26,-2.56 1.88,-3.84 0.63,-1.29 1.25,-2.57 1.92,-3.86 -0.29,1.42 -0.71,2.8 -1.21,4.16 -0.5,1.35 -1.08,2.67 -1.72,3.97 -0.33,0.64 -0.66,1.28 -1.01,1.91l-0.55 0.94c-0.05,0.09 -0.08,0.12 -0.1,0.17 -0.01,0.04 -0.02,0.09 -0.03,0.13 -0.01,0.1 0.01,0.2 0.06,0.29 0.05,0.1 0.12,0.17 0.22,0.22l0.49 0.23 0.97 0.48c0.64,0.32 1.28,0.65 1.91,1.02z"/>
     <path class="fil20" d="M438.51 46.41c0.32,-0.21 0.62,-0.44 0.89,-0.69 0.13,-0.13 0.24,-0.27 0.35,-0.41 0.04,-0.07 0.08,-0.14 0.12,-0.22 0.03,-0.07 0.06,-0.14 0.08,-0.21 0,-0.08 0.02,-0.15 0.02,-0.22 -0.02,-0.06 -0.01,-0.13 -0.04,-0.19 -0.03,-0.07 -0.06,-0.13 -0.08,-0.19l-0.14 -0.18c-0.09,-0.12 -0.24,-0.22 -0.36,-0.33l-0.43 -0.28 -0.22 -0.14 0.03 -0.27c0.11,-0.96 0.28,-1.89 0.55,-2.83 0.13,-0.46 0.3,-0.92 0.51,-1.38 0.22,-0.45 0.46,-0.91 0.93,-1.3 0.22,-0.19 0.54,-0.35 0.9,-0.36 0.36,-0.01 0.68,0.14 0.9,0.31 0.1,0.07 0.19,0.13 0.29,0.22l0.3 0.31 0.24 0.33c0.06,0.12 0.12,0.24 0.17,0.36 0.04,0.13 0.08,0.26 0.11,0.38 0.02,0.13 0.05,0.26 0.06,0.39 0.01,0.25 -0.01,0.51 -0.05,0.75 -0.08,0.49 -0.26,0.94 -0.51,1.35 0.11,-0.46 0.16,-0.93 0.15,-1.38 -0.01,-0.22 -0.05,-0.44 -0.09,-0.65 -0.03,-0.1 -0.07,-0.2 -0.09,-0.3l-0.14 -0.28 -0.17 -0.25 -0.2 -0.22c-0.07,-0.06 -0.15,-0.11 -0.21,-0.17 -0.08,-0.06 -0.2,-0.12 -0.3,-0.18 -0.16,-0.09 -0.3,-0.13 -0.42,-0.12 -0.11,0.02 -0.23,0.08 -0.36,0.2 -0.24,0.24 -0.46,0.62 -0.64,1.01 -0.17,0.4 -0.32,0.83 -0.46,1.26 -0.13,0.44 -0.25,0.88 -0.35,1.33 -0.12,0.44 -0.22,0.9 -0.3,1.34l-0.19 -0.4 0.49 0.39c0.14,0.17 0.3,0.3 0.42,0.5 0.06,0.1 0.12,0.2 0.17,0.3 0.04,0.12 0.07,0.23 0.1,0.35 0.02,0.12 0.01,0.25 0,0.37 -0.01,0.12 -0.06,0.23 -0.09,0.34 -0.05,0.11 -0.11,0.2 -0.17,0.3 -0.07,0.08 -0.14,0.16 -0.21,0.24 -0.16,0.14 -0.32,0.26 -0.49,0.37 -0.34,0.2 -0.7,0.35 -1.07,0.45z"/>
     <path class="fil9" d="M423.81 27.43c0,0 0.11,-0.14 0.36,-0.33 0.24,-0.2 0.61,-0.43 1.08,-0.66 0.25,-0.09 0.51,-0.21 0.81,-0.29 0.29,-0.08 0.6,-0.15 0.94,-0.18 0.34,-0.06 0.69,-0.05 1.06,-0.04 0.36,0.03 0.73,0.09 1.09,0.19 0.37,0.13 0.73,0.23 1.06,0.43 0.16,0.1 0.33,0.19 0.48,0.29 0.14,0.12 0.28,0.24 0.42,0.36 0.28,0.22 0.48,0.51 0.66,0.77 0.09,0.14 0.19,0.26 0.25,0.39 0.06,0.14 0.11,0.27 0.17,0.4 0.09,0.26 0.19,0.48 0.22,0.7 0.03,0.22 0.05,0.41 0.06,0.56 0.03,0.31 0.01,0.49 0.01,0.49 0,0 -0.15,-0.12 -0.36,-0.33 -0.11,-0.1 -0.24,-0.22 -0.37,-0.36 -0.13,-0.14 -0.33,-0.26 -0.49,-0.41 -0.09,-0.07 -0.17,-0.15 -0.26,-0.23 -0.09,-0.07 -0.2,-0.13 -0.3,-0.2 -0.21,-0.14 -0.4,-0.29 -0.63,-0.39 -0.12,-0.06 -0.23,-0.13 -0.33,-0.19 -0.13,-0.05 -0.25,-0.09 -0.37,-0.14 -0.23,-0.12 -0.49,-0.18 -0.74,-0.26 -0.12,-0.06 -0.27,-0.06 -0.4,-0.1 -0.13,-0.02 -0.26,-0.07 -0.39,-0.09 -0.28,-0.03 -0.55,-0.1 -0.82,-0.12 -0.27,-0.04 -0.54,-0.06 -0.8,-0.08 -0.26,-0.03 -0.51,-0.04 -0.75,-0.06 -0.94,-0.06 -1.66,-0.12 -1.66,-0.12z"/>
     <path class="fil9" d="M419.99 27.87c0,0 -0.13,-0.06 -0.33,-0.15 -0.19,-0.09 -0.45,-0.22 -0.77,-0.38 -0.16,-0.06 -0.31,-0.15 -0.47,-0.22 -0.16,-0.08 -0.33,-0.14 -0.49,-0.2 -0.16,-0.07 -0.32,-0.12 -0.48,-0.18 -0.16,-0.03 -0.31,-0.1 -0.47,-0.11 -0.15,-0.05 -0.31,-0.05 -0.47,-0.08 -0.15,-0.03 -0.32,0 -0.48,-0.03 -0.17,0.01 -0.34,0.03 -0.51,0.03 -0.17,0 -0.33,0.04 -0.5,0.05 -0.16,0.02 -0.33,0.03 -0.46,0.06 -0.14,0.03 -0.28,0.04 -0.39,0.05 -0.22,0.03 -0.37,0.03 -0.37,0.03 0,0 0.04,-0.13 0.14,-0.34 0.05,-0.1 0.11,-0.23 0.2,-0.36 0.08,-0.15 0.2,-0.29 0.34,-0.43 0.15,-0.14 0.3,-0.3 0.5,-0.43 0.2,-0.12 0.42,-0.25 0.68,-0.35 0.13,-0.04 0.26,-0.07 0.4,-0.11 0.14,-0.03 0.28,-0.07 0.43,-0.06 0.29,-0.02 0.6,-0.02 0.89,0.06 0.3,0.05 0.57,0.17 0.83,0.29 0.14,0.06 0.25,0.15 0.36,0.22 0.11,0.08 0.23,0.15 0.32,0.25 0.4,0.34 0.65,0.74 0.83,1.1 0.16,0.36 0.24,0.68 0.26,0.92 0.03,0.23 0.01,0.37 0.01,0.37z"/>
     <path class="fil9" d="M423.96 33.96c0,0 0.03,-0.16 0.1,-0.43 0.07,-0.27 0.2,-0.65 0.43,-1.09 0.12,-0.21 0.26,-0.44 0.44,-0.67 0.18,-0.22 0.39,-0.45 0.67,-0.63 0.14,-0.09 0.28,-0.19 0.44,-0.25l0.25 -0.1 0.27 -0.05c0.36,-0.07 0.74,-0.02 1.09,0.08 0.05,0.02 0.06,0.01 0.15,0.05l0.11 0.05 0.21 0.1c0.14,0.07 0.32,0.21 0.47,0.32 0.27,0.25 0.47,0.55 0.59,0.86 0.13,0.31 0.18,0.62 0.2,0.91 0.02,0.29 0,0.56 -0.04,0.81 -0.07,0.48 -0.21,0.87 -0.31,1.12 -0.11,0.26 -0.19,0.4 -0.19,0.4 0,0 0.02,-0.16 0.04,-0.43 0.03,-0.27 0.06,-0.66 0.04,-1.12 -0.01,-0.22 -0.04,-0.46 -0.09,-0.71 -0.02,-0.12 -0.05,-0.24 -0.09,-0.36 -0.04,-0.13 -0.09,-0.24 -0.15,-0.35 -0.04,-0.13 -0.14,-0.22 -0.2,-0.32 -0.08,-0.1 -0.18,-0.19 -0.26,-0.27 -0.11,-0.07 -0.17,-0.14 -0.31,-0.21l-0.22 -0.09 -0.1 -0.05c0.02,0.01 -0.05,-0.01 -0.07,-0.01 -0.26,-0.08 -0.52,-0.13 -0.76,-0.08l-0.19 0.02 -0.18 0.06c-0.13,0.03 -0.24,0.1 -0.35,0.16 -0.23,0.13 -0.43,0.29 -0.62,0.46 -0.18,0.18 -0.34,0.36 -0.49,0.53 -0.28,0.36 -0.5,0.69 -0.65,0.92 -0.15,0.23 -0.23,0.37 -0.23,0.37z"/>
     <path class="fil9" d="M413.63 31.92c0,0 0.01,-0.16 0.06,-0.44 0.05,-0.27 0.13,-0.67 0.32,-1.12 0.09,-0.22 0.21,-0.47 0.37,-0.71 0.16,-0.24 0.35,-0.49 0.6,-0.7 0.14,-0.1 0.26,-0.21 0.42,-0.29l0.24 -0.12 0.26 -0.08c0.35,-0.1 0.73,-0.09 1.09,-0.03 0.06,0.02 0.06,0.01 0.16,0.04l0.11 0.04 0.22 0.08c0.15,0.05 0.34,0.18 0.5,0.27 0.29,0.22 0.52,0.5 0.67,0.8 0.16,0.29 0.24,0.6 0.29,0.89 0.05,0.28 0.05,0.56 0.04,0.8 -0.02,0.49 -0.12,0.89 -0.2,1.15 -0.08,0.27 -0.15,0.42 -0.15,0.42 0,0 0.01,-0.16 0,-0.44 0,-0.27 -0.01,-0.66 -0.07,-1.11 -0.04,-0.22 -0.08,-0.46 -0.16,-0.7 -0.03,-0.12 -0.07,-0.24 -0.13,-0.35 -0.05,-0.12 -0.11,-0.23 -0.18,-0.34 -0.05,-0.12 -0.16,-0.2 -0.23,-0.3 -0.09,-0.08 -0.2,-0.16 -0.29,-0.24 -0.12,-0.05 -0.18,-0.12 -0.33,-0.17l-0.22 -0.07 -0.11 -0.04c0.02,0 -0.05,-0.01 -0.07,-0.01 -0.26,-0.05 -0.52,-0.07 -0.77,0l-0.18 0.04 -0.18 0.08c-0.12,0.04 -0.22,0.12 -0.33,0.19 -0.21,0.15 -0.4,0.33 -0.56,0.52 -0.16,0.19 -0.31,0.39 -0.44,0.58 -0.25,0.38 -0.43,0.73 -0.56,0.97 -0.12,0.24 -0.19,0.39 -0.19,0.39z"/>
    </g>
   </g>
   <g>
    <path id="Path_21" class="fil22" d="M386.14 123.94c0,0 -7.93,22.66 -10.67,47.78l19.83 0 4.21 -16.03 4.8 1.39 -2.4 14.65 23.32 0 4.8 -35.93 -42.52 -11.51 -1.37 -0.35zm0 0l0 0 0 0z"/>
   </g>
   <path id="Path_22" class="fil18" d="M413.61 143.6c5.15,0.34 10.29,0.27 15.4,-0.12l1.02 -7.68 -42.52 -11.51 -1.37 -0.35c0,0 -1.51,4.28 -3.45,11.21 9.65,4.8 20.11,7.72 30.92,8.45z"/>
   <path id="Path_23" class="fil18" d="M379.13 149.53c-1.44,6.64 -2.82,14.45 -3.66,22.19l19.83 0 4.14 -15.74c-6.87,-1.85 -13.67,-3.9 -20.31,-6.45z"/>
   <g id="Group_24">
    <g id="Path_25">
     <path class="fil19" d="M357.93 47.49c0,0 -5.63,30.45 1.56,39.34 4.84,5.98 31.42,-4.77 31.42,-4.77l-3.43 -15.22 -18.2 6.67c0,0 -3.66,-22.43 -2.94,-25.31 0,0 4.48,-0.21 4.94,-5.61 0.37,-4.3 -2.39,-4.16 -2.39,-4.16 0,0 1.39,-7.55 -2.78,-4.39 0,0 -1.23,-3.92 -3.4,-0.08 0,0 -2.75,-3.62 -3.47,0.46 0,0 -2.96,-2.89 -3.43,2.04 -0.42,4.54 -1.73,9.59 2.12,11.03z"/>
     <path class="fil23" d="M366.53 41.16c-0.41,-0.96 -0.79,-1.92 -1.27,-2.84 -3.21,-0.04 -6.43,-0.1 -9.65,-0.05 -0.45,3.8 -0.97,7.58 1.86,9.01 0.01,0 0.02,0 0.04,0 1.92,-0.07 3.86,0 5.78,0.2 -0.29,-2.59 0.93,-5.77 3.24,-6.32z"/>
     <path class="fil20" d="M382.01 85.22c5.04,-1.6 8.9,-3.16 8.9,-3.16l-3.43 -15.22 -8.09 2.96c0.23,5.18 1.22,10.42 2.62,15.42z"/>
     <path class="fil19" d="M355.59 37.6c0,0 0,-4.36 2.01,-4.19 2,0.17 1.83,2.09 1.83,3.31 0,1.23 -0.61,6.63 -2.53,6.11 -1.18,-0.32 -1.31,-5.23 -1.31,-5.23z"/>
     <path class="fil19" d="M359.08 38.12c0,0 0,-4.36 2.01,-4.19 2.01,0.18 1.84,2.1 1.84,3.32 0,1.22 -0.62,6.63 -2.54,6.1 -1.18,-0.32 -1.31,-5.23 -1.31,-5.23z"/>
     <path class="fil19" d="M362.02 37.75c0,0 0.4,-4.22 2.29,-3.88 1.9,0.35 1.56,2.19 1.45,3.38 -0.12,1.18 -1.19,6.36 -2.97,5.68 -1.09,-0.42 -0.77,-5.18 -0.77,-5.18z"/>
     <path class="fil19" d="M364.66 37.97c0,0 0.4,-4.22 2.51,-3.85 2.11,0.37 1.75,2.21 1.64,3.39 -0.11,1.18 -1.25,6.35 -3.24,5.66 -1.22,-0.43 -0.91,-5.2 -0.91,-5.2z"/>
     <path class="fil20" d="M363.27 46.23c-0.03,-0.27 -0.06,-0.54 -0.06,-0.81 0,-0.27 0.03,-0.55 0.07,-0.82 0.1,-0.54 0.29,-1.07 0.59,-1.55 0.3,-0.47 0.7,-0.88 1.15,-1.21 0.23,-0.16 0.47,-0.31 0.72,-0.44 0.25,-0.13 0.5,-0.23 0.79,-0.32l0.04 0.42c-0.36,-0.01 -0.7,-0.05 -1.04,-0.1 -0.35,-0.05 -0.69,-0.12 -1.03,-0.21 -0.34,-0.09 -0.68,-0.21 -1,-0.38 -0.33,-0.17 -0.65,-0.39 -0.88,-0.72 -0.12,-0.16 -0.2,-0.36 -0.25,-0.56 -0.04,-0.21 -0.06,-0.39 0.02,-0.65 0.09,-0.23 0.26,-0.39 0.43,-0.51 0.17,-0.11 0.35,-0.18 0.53,-0.24 0.7,-0.22 1.41,-0.24 2.1,-0.24 1.39,0.01 2.75,0.21 4.1,0.45 0.38,0.07 0.68,0.29 0.93,0.54 0.25,0.26 0.43,0.58 0.55,0.91 0.13,0.32 0.17,0.67 0.2,1.01 0.01,0.17 0,0.35 0,0.52l-0.05 0.51 0 -0.51 -0.04 -0.51c-0.05,-0.33 -0.12,-0.66 -0.26,-0.97 -0.13,-0.3 -0.32,-0.57 -0.56,-0.79 -0.23,-0.21 -0.53,-0.39 -0.82,-0.43 -1.34,-0.17 -2.71,-0.26 -4.05,-0.25 -0.66,0.02 -1.35,0.06 -1.94,0.25 -0.3,0.09 -0.56,0.25 -0.63,0.44 -0.03,0.07 -0.03,0.24 0,0.36 0.03,0.13 0.08,0.26 0.16,0.37 0.16,0.23 0.42,0.42 0.69,0.57 0.28,0.15 0.59,0.26 0.9,0.36 0.63,0.19 1.31,0.3 1.96,0.35l1.29 0.12 -1.25 0.3c-0.23,0.06 -0.49,0.16 -0.72,0.26 -0.24,0.11 -0.47,0.24 -0.69,0.38 -0.43,0.29 -0.82,0.65 -1.13,1.08 -0.3,0.42 -0.53,0.9 -0.66,1.42 -0.13,0.52 -0.17,1.06 -0.16,1.6z"/>
    </g>
    <g id="Path_26">
     <path class="fil24" d="M384.38 66.37c0,0 -0.5,12.71 3.02,19.59l9.55 -2.11 10.56 -24.37c0,0 -5.53,-0.53 -12.82,1.86 -7.29,2.38 -10.31,5.03 -10.31,5.03z"/>
     <path class="fil25" d="M384.38 66.37c0,0 -0.5,12.71 3.02,19.59l9.55 -2.11 10.56 -24.37c0,0 -5.53,-0.53 -12.82,1.86 -7.29,2.38 -10.31,5.03 -10.31,5.03z"/>
    </g>
   </g>
   <path id="Path_27" class="fil26" d="M398.46 64.75c0,0 -12.57,38.39 -17.6,66.49 0,0 18.85,11.04 50.03,8.03 0,0 18.1,-62.98 15.83,-68 -2.26,-5.02 -15.08,-6.52 -15.08,-6.52 0,0 -4.29,7.99 -13.83,5.27 -8.8,-2.51 -7.54,-10.29 -7.54,-10.29 0,0 -8.04,-2.51 -11.81,5.02z"/>
   <path id="Path_28" class="fil27" d="M399.04 107.16c-4.58,1.43 -9.19,2.76 -13.83,3.95 -1.68,6.86 -3.21,13.76 -4.35,20.13 0,0 18.85,11.04 50.03,8.03 0,0 10.56,-36.77 14.54,-56.36 -13.13,11.56 -29.61,19.02 -46.39,24.25z"/>
   <g id="Group_29">
    <g id="Path_30">
     <path class="fil19" d="M450.24 77.8c0,0 18.32,24.62 18.07,31.14 -0.25,6.52 -28.05,27.99 -35.66,25.9 -2.07,-0.57 -0.76,-7.11 -0.76,-7.11 0,0 -19.61,7.02 -1.76,-1.76 0,0 -18.35,2.51 -0.75,-1.51 0,0 -17.85,-1.25 -0.25,-1.75 0,0 -15.09,-5.52 3.26,-1.51 0,0 4.03,2.26 4.03,4.52l14.32 -18.87 -13.63 -16.23 13.13 -12.82z"/>
     <path class="fil20" d="M459.92 91.67c-6.03,-9.16 -9.68,-13.87 -9.68,-13.87l-11.82 14.13 8.23 9.93c5.64,-1.61 10.93,-3.74 13.27,-10.19z"/>
    </g>
    <path id="Path_31" class="fil24" d="M441.95 67.51c0,0 8.04,2.76 17.59,18.06 0,0 -4.84,11.77 -16.16,14.78l-10.39 -10.95 8.96 -21.89z"/>
   </g>
   <g id="Group_32">
    <g id="Path_33">
     <path class="fil2 str0" d="M385.25 64.06c-2.6,0.98 -5.2,1.96 -7.81,2.94"/>
     <path class="fil2 str0" d="M378.02 60.67c-0.92,1.42 -1.84,2.84 -2.75,4.26"/>
     <path class="fil2 str0" d="M370.86 57.1c0.04,2.77 0.07,5.55 0.11,8.33"/>
    </g>
    <g id="Path_34">
     <path class="fil2 str0" d="M352.3 96.7c2.57,-1.06 5.14,-2.13 7.71,-3.19"/>
     <path class="fil2 str0" d="M359.64 99.85c0.88,-1.45 1.75,-2.9 2.62,-4.35"/>
     <path class="fil2 str0" d="M366.92 103.19c-0.13,-2.78 -0.26,-5.55 -0.39,-8.32"/>
    </g>
    <g id="Path_35">
     <path class="fil2 str0" d="M375.54 99.56c-1.09,-1.29 -2.18,-2.58 -3.28,-3.87"/>
     <path class="fil2 str0" d="M381.06 93.76c-2.67,-0.77 -5.34,-1.54 -8.02,-2.32"/>
    </g>
   </g>
  </g>
 </g>
</svg>
