<?xml version="1.0" encoding="UTF-8"?>
<!DOCTYPE svg PUBLIC "-//W3C//DTD SVG 1.1//EN" "http://www.w3.org/Graphics/SVG/1.1/DTD/svg11.dtd">
<!-- Creator: CorelDRAW 2018 -->
<svg xmlns="http://www.w3.org/2000/svg" width="184" height="60" xml:space="preserve" version="1.1" style="shape-rendering:geometricPrecision; text-rendering:geometricPrecision; image-rendering:optimizeQuality; fill-rule:evenodd; clip-rule:evenodd"
viewBox="0 0 0.58 0.75"
 xmlns:xlink="http://www.w3.org/1999/xlink">
 <defs>
  <style type="text/css">
   <![CDATA[
    .fil0 {fill:#008467;fill-rule:nonzero}
   ]]>
  </style>
 </defs>
 <g id="Layer_x0020_1">
  <metadata id="CorelCorpID_0Corel-Layer"/>
  <g id="_963891048">
   <g id="WEB-RED-SALUD-GLOBAL">
    <g id="splash" filter="url(#filter-1)">
     <g>
      <path id="Path" class="fil0" d="M0.58 0.68c0,-0.03 -0.02,-0.06 -0.04,-0.08 -0.04,-0.05 -0.1,-0.07 -0.16,-0.07 -0.06,0 -0.12,0.01 -0.17,0.04 -0.01,0 -0.01,0 -0.02,0.01 0,0 0,0.01 0,0.01 0,0 0,0.01 0.01,0.01 0.02,0.01 0.03,0.01 0.05,0.02 0.04,0.01 0.08,0.03 0.12,0.05 0.03,0.02 0.06,0.04 0.1,0.06 0.01,0.01 0.02,0.02 0.03,0.02 0.04,0.01 0.07,-0.01 0.08,-0.05 0,0 0,0 0,0 0,-0.01 0,-0.01 0,-0.02z"/>
      <path id="Path_0" class="fil0" d="M0.36 0.14c0,-0.04 -0.01,-0.07 -0.02,-0.1 -0.01,-0.02 -0.03,-0.03 -0.05,-0.04 -0.03,-0.01 -0.06,0.01 -0.08,0.04 -0.01,0.03 -0.01,0.05 -0.02,0.07 0,0.06 -0.01,0.11 -0.01,0.16 -0.01,0.07 -0.02,0.13 -0.05,0.19 0,0 0,0.01 0,0.01 0,0.02 0.01,0.02 0.02,0.02 0.01,-0.01 0.02,-0.01 0.03,-0.02 0.08,-0.07 0.14,-0.16 0.17,-0.27 0,-0.02 0.01,-0.04 0.01,-0.06z"/>
      <path id="Path_1" class="fil0" d="M0.56 0.33c0,-0.05 -0.04,-0.08 -0.08,-0.06 -0.02,0.01 -0.03,0.02 -0.04,0.03 -0.03,0.02 -0.05,0.05 -0.07,0.07 -0.03,0.02 -0.05,0.05 -0.07,0.07 0,0.01 -0.01,0.01 -0.01,0.02 -0.01,0.02 -0.01,0.03 0.01,0.03 0.02,0 0.03,0 0.05,-0.01 0.05,-0.01 0.11,-0.03 0.15,-0.06 0.02,-0.02 0.04,-0.03 0.05,-0.06 0.01,-0.01 0.01,-0.02 0.01,-0.03z"/>
      <path id="Path_2" class="fil0" d="M0.05 0.51c-0.03,0 -0.05,0.02 -0.05,0.05 0,0.02 0.02,0.04 0.04,0.04 0.03,0 0.05,-0.02 0.05,-0.04 0,-0.03 -0.02,-0.05 -0.04,-0.05z"/>
     </g>
    </g>
   </g>
  </g>
 </g>
</svg>
