<?xml version="1.0" encoding="UTF-8"?>
<svg width="100px" height="100px" viewBox="0 0 100 100" version="1.1" xmlns="http://www.w3.org/2000/svg" xmlns:xlink="http://www.w3.org/1999/xlink">
    <title>ingresa datos@2x</title>
    <defs>
        <rect id="path-1" x="0" y="0" width="100" height="100" rx="21"></rect>
    </defs>
    <g id="WEB-RED-SALUD-GLOBAL" stroke="none" stroke-width="1" fill="none" fill-rule="evenodd">
        <g id="inicio-2-propuesta" transform="translate(-422.000000, -1119.000000)">
            <g id="ingresa-datos" transform="translate(422.000000, 1119.000000)">
                <mask id="mask-2" fill="white">
                    <use xlink:href="#path-1"></use>
                </mask>
                <use id="Mask" fill="#D5EDFF" xlink:href="#path-1"></use>
                <g id="Group" mask="url(#mask-2)">
                    <g transform="translate(6.831532, 15.789032)">
                        <g transform="translate(75.900000, 27.000000)" fill-rule="nonzero" id="Path">
                            <path d="M17.1,23.8 L15.3,10.2 C15.1,8.7 14.4,7.4 13.2,6.5 L4.6,7.10542736e-15 L2.84217094e-14,14.8 L10.7,26.7 L17.1,23.8 Z" fill="#F6B381"></path>
                            <path d="M4.9,4.6 L10.9,9.6 C11.1,9.8 11.2,10.1 11.1,10.3 L9,18.6 C8.9,19.2 8.1,19.3 7.8,18.8 L3.5,13.3 C3.3,13.1 3.3,12.7 3.5,12.5 L3.9,4.7 C4.1,4.4 4.5,4.3 4.9,4.6 Z" fill="#F6906B"></path>
                        </g>
                        <path d="M75.5,52.5 L7.5,52.5 C4.7,52.5 2.5,50.3 2.5,47.5 L2.5,5 C2.5,2.2 4.7,7.10542736e-15 7.5,7.10542736e-15 L75.5,7.10542736e-15 C78.3,7.10542736e-15 80.5,2.2 80.5,5 L80.5,47.5 C80.5,50.3 78.3,52.5 75.5,52.5 Z" id="Path" fill="#01387B" fill-rule="nonzero"></path>
                        <rect id="Rectangle" fill="#0086FF" fill-rule="nonzero" x="6.8" y="3.6" width="69.9" height="45.2"></rect>
                        <path d="M52.1,19.1 C54.6,22.2 58.5,23.9 62.3,25.1 C66.1,26.3 70.1,27.4 73.4,29.6 C74.6,30.4 75.7,31.4 76.8,32.3 L76.8,3.6 L50.4,3.6 C48.8,8.8 48.7,14.7 52.1,19.1 Z" id="Path" fill="#1D9EFF" fill-rule="nonzero"></path>
                        <g transform="translate(6.800000, 3.600000)" fill-rule="nonzero">
                            <rect id="Rectangle" fill="#CFE3FF" x="-1.42108547e-14" y="0" width="69.9" height="4.5"></rect>
                            <g transform="translate(54.900000, 1.387194)" fill="#008467" id="Path">
                                <path d="M2,1.01280556 C2,1.61280556 1.5,2.01280556 1,2.01280556 C0.4,2.01280556 0,1.51280556 0,1.01280556 C0,0.412805562 0.5,0.012805562 1,0.012805562 C1.6,-0.087194438 2,0.412805562 2,1.01280556 Z"></path>
                                <path d="M6.5,1.01280556 C6.5,1.61280556 6,2.01280556 5.5,2.01280556 C4.9,2.01280556 4.5,1.51280556 4.5,1.01280556 C4.5,0.412805562 5,0.012805562 5.5,0.012805562 C6,-0.087194438 6.5,0.412805562 6.5,1.01280556 Z"></path>
                                <path d="M11,1.01280556 C11,1.61280556 10.5,2.01280556 10,2.01280556 C9.4,2.01280556 9,1.51280556 9,1.01280556 C9,0.412805562 9.5,0.012805562 10,0.012805562 C10.5,-0.087194438 11,0.412805562 11,1.01280556 Z"></path>
                            </g>
                            <path d="M30.3,3.4 L4.5,3.4 C3.9,3.4 3.5,2.9 3.5,2.4 L3.5,2.4 C3.5,1.8 4,1.4 4.5,1.4 L30.3,1.4 C30.9,1.4 31.3,1.9 31.3,2.4 L31.3,2.4 C31.3,2.9 30.9,3.4 30.3,3.4 Z" id="Path" fill="#FFFFFF"></path>
                        </g>
                        <path d="M43.9,47.2 C41.8,44.7 38.4,43.8 35.3,43 C33.6,42.5 31.8,42.1 30.1,41.7 C28.5,41.3 26.8,40.8 25.3,40 C22.1,38.3 20,35.3 18.2,32.2 C16.4,29.2 14.7,25.9 12.1,23.5 C10.7,22.2 8.8,21.1 6.9,20.7 L6.9,48.8 L45.1,48.8 C44.7,48.2 44.3,47.7 43.9,47.2 Z" id="Path" fill="#1D9EFF" fill-rule="nonzero"></path>
                        <path d="M59.6,42.4 L26.9,42.4 C22.5,42.4 18.8,38.8 18.8,34.3 L18.8,21.4 C18.8,16.9 22.4,13.3 26.9,13.3 L59.6,13.3 C64,13.3 67.7,16.9 67.7,21.4 L67.7,34.3 C67.7,38.8 64.1,42.4 59.6,42.4 Z" id="Path" fill="#FFFFFF" fill-rule="nonzero"></path>
                        <circle id="Oval" fill="#1AA484" fill-rule="nonzero" cx="28.9" cy="25" r="4.7"></circle>
                        <g transform="translate(26.100000, 21.900000)" fill="#FFFFFF" fill-rule="nonzero" id="Path">
                            <path d="M4.6,1.7 C4.6,2.7 3.8,3.4 2.9,3.4 C2,3.4 1.2,2.6 1.2,1.7 C1.2,0.7 2,0 2.9,0 C3.8,0 4.6,0.8 4.6,1.7 Z"></path>
                            <path d="M0,6.8 C0,5.2 1.3,4 2.8,4 C4.4,4 5.6,5.3 5.6,6.8 C5.6,6.8 4.3,7.9 2.7,7.9 C1.1,7.9 0,6.8 0,6.8 Z"></path>
                        </g>
                        <g transform="translate(35.900000, 20.154200)" fill-rule="nonzero">
                            <g>
                                <path d="M24.5,3.9458 L1.8,3.9458 C0.8,3.9458 0,3.1458 0,2.1458 L0,2.1458 C0,1.1458 0.8,0.3458 1.8,0.3458 L24.5,0.3458 C25.5,0.3458 26.4,1.1458 26.4,2.1458 L26.4,2.1458 C26.4,3.0458 25.6,3.9458 24.5,3.9458 Z" id="Path" fill="#BAE5DA"></path>
                                <text id="Dr.-Nombre" fill="#606565" font-family="Helvetica" font-size="2.5568" font-weight="normal">
                                    <tspan x="1.765" y="3">Dr. Nombre</tspan>
                                </text>
                            </g>
                            <g transform="translate(0.000000, 5.675200)">
                                <path d="M24.5,3.8706 L1.8,3.8706 C0.8,3.8706 0,3.0706 0,2.0706 L0,2.0706 C0,1.0706 0.8,0.2706 1.8,0.2706 L24.5,0.2706 C25.5,0.2706 26.4,1.0706 26.4,2.0706 L26.4,2.0706 C26.4,3.0706 25.6,3.8706 24.5,3.8706 Z" id="Path" fill="#BAE5DA"></path>
                                <text id="Especialidad" fill="#606565" font-family="Helvetica" font-size="2.5568" font-weight="normal">
                                    <tspan x="1.765" y="3">Especialidad</tspan>
                                </text>
                            </g>
                        </g>
                        <g transform="translate(25.700000, 34.200000)" fill-rule="nonzero" id="Path">
                            <path d="M9.4,3.6 L1.8,3.6 C0.8,3.6 1.42108547e-14,2.8 1.42108547e-14,1.8 L1.42108547e-14,1.8 C1.42108547e-14,0.8 0.8,0 1.8,0 L9.4,0 C10.4,0 11.2,0.8 11.2,1.8 L11.2,1.8 C11.2,2.8 10.4,3.6 9.4,3.6 Z" fill="#1AA484"></path>
                            <path d="M33.2,3.6 L25.6,3.6 C24.6,3.6 23.8,2.8 23.8,1.8 L23.8,1.8 C23.8,0.8 24.6,0 25.6,0 L33.2,0 C34.2,0 35,0.8 35,1.8 L35,1.8 C35,2.8 34.2,3.6 33.2,3.6 Z" fill="#0086FF"></path>
                        </g>
                        <path d="M68.1,38.3 C68.1,38.3 66.9,41.3 68.7,43.5 C70.6,45.7 73.4,46.4 73.4,46.4 C73.4,46.4 72.8,51.1 74.9,52.4 L79.4,52.4 L79.8,42.5 L68.1,38.3 Z" id="Path" fill="#2F2D4F" fill-rule="nonzero" opacity="0.22"></path>
                        <g transform="translate(67.700000, 36.961792)" fill-rule="nonzero" id="Path">
                            <g transform="translate(0.000000, 0.000000)">
                                <path d="M15.7,22.5382081 L14.6,19.2382081 C14.5,19.0382081 14.4,18.9382081 14.3,18.9382081 L10.4,17.3382081 C6.8,15.9382081 6.9,10.2382081 7,8.7382081 C7,8.5382081 6.9,8.3382081 6.7,8.2382081 L2.6,6.2382081 C1.2,5.5382081 0,3.7382081 0,2.1382081 L0,2.1382081 C0,0.538208098 1.3,-0.361791902 2.8,0.138208098 L13.3,3.9382081 C13.4,3.9382081 13.5,4.0382081 13.6,4.1382081 L19.1,13.3382081 C19.2,13.5382081 19.5,13.6382081 19.8,13.5382081 L24.5,12.0382081 C24.8,11.9382081 25.2,12.1382081 25.2,12.4382081 L27.4,22.2382081 C27.5,22.5382081 27.2,22.9382081 26.8,22.9382081 L16.2,22.9382081 C16,22.9382081 15.8,22.7382081 15.7,22.5382081 Z" fill="#F6B381"></path>
                                <path d="M15.5,16.3382081 C7.8,14.9382081 9.8,7.0382081 9.8,7.0382081 L0.2,2.8382081 C0.5,4.1382081 1.5,5.5382081 2.7,6.1382081 L6.8,8.1382081 L6.8,8.1382081 L7.2,8.3382081 C7.2,8.3382081 7.2,8.5382081 7.2,8.7382081 C7.2,8.7382081 7.2,8.7382081 7.2,8.8382081 C7.2,8.8382081 7.2,8.9382081 7.2,8.9382081 C7.2,8.9382081 7.2,8.9382081 7.2,9.0382081 C7.2,9.1382081 7.2,9.1382081 7.2,9.2382081 C7.2,9.2382081 7.2,9.2382081 7.2,9.3382081 C7.2,9.4382081 7.2,9.4382081 7.2,9.5382081 C7.2,9.5382081 7.2,9.6382081 7.2,9.6382081 C7.2,9.7382081 7.2,9.7382081 7.2,9.8382081 C7.2,9.8382081 7.2,9.9382081 7.2,9.9382081 C7.2,10.0382081 7.2,10.0382081 7.2,10.1382081 C7.2,10.1382081 7.2,10.2382081 7.2,10.2382081 C7.2,10.3382081 7.2,10.3382081 7.2,10.4382081 C7.2,10.4382081 7.2,10.5382081 7.2,10.5382081 C7.2,10.6382081 7.2,10.6382081 7.2,10.7382081 C7.2,10.7382081 7.2,10.8382081 7.2,10.8382081 C7.2,10.9382081 7.2,11.0382081 7.2,11.1382081 C7.2,11.1382081 7.2,11.1382081 7.2,11.1382081 C7.2,11.2382081 7.2,11.3382081 7.2,11.4382081 C7.2,11.4382081 7.2,11.5382081 7.2,11.5382081 C7.2,11.6382081 7.2,11.7382081 7.2,11.7382081 C7.2,11.7382081 7.2,11.8382081 7.2,11.8382081 C7.2,11.9382081 7.2,12.0382081 7.2,12.0382081 C7.2,12.1382081 7.2,12.1382081 7.2,12.1382081 C7.2,12.2382081 7.2,12.3382081 7.2,12.3382081 C7.2,12.4382081 7.2,12.4382081 7.2,12.4382081 C7.2,12.5382081 7.2,12.6382081 7.3,12.6382081 C7.3,12.6382081 7.3,12.7382081 7.3,12.7382081 C7.3,12.8382081 7.4,12.9382081 7.4,13.0382081 C7.4,13.0382081 7.4,13.1382081 7.4,13.1382081 C7.4,13.2382081 7.5,13.3382081 7.5,13.5382081 C7.5,13.5382081 7.5,13.6382081 7.5,13.6382081 C7.5,13.7382081 7.6,13.8382081 7.6,13.9382081 C7.6,13.9382081 7.6,14.0382081 7.7,14.0382081 C7.7,14.1382081 7.8,14.2382081 7.8,14.2382081 C7.8,14.3382081 7.8,14.3382081 7.9,14.3382081 C7.9,14.4382081 8,14.4382081 8,14.5382081 C8,14.5382081 8,14.6382081 8.1,14.6382081 C8.1,14.7382081 8.2,14.7382081 8.2,14.8382081 C8.2,14.8382081 8.2,14.9382081 8.3,14.9382081 C8.3,15.0382081 8.4,15.1382081 8.4,15.1382081 C8.4,15.1382081 8.4,15.2382081 8.5,15.2382081 C8.6,15.3382081 8.6,15.4382081 8.7,15.5382081 C8.7,15.5382081 8.7,15.5382081 8.8,15.6382081 C8.9,15.7382081 8.9,15.8382081 9,15.8382081 C9,15.8382081 9.1,15.9382081 9.1,15.9382081 C9.2,16.0382081 9.2,16.0382081 9.3,16.1382081 C9.3,16.1382081 9.4,16.2382081 9.4,16.2382081 C9.5,16.3382081 9.5,16.3382081 9.6,16.4382081 C9.6,16.4382081 9.7,16.5382081 9.7,16.5382081 C9.8,16.6382081 9.8,16.6382081 9.9,16.6382081 C9.9,16.6382081 10,16.7382081 10,16.7382081 C10.1,16.8382081 10.1,16.8382081 10.2,16.8382081 C10.2,16.8382081 10.3,16.8382081 10.3,16.9382081 C10.4,17.0382081 10.5,17.0382081 10.7,17.1382081 C11.2,17.3382081 11.6,17.5382081 12,17.6382081 L12.1,17.7382081 C12.4,17.8382081 12.6,17.9382081 12.9,18.0382081 L13.4,18.2382081 C14.9,18.8382081 14.9,18.8382081 14.9,18.8382081 L16,22.4382081 C16.1,22.6382081 16.3,22.8382081 16.5,22.8382081 L19,22.8382081 L17.5,16.5382081 L15.5,16.3382081 Z" fill="#F6906B"></path>
                            </g>
                            <g transform="translate(12.200000, 20.007688)">
                                <path d="M14.7,4.53051975 L3.8,6.23051975 C2.6,6.43051975 1.4,5.63051975 1.2,4.33051975 L1.2,4.33051975 C1,3.13051975 1.8,1.93051975 3.1,1.73051975 L14,0.030519746 C15.2,-0.169480254 16.4,0.630519746 16.6,1.93051975 L16.6,1.93051975 C16.8,3.13051975 16,4.33051975 14.7,4.53051975 Z" fill="#F1E8E1"></path>
                                <path d="M8.6,5.43051975 L3.8,6.23051975 C2.6,6.43051975 1.4,5.63051975 1.2,4.33051975 L1.2,4.33051975 C1,3.13051975 1.8,1.93051975 3.1,1.73051975 L7.9,0.930519746 C9.1,0.730519746 10.3,1.53051975 10.5,2.83051975 L10.5,2.83051975 C10.6,4.13051975 9.8,5.23051975 8.6,5.43051975 Z" fill="#DDD3D2"></path>
                                <polygon fill="#01387B" points="21.8 27.3305197 17.8 2.63051975 -2.84217094e-14 5.43051975 3.6 27.3305197"></polygon>
                                <path d="M14.5,27.3305197 L11.1,6.93051975 C10.8,5.23051975 9.2,4.03051975 7.5,4.23051975 L0.1,5.43051975 L3.7,27.3305197 L14.5,27.3305197 Z" fill="#042F5B"></path>
                            </g>
                        </g>
                        <path d="M27.3,34.4 L17.4,52.5 L23.7,52.5 C25.2,47.9 27.8,40 28.5,38 C29.5,35.1 27.3,34.4 27.3,34.4 Z" id="Path" fill="#2F2D4F" fill-rule="nonzero" opacity="0.22"></path>
                        <g transform="translate(0.000000, 32.821298)" fill-rule="nonzero" id="Path">
                            <g transform="translate(5.390365, -0.000000)">
                                <path d="M0.909634677,29.0787018 L1.40963468,25.6787018 C1.50963468,25.1787018 1.40963468,24.6787018 1.10963468,24.2787018 C0.609634677,23.4787018 -0.0903653233,22.0787018 0.00963467666,20.6787018 C0.209634677,18.5787018 3.20963468,11.9787018 3.20963468,11.9787018 C3.20963468,11.9787018 3.90963468,10.3787018 5.70963468,10.3787018 C6.80963468,10.3787018 9.40963468,11.0787018 11.1096347,11.5787018 C12.1096347,11.8787018 13.2096347,11.3787018 13.7096347,10.4787018 L18.5096347,1.17870181 C19.1096347,0.0787018073 20.5096347,-0.321298193 21.6096347,0.278701807 L21.6096347,0.278701807 C22.5096347,0.778701807 22.9096347,1.87870181 22.6096347,2.87870181 L17.5096347,19.1787018 C17.3096347,19.8787018 17.4096347,20.6787018 17.9096347,21.2787018 C18.4096347,21.8787018 19.0096347,22.8787018 18.8096347,24.1787018 C18.6096347,25.7787018 15.7096347,27.4787018 14.3096347,28.2787018 C13.7096347,28.5787018 13.3096347,29.0787018 13.2096347,29.6787018 L12.7096347,31.8787018 C12.4096347,33.0787018 11.2096347,33.7787018 10.0096347,33.4787018 L2.60963468,31.4787018 C1.50963468,31.2787018 0.809634677,30.2787018 0.909634677,29.0787018 Z" fill="#F6B381"></path>
                                <path d="M18.9096347,24.1787018 C19.0096347,23.3787018 18.8096347,22.6787018 18.5096347,22.1787018 C16.0096347,26.4787018 9.50963468,26.8787018 9.50963468,26.8787018 L8.20963468,32.4787018 L8.10963468,33.0787018 L10.0096347,33.5787018 C11.2096347,33.8787018 12.4096347,33.1787018 12.7096347,31.9787018 L13.2096347,29.7787018 C13.4096347,29.1787018 13.8096347,28.6787018 14.3096347,28.3787018 C15.8096347,27.4787018 18.7096347,25.7787018 18.9096347,24.1787018 Z" fill="#F6906B"></path>
                            </g>
                            <g transform="translate(0.000000, 29.348182)">
                                <path d="M6.2,4.53051975 L17.1,6.23051975 C18.3,6.43051975 19.5,5.63051975 19.7,4.33051975 L19.7,4.33051975 C19.9,3.13051975 19.1,1.93051975 17.8,1.73051975 L6.9,0.030519746 C5.7,-0.169480254 4.5,0.630519746 4.3,1.93051975 L4.3,1.93051975 C4.2,3.23051975 5,4.33051975 6.2,4.53051975 Z" fill="#F1E8E1"></path>
                                <path d="M12.4,5.53051975 L17.2,6.33051975 C18.4,6.53051975 19.6,5.73051975 19.8,4.43051975 L19.8,4.43051975 C20,3.23051975 19.2,2.03051975 17.9,1.83051975 L13.1,1.03051975 C11.9,0.830519746 10.7,1.63051975 10.5,2.93051975 L10.5,2.93051975 C10.3,4.23051975 11.2,5.33051975 12.4,5.53051975 Z" fill="#DDD3D2"></path>
                                <polygon fill="#01387B" points="18.2 22.1305197 20.9 5.53051975 3.2 2.73051975 0 22.1305197"></polygon>
                                <path d="M18.2,22.1305197 L20.9,5.53051975 L13.5,4.33051975 C11.8,4.03051975 10.1,5.23051975 9.8,7.03051975 L7.3,22.1305197 L18.2,22.1305197 L18.2,22.1305197 Z" fill="#042F5B"></path>
                            </g>
                        </g>
                    </g>
                </g>
            </g>
        </g>
    </g>
</svg>