<?xml version="1.0" encoding="UTF-8"?>
<svg width="31px" height="40px" viewBox="0 0 31 40" version="1.1" xmlns="http://www.w3.org/2000/svg" xmlns:xlink="http://www.w3.org/1999/xlink">
    <title>splash@2x</title>
    <defs>
        <filter id="filter-1">
            <feColorMatrix in="SourceGraphic" type="matrix" values="0 0 0 0 0.000000 0 0 0 0 0.517647 0 0 0 0 0.403922 0 0 0 1.000000 0"></feColorMatrix>
        </filter>
    </defs>
    <g id="WEB-RED-SALUD-GLOBAL" stroke="none" stroke-width="1" fill="none" fill-rule="evenodd">
        <g id="splash" transform="translate(-563.000000, -750.000000)" filter="url(#filter-1)">
            <g transform="translate(578.500000, 770.000000) scale(-1, 1) translate(-578.500000, -770.000000) translate(563.000000, 750.000000)">
                <path d="M0.000383753732,36.2993795 C0.333865746,34.5705223 1.05302024,33.019613 2.20811897,31.6899883 C4.47111473,29.0851971 7.44482239,28.04934 10.7900037,28.0017849 C14.0192913,27.9561474 17.0659122,28.7879778 19.9471352,30.2303541 C20.2004127,30.3572955 20.4652028,30.4945916 20.6620684,30.6897975 C20.8309201,30.8570073 21.0262507,31.1319831 20.9970854,31.327189 C20.9679201,31.5204774 20.701595,31.7555683 20.4893792,31.8311195 C19.5330649,32.1709082 18.5602492,32.4669769 17.5901198,32.7672643 C15.4568328,33.4280498 13.49777,34.4554696 11.6024103,35.6121319 C9.81488544,36.7032142 8.04808326,37.8284288 6.24942952,38.9011027 C5.62544595,39.2731061 4.95924947,39.6136619 4.26849276,39.8265092 C2.31288374,40.4290014 0.616692247,39.421524 0.121649933,37.4364829 C0.0874958508,37.2999538 0.0406778955,37.1664928 0,37.0318812 C0.000383753732,36.7879697 0.000383753732,36.5436746 0.000383753732,36.2993795 Z" id="Path" fill="#000000" fill-rule="nonzero"></path>
                <path d="M12,7.2769403 C12.088158,5.55973251 12.292332,3.90124866 13.1129067,2.38826554 C13.6943969,1.31627305 14.4895822,0.515832043 15.6264678,0.149648984 C17.2186015,-0.362782876 18.9778827,0.459726365 19.7709521,2.3265493 C20.2692212,3.49953201 20.5816532,4.80604623 20.7442166,6.08600377 C21.0957907,8.85463197 21.2999646,11.6442063 21.5602071,14.4259258 C21.8842759,17.8913865 22.3388186,21.3213136 23.8914575,24.4677201 C23.987726,24.6633419 24.007826,24.9244203 23.9975997,25.1518353 C23.9623365,25.9309562 23.5130833,26.2054999 22.8543667,25.840439 C22.4245082,25.6021769 21.9999392,25.3399764 21.612044,25.0328913 C16.9752854,21.363954 13.9500552,16.522782 12.4305637,10.6283195 C12.152337,9.55034237 12.1364686,8.39606156 12,7.2769403 Z" id="Path" fill="#000000" fill-rule="nonzero"></path>
                <path d="M1,17.3401323 C1.12558453,14.736761 3.1950814,13.3012894 5.52823014,14.3405708 C6.38954331,14.7241289 7.18995556,15.3350656 7.88899234,15.9846643 C9.1576987,17.1640478 10.3386472,18.4414262 11.5396438,19.693923 C12.6850353,20.8886182 13.8171874,22.0963283 14.9368567,23.315905 C15.2617877,23.6696052 15.5734795,24.0546944 15.8038438,24.4742349 C16.2789468,25.3404942 15.8598273,26.0586128 14.8831428,25.9962176 C14.0679782,25.9437751 13.2539483,25.7768776 12.4535361,25.5969651 C9.55487869,24.9446868 6.81017583,23.8977495 4.30378097,22.2586323 C3.168981,21.5163978 2.2218013,20.586595 1.65061865,19.3386916 C1.36124466,18.7063185 1.21220759,18.0084879 1,17.3401323 Z" id="Path" fill="#000000" fill-rule="nonzero"></path>
                <path d="M28.4319255,27.0001115 C29.8444677,26.9870387 30.9968415,28.1247522 31,29.535502 C31.0031444,30.8883577 29.946364,31.9902142 28.6364185,31.9999255 C27.1885102,32.0103838 26.0256316,30.9189856 26.0004201,29.5265378 C25.9755588,28.1367045 27.0572005,27.0128109 28.4319255,27.0001115 Z" id="Path" fill="#000000" fill-rule="nonzero"></path>
            </g>
        </g>
    </g>
</svg>