<?xml version="1.0" encoding="UTF-8"?>
<svg width="17px" height="12px" viewBox="0 0 17 12" version="1.1" xmlns="http://www.w3.org/2000/svg" xmlns:xlink="http://www.w3.org/1999/xlink">
    <title>check</title>
    <g id="WEB-RED-SALUD-GLOBAL" stroke="none" stroke-width="1" fill="none" fill-rule="evenodd">
        <g id="inicio-2-propuesta" transform="translate(-521.000000, -6776.000000)" fill="#84D1FF" fill-rule="nonzero">
            <g id="check" transform="translate(521.000000, 6776.000000)">
                <path d="M6.5086517,7.05685362 C6.79748404,6.77141931 7.05591297,6.51603072 7.32954361,6.26064212 C9.26015976,4.38278482 11.1907759,2.48990465 13.1365938,0.612047349 C13.7446618,0.0261558696 14.4743435,-0.139095573 15.2800337,0.11629302 C16.085724,0.386704472 16.5569767,0.957573093 16.6785903,1.78383031 C16.7698005,2.45985894 16.5721784,3.04575042 16.085724,3.52648189 C14.960798,4.62315055 13.8358721,5.71981922 12.7109461,6.81648789 C11.1755742,8.30375087 9.64020231,9.80603672 8.12003211,11.2932997 C7.73998956,11.6688712 7.3143419,11.9242598 6.76708063,11.9843512 C6.09820574,12.0594655 5.52054107,11.8641683 5.04928831,11.3984597 C4.12198448,10.4970882 3.19468066,9.58069384 2.28257854,8.66429947 C1.72011557,8.10845371 1.1728543,7.56763081 0.610391324,7.01178504 C0.0023232441,6.41087071 -0.164895478,5.52452206 0.169541966,4.75835628 C0.50397941,3.97716764 1.27926621,3.48141331 2.13056152,3.49643617 C2.7082262,3.51145903 3.20988236,3.7368019 3.62032832,4.14241908 C4.56283384,5.07383631 5.50533937,6.00525353 6.43264319,6.92164789 C6.44784489,6.96671647 6.47824829,7.01178504 6.5086517,7.05685362 Z" id="Path"></path>
            </g>
        </g>
    </g>
</svg>