<?xml version="1.0" encoding="UTF-8"?>
<svg width="19px" height="19px" viewBox="0 0 19 19" version="1.1" xmlns="http://www.w3.org/2000/svg" xmlns:xlink="http://www.w3.org/1999/xlink">
    <title>cruz icono</title>
    <g id="WEB-RED-SALUD-GLOBAL" stroke="none" stroke-width="1" fill="none" fill-rule="evenodd">
        <g id="inicio-2-propuesta" transform="translate(-987.000000, -6792.000000)" fill="#FFFFFF">
            <path d="M1000.35938,6797.64062 L1004.21875,6797.64062 C1005.20251,6797.64062 1006,6798.43812 1006,6799.42188 L1006,6803.57812 C1006,6804.56188 1005.20251,6805.35938 1004.21875,6805.35938 L1000.35938,6805.35938 L1000.35938,6809.21875 C1000.35938,6810.20251 999.561882,6811 998.578125,6811 L994.421875,6811 C993.438118,6811 992.640625,6810.20251 992.640625,6809.21875 L992.640625,6805.35938 L988.78125,6805.35938 C987.797493,6805.35938 987,6804.56188 987,6803.57812 L987,6799.42188 C987,6798.43812 987.797493,6797.64062 988.78125,6797.64062 L992.640625,6797.64062 L992.640625,6793.78125 C992.640625,6792.79749 993.438118,6792 994.421875,6792 L998.578125,6792 C999.561882,6792 1000.35938,6792.79749 1000.35938,6793.78125 L1000.35938,6797.64062 Z" id="cruz-icono"></path>
        </g>
    </g>
</svg>