<?xml version="1.0" encoding="UTF-8"?>
<svg width="42px" height="42px" viewBox="0 0 42 42" version="1.1" xmlns="http://www.w3.org/2000/svg" xmlns:xlink="http://www.w3.org/1999/xlink">
    <!-- Generator: Sketch 64 (93537) - https://sketch.com -->
    <title>icono linkedin</title>
    <desc>Created with Sketch.</desc>
    <g id="Page-1" stroke="none" stroke-width="1" fill="none" fill-rule="evenodd">
        <g id="inicio-2-propuesta" transform="translate(-734.000000, -6597.000000)">
            <g id="icono-linkedin" transform="translate(734.000000, 6597.000000)">
                <rect stroke="#FFFFFF" x="0.5" y="0.5" width="41" height="41" rx="9"></rect>
                <g transform="translate(11.000000, 11.000000)" fill="#FFFFFF" fill-rule="nonzero" id="Path">
                    <path d="M19.994464,20 C18.4940325,20 17.1207562,20 15.6443429,20 C15.6443429,18.5722028 15.6471686,17.1897325 15.6429301,15.8058458 C15.6401044,14.5933514 15.669774,13.3794405 15.6146734,12.1683625 C15.5440316,10.5975023 14.7429538,9.74903949 13.460099,9.78020173 C12.1631158,9.81278043 11.181195,10.8666307 11.1656538,12.3255902 C11.1402228,14.7208332 11.1585896,17.1174928 11.155764,19.5127359 C11.155764,19.6557989 11.1317457,19.7988619 11.1147917,19.9915012 C9.71608439,19.9915012 8.34845945,19.9915012 6.93421093,19.9915012 C6.93421093,15.5607973 6.93421093,11.1640885 6.93421093,6.69938936 C8.30466155,6.69938936 9.67369932,6.69938936 11.1416356,6.69938936 C11.1416356,7.21073339 11.1416356,7.71782802 11.1416356,8.45580652 C12.1164922,7.23198037 13.1139542,6.47275488 14.499946,6.37218584 C17.3524613,6.16679835 19.3657521,7.70366337 19.8093825,10.5337613 C19.9633816,11.5210378 19.9746843,12.535227 19.985987,13.5380846 C20.011418,15.6656157 19.994464,17.7903139 19.994464,20 Z"></path>
                    <path d="M0.0734808565,6.6937235 C1.43404162,6.6937235 2.80873074,6.6937235 4.26677716,6.6937235 C4.26677716,11.1031805 4.26677716,15.5140539 4.26677716,19.9872518 C2.89350088,19.9872518 1.52163743,19.9872518 0.0734808565,19.9872518 C0.0734808565,15.5877101 0.0734808565,11.1711708 0.0734808565,6.6937235 Z"></path>
                    <path d="M4.62281176,2.32817696 C4.63411444,3.66673681 3.71577125,4.60585341 2.37075168,4.63559919 C1.01725509,4.66534496 0.00425190801,3.68231793 0,2.33525928 C-0.00422510609,1.06044037 0.997475393,0.0349193813 2.27891736,0.00092421031 C3.61828559,-0.0344874261 4.61150907,0.951372532 4.62281176,2.32817696 Z"></path>
                </g>
            </g>
        </g>
    </g>
</svg>