<?xml version="1.0" encoding="UTF-8"?>
<svg width="19px" height="19px" viewBox="0 0 19 19" version="1.1" xmlns="http://www.w3.org/2000/svg" xmlns:xlink="http://www.w3.org/1999/xlink">
    <!-- Generator: Sketch 64 (93537) - https://sketch.com -->
    <title>icono web</title>
    <desc>Created with Sketch.</desc>
    <g id="Page-1" stroke="none" stroke-width="1" fill="none" fill-rule="evenodd">
        <g id="inicio-2-propuesta" transform="translate(-250.000000, -6872.000000)" fill="#84D1FF" fill-rule="nonzero">
            <g id="icono-web" transform="translate(250.000000, 6872.000000)">
                <path d="M6.70068014,14.997506 C6.99417851,15.5042472 7.25718354,15.9585998 7.52018857,16.4129523 C7.75365318,16.8158687 7.99092946,17.2168801 8.21677074,17.6236066 C8.362567,17.8865024 8.55791494,18.0636713 8.87523623,18.0379532 C9.18207543,18.0122352 9.34216545,17.8131583 9.45079796,17.5407372 C10.9792765,13.6992198 12.5115667,9.85865489 14.0429039,6.01904249 C14.0924556,5.89330971 14.1458189,5.76948197 14.1934648,5.64374919 C14.2925681,5.3818059 14.2696981,5.13605547 14.064821,4.93221596 C13.8599439,4.72837645 13.6121855,4.70646847 13.3520393,4.80934074 C12.0732249,5.31798699 10.7963165,5.8294908 9.51845506,6.33908957 C6.83122974,7.41067576 4.14305151,8.48130943 1.45487327,9.55384815 C1.03558989,9.72149186 0.845006536,10.0596368 1.00890822,10.4044495 C1.0756124,10.5454226 1.21092658,10.677823 1.3481466,10.7587873 C2.16574919,11.2455256 2.99288096,11.716071 3.81620105,12.1923315 C3.86194106,12.2190021 3.90482231,12.2485302 3.96580899,12.2885361 C3.90768106,12.35045 3.86098814,12.4047437 3.81048355,12.4552273 C2.6317255,13.6354009 1.45106161,14.814622 0.272303552,15.9947956 C-0.0888519067,16.3567536 -0.0907577403,16.6891834 0.266586052,17.0473313 C0.829759868,17.6112238 1.39293368,18.1751163 1.95706042,18.7380562 C2.30678087,19.0866789 2.64601925,19.0876314 2.99478679,18.7390087 C4.17545068,17.5597877 5.35420873,16.3805666 6.53296679,15.200393 C6.58537721,15.1470518 6.62825847,15.0860905 6.70068014,14.997506 Z" id="Path"></path>
                <path d="M12.1008595,1.62982544 C12.1008595,1.9536826 12.0980008,2.27658724 12.1018124,2.6004444 C12.106577,2.9757377 12.3791112,3.25196881 12.7326433,3.2472062 C13.0795051,3.2424436 13.3463218,2.9709751 13.3482276,2.60520701 C13.3529922,1.95177756 13.3520393,1.29834811 13.3482276,0.643966145 C13.3453688,0.265815283 13.0737876,-0.00470069784 12.7164438,6.19074641e-05 C12.3638646,0.00482451277 12.106577,0.269625368 12.1018124,0.639203539 C12.0980008,0.969728348 12.1008595,1.29930063 12.1008595,1.62982544 Z" id="Path"></path>
                <path d="M17.3943122,6.89917195 C17.717351,6.89917195 18.0413427,6.90298204 18.3643815,6.89821943 C18.7331603,6.89345683 18.9971183,6.63246606 19,6.28003326 C19.0028358,5.92855299 18.7388778,5.65517945 18.3739107,5.65232188 C17.7135394,5.64660676 17.053168,5.64660676 16.3927967,5.65232188 C16.0278296,5.65517945 15.7572012,5.92474291 15.7543204,6.27146057 C15.7514837,6.62579841 16.0268767,6.89536187 16.4042317,6.89917195 C16.7339409,6.90202952 17.064603,6.89917195 17.3943122,6.89917195 Z" id="Path"></path>
                <path d="M10.2931764,4.11304785 C10.5780985,4.06256423 10.7734465,3.94540414 10.8763615,3.70632136 C10.984994,3.4548558 10.950689,3.21291545 10.756294,3.01288602 C10.4408785,2.68807634 10.1178397,2.37088683 9.79861259,2.05083975 C9.6461459,1.89843638 9.49653797,1.74127041 9.33835378,1.59362964 C9.06867834,1.3431166 8.69322912,1.34883173 8.44832951,1.60220233 C8.21391199,1.84414268 8.21105323,2.22515111 8.4588116,2.47852171 C8.92192915,2.95192468 9.38695254,3.42247008 9.86531676,3.87968019 C9.97966678,3.98731507 10.149286,4.03684616 10.2931764,4.11304785 Z" id="Path"></path>
                <path d="M15.5656649,8.03457706 C15.2969424,8.07077286 15.1044532,8.18412286 14.9958207,8.40987036 C14.8843294,8.64038045 14.8881411,8.88708341 15.0672895,9.07377753 C15.5628062,9.59004395 16.0678521,10.0977377 16.5862388,10.5901911 C16.8197034,10.8121285 17.2084935,10.7606923 17.4267114,10.5216095 C17.6525527,10.2758591 17.6525527,9.91390111 17.4067001,9.66148303 C16.9778876,9.2214183 16.5395459,8.79087878 16.1050158,8.35557665 C16.05737,8.3079506 16.0154417,8.2488943 15.9582666,8.2174611 C15.8315287,8.14983211 15.6971674,8.09458588 15.5656649,8.03457706 Z" id="Path"></path>
                <path d="M16.6510371,1.66506872 C16.5071467,1.74222293 16.3375275,1.79175402 16.2241304,1.90034142 C15.7505308,2.35278893 15.290272,2.81952425 14.831919,3.28625957 C14.5717727,3.55106042 14.5698669,3.92730624 14.8119078,4.17686676 C15.060619,4.43118988 15.4455974,4.4321424 15.7162258,4.16543651 C16.183155,3.70632136 16.6443667,3.24149108 17.1065314,2.7766608 C17.3028322,2.57853642 17.3428547,2.34135868 17.2447043,2.08608303 C17.1522714,1.84700024 16.9340534,1.70888469 16.6510371,1.66506872 Z" id="Path"></path>
            </g>
        </g>
    </g>
</svg>