<?xml version="1.0" encoding="UTF-8"?>
<svg width="42px" height="42px" viewBox="0 0 42 42" version="1.1" xmlns="http://www.w3.org/2000/svg" xmlns:xlink="http://www.w3.org/1999/xlink">
    <!-- Generator: Sketch 64 (93537) - https://sketch.com -->
    <title>icono instagram</title>
    <desc>Created with Sketch.</desc>
    <g id="Page-1" stroke="none" stroke-width="1" fill="none" fill-rule="evenodd">
        <g id="inicio-2-propuesta" transform="translate(-594.000000, -6597.000000)">
            <g id="icono-instagram" transform="translate(594.000000, 6597.000000)">
                <rect id="Rectangle" stroke="#FFFFFF" x="0.5" y="0.5" width="41" height="41" rx="9"></rect>
                <g transform="translate(11.000000, 12.000000)" fill="#FFFFFF" fill-rule="nonzero">
                    <path d="M20,9.98642652 C19.9698437,11.5059812 19.9768029,13.0266985 19.9002524,14.5427652 C19.7773076,16.9633565 18.0584009,19.058412 15.7363691,19.7222725 C15.0694518,19.9129435 14.3886163,19.9431718 13.7031414,19.958286 C10.9971972,20.0187426 8.29241282,20.0152547 5.58762846,19.936196 C2.9199595,19.8571373 0.560812248,17.7841718 0.138624639,15.1415186 C0.0841114032,14.8008686 0.0609142818,14.4520803 0.0504755771,14.1067798 C-0.0260749236,11.3455385 -0.00519751427,8.58429728 0.0446762968,5.82305604 C0.09686982,2.92229944 2.08602298,0.557514309 4.93810906,0.0913005239 C5.49368012,0.000615548178 6.06896873,0.00177817607 6.63497849,0.00177817607 C9.22261739,0.00177817607 11.8114161,-0.0110107308 14.3978952,0.0320065013 C17.0203298,0.0750237334 19.3690383,2.13636299 19.8179026,4.72786056 C19.879375,5.08129944 19.9234495,5.44403934 19.9269291,5.80212874 C19.9396875,7.19611958 19.9315685,8.59127305 19.9315685,9.9852639 C19.9547656,9.98642652 19.9779627,9.98642652 20,9.98642652 Z M9.97188441,18.1503996 C11.4182249,18.1236591 12.8657253,18.1294723 14.3097461,18.0643651 C16.4148849,17.9690296 18.0236053,16.3099596 18.0618805,14.2009526 C18.0989959,12.1686791 18.0989959,10.1352429 18.100157,8.10296934 C18.100157,7.20890849 18.1013156,6.31135975 18.0317242,5.41962416 C17.8855824,3.54430537 16.2931,2.00266078 14.4245719,1.90151215 C13.657907,1.85965755 12.8889224,1.85268178 12.1210977,1.85500704 C9.92780988,1.86198281 7.73336219,1.84221813 5.54239407,1.90965055 C3.59499573,1.9701072 1.94915997,3.7000975 1.92364313,5.65680025 C1.89116716,8.1680765 1.89696644,10.6793527 1.89580659,13.190629 C1.89580659,13.7103237 1.90160587,14.2335062 1.96655781,14.7473877 C2.19272974,16.5064437 3.762015,17.977168 5.53079551,18.0550641 C7.009612,18.1201713 8.49074821,18.1213339 9.97188441,18.1503996 Z" id="Shape"></path>
                    <path d="M4.85225171,9.97014973 C4.86155856,7.12287402 7.16851229,4.81738291 9.99740124,4.82549983 C12.8402085,4.83482233 15.1402031,7.16124074 15.1251986,10.0108417 C15.1100468,12.8395154 12.7926544,15.1450065 9.97652383,15.1345783 C7.14067574,15.1252418 4.84300086,12.809287 4.85225171,9.97014973 Z M6.71384871,10.072461 C6.79735834,11.9303404 8.30401138,13.3417706 10.1191861,13.2638746 C11.957558,13.1859785 13.343586,11.6385208 13.2542771,9.7643646 C13.1719273,8.02507327 11.61888,6.62410666 9.85357909,6.69735221 C8.06972045,6.7717604 6.63497849,8.31340499 6.71384871,10.072461 Z" id="Shape"></path>
                    <path d="M14.0023823,4.7336737 C14.0035441,4.09306573 14.5324385,3.56872055 15.1680396,3.57685895 C15.7966816,3.58499734 16.3139774,4.10585464 16.3163143,4.73483633 C16.3197767,5.37195642 15.793202,5.90095211 15.156441,5.89979139 C14.5173604,5.89979139 14.0012244,5.37776955 14.0023823,4.7336737 Z" id="Path"></path>
                </g>
            </g>
        </g>
    </g>
</svg>