<?xml version="1.0" encoding="UTF-8"?>
<svg width="19px" height="19px" viewBox="0 0 19 19" version="1.1" xmlns="http://www.w3.org/2000/svg" xmlns:xlink="http://www.w3.org/1999/xlink">
    <!-- Generator: Sketch 64 (93537) - https://sketch.com -->
    <title>icono whatsapp</title>
    <desc>Created with Sketch.</desc>
    <g id="Page-1" stroke="none" stroke-width="1" fill="none" fill-rule="evenodd">
        <g id="inicio-2-propuesta" transform="translate(-250.000000, -6772.000000)" fill="#84D1FF" fill-rule="nonzero">
            <g id="icono-whatsapp" transform="translate(250.000000, 6772.000000)">
                <path d="M0,19 C0.368783103,17.9105545 0.723408171,16.8642286 1.07803324,15.817229 C1.24927804,15.3125941 1.41512931,14.8066116 1.59581281,14.3053454 C1.65716429,14.1348879 1.64705141,14.0008127 1.55468709,13.8384402 C-0.420695898,10.3457465 0.00471934501,6.04927516 2.72373626,3.11646353 C5.31465667,0.321095856 8.56021766,-0.62484201 12.2143391,0.404640226 C15.8987991,1.44288115 18.158017,3.97885702 18.8531091,7.74913359 C19.7666395,12.7065487 16.3181467,17.5056338 11.3176635,18.3767859 C9.22766788,18.741282 7.23947525,18.4293381 5.34499532,17.4800315 C5.22836008,17.4214157 5.05374431,17.409962 4.92834458,17.4490392 C3.37770264,17.9294193 1.83178006,18.4239481 0.284509085,18.9144344 C0.205628604,18.939363 0.126748123,18.9615965 0,19 Z M2.3259629,16.7281321 C2.48642063,16.68097 2.58889783,16.6526727 2.68935246,16.6210067 C3.51456365,16.3595937 4.33775226,16.0927907 5.1663344,15.8421576 C5.26746322,15.811839 5.4151113,15.8307039 5.50612724,15.8852772 C7.30015254,16.9625954 9.22160015,17.2940779 11.2724927,16.8958946 C15.5138354,16.0725783 18.3211715,11.7296186 17.3206704,7.53892518 C16.3464627,3.4580522 12.4267096,0.863460516 8.26357311,1.61940232 C2.71429757,2.62732472 -0.00809030573,8.88506753 3.14375797,13.5925233 C3.27050609,13.7818456 3.28533832,13.9320907 3.21117718,14.1402779 C2.91318426,14.9777428 2.63339452,15.822619 2.3259629,16.7281321 Z" id="Shape"></path>
                <path d="M5.10565711,7.11446588 C5.13666995,6.45756458 5.38746943,5.90442 5.83041366,5.42673486 C6.17222908,5.05819638 6.61652171,5.01372922 7.06957883,5.03192033 C7.17812376,5.0359628 7.32779442,5.17205928 7.37903302,5.28390093 C7.67095822,5.92732733 7.94468023,6.57883867 8.20761517,7.23506622 C8.24469573,7.32669553 8.22109901,7.47896188 8.16581525,7.56452748 C7.99996399,7.8212243 7.81725791,8.07050992 7.61702285,8.30093068 C7.46128446,8.47947308 7.4410587,8.63241318 7.56511005,8.83723164 C8.31346333,10.0789435 9.35778696,10.9669393 10.7068454,11.5005453 C10.8875289,11.5719623 11.0304577,11.5443387 11.1518123,11.3967886 C11.3796892,11.1205532 11.6190274,10.8530764 11.8307238,10.5653874 C11.9723041,10.3726963 12.1287167,10.3026268 12.3431098,10.4023411 C12.9761762,10.6974414 13.6126136,10.9884992 14.2328704,11.3092017 C14.3286056,11.3583851 14.3987216,11.5551186 14.3961001,11.6824564 C14.3751249,12.6816201 13.8445357,13.2307223 12.7644799,13.5460349 C12.2547906,13.6949325 11.7673497,13.5918495 11.2691217,13.4597955 C9.08743591,12.8823961 7.43836193,11.5867847 6.17425166,9.75217724 C5.74209449,9.12559446 5.3213986,8.49699045 5.17577309,7.73296371 C5.13532156,7.52949275 5.12723126,7.32063182 5.10565711,7.11446588 Z" id="Path"></path>
            </g>
        </g>
    </g>
</svg>