<?xml version="1.0" encoding="UTF-8"?>
<svg width="42px" height="42px" viewBox="0 0 42 42" version="1.1" xmlns="http://www.w3.org/2000/svg" xmlns:xlink="http://www.w3.org/1999/xlink">
    <!-- Generator: Sketch 64 (93537) - https://sketch.com -->
    <title>icono facebook</title>
    <desc>Created with Sketch.</desc>
    <g id="Page-1" stroke="none" stroke-width="1" fill="none" fill-rule="evenodd">
        <g id="inicio-2-propuesta" transform="translate(-664.000000, -6597.000000)">
            <g id="icono-facebook" transform="translate(664.000000, 6597.000000)">
                <path d="M18.039694,31.845803 C18.039694,28.4785919 18.039694,25.1324084 18.039694,21.75959 C17.3738218,21.75959 16.7275752,21.75959 16.0631047,21.75959 C16.0631047,20.6479338 16.0631047,19.5629124 16.0631047,18.4484524 C16.7065476,18.4484524 17.3527942,18.4484524 18.0410959,18.4484524 C18.0410959,18.3264927 18.0410959,18.2353733 18.0410959,18.1428521 C18.0410959,17.4138972 18.014461,16.6821386 18.0509087,15.9545855 C18.0761418,15.4583354 18.1364208,14.9508706 18.2766044,14.4770499 C18.6817351,13.1088576 19.6055453,12.1990657 21.0157927,12.0210325 C22.3573502,11.8514103 23.7269443,11.8962691 25.1035477,11.845803 C25.1035477,12.9742813 25.1035477,14.0228549 25.1035477,15.1064744 C24.8470116,15.1064744 24.5960829,15.1064744 24.3437524,15.1064744 C23.8867537,15.1064744 23.429755,15.0994653 22.9727564,15.1092781 C22.4512732,15.119091 22.0433388,15.4176821 22.0167039,15.9083249 C21.973247,16.738212 22.0040874,17.5723047 22.0040874,18.4358359 C23.0400445,18.4358359 24.0802071,18.4358359 25.1582193,18.4358359 C25.0432687,19.557305 24.9325237,20.6437282 24.8189749,21.7497772 C23.8643243,21.7497772 22.9363086,21.7497772 21.9746488,21.7497772 C21.9746488,25.1239974 21.9746488,28.4757882 21.9746488,31.845803 C20.6569226,31.845803 19.368635,31.845803 18.039694,31.845803 Z" fill="#FFFFFF" fill-rule="nonzero"></path>
                <rect id="Rectangle-Copy-40" stroke="#FFFFFF" x="0.5" y="0.5" width="41" height="41" rx="9"></rect>
            </g>
        </g>
    </g>
</svg>