<?xml version="1.0" encoding="UTF-8"?>
<svg width="19px" height="19px" viewBox="0 0 19 19" version="1.1" xmlns="http://www.w3.org/2000/svg" xmlns:xlink="http://www.w3.org/1999/xlink">
    <!-- Generator: Sketch 64 (93537) - https://sketch.com -->
    <title>icono correo</title>
    <desc>Created with Sketch.</desc>
    <g id="Page-1" stroke="none" stroke-width="1" fill="none" fill-rule="evenodd">
        <g id="inicio-2-propuesta" transform="translate(-250.000000, -6838.000000)" fill="#84D1FF" fill-rule="nonzero">
            <g id="icono-correo" transform="translate(250.000000, 6838.000000)">
                <path d="M18.2880388,18.7842218 C18.0507773,18.8533362 17.8175601,18.947704 17.5749063,18.9822613 C17.340341,19.0168185 17.0963391,18.990236 16.8577295,18.990236 C11.8253596,18.990236 6.79433773,18.9915651 1.76196779,18.9862486 C1.54357938,18.9862486 1.31979867,18.9450458 1.10815064,18.8892226 C0.758998803,18.7961839 0.754954573,18.7509937 1.01782951,18.4904853 C2.43735417,17.0909176 3.8582269,15.6913499 5.27775156,14.2917821 C5.5635438,14.0100078 5.86012065,13.7362083 6.13243212,13.4411427 C6.29420131,13.2656983 6.40339552,13.2696857 6.56920894,13.4358262 C7.14079342,14.0100078 7.7177702,14.5775438 8.30687967,15.135776 C8.76252956,15.5677413 9.32602558,15.7006537 9.93131198,15.5677413 C10.2804638,15.4906521 10.6026541,15.3218534 10.8655291,15.0573577 C11.4209366,14.4991255 11.9925211,13.9568429 12.5425363,13.3932942 C12.7016094,13.229812 12.7932786,13.2563944 12.9375228,13.3999398 C14.4419763,14.8938754 15.950474,16.3824944 17.4616679,17.8697843 C17.7353274,18.1382674 18.0238158,18.3934593 18.3055638,18.6539676 C18.3001715,18.6991578 18.2934311,18.7416898 18.2880388,18.7842218 Z" id="Path"></path>
                <path d="M18.3352215,6.96963722 C18.1464908,6.79685108 18.0143793,6.91115576 17.8768754,7.05071379 C17.1233006,7.8162893 16.3670297,8.57920656 15.6094106,9.3407947 C15.5433549,9.40858003 15.4678626,9.46706149 15.3492318,9.5720623 C15.3357511,9.4178839 15.3209222,9.32617433 15.3209222,9.23446477 C15.3195741,8.43566115 15.351928,7.63552842 15.3087895,6.83938305 C15.2791318,6.27716354 15.1294953,5.72424789 14.5970051,5.38665036 C14.3368263,5.22183897 14.0685591,5.09424305 13.7301918,5.0969013 C10.9275406,5.10886341 8.12488933,5.11417991 5.32358616,5.0969013 C4.61719403,5.09291392 3.85687882,5.73488089 3.8353096,6.42070895 C3.80699999,7.36571621 3.81508845,8.31072348 3.80699999,9.25573075 C3.80565191,9.35940244 3.80699999,9.46440324 3.80699999,9.54282157 C2.86873868,8.61775116 1.92912929,7.69135163 0.992216054,6.76628122 C1.09197372,6.66128042 1.237566,6.47653216 1.41416403,6.32501201 C2.32411573,5.54614526 3.24080782,4.77658238 4.15480375,4.001703 C5.39907845,2.9450493 6.64335315,1.88839561 7.88627978,0.830412785 C8.31901236,0.462245396 8.75983341,0.106040125 9.34624673,0.0103431865 C9.47835824,-0.0109227998 9.61990628,0.0036975658 9.75336586,0.0262926763 C10.6754503,0.177812829 11.2106367,0.906172861 11.8698461,1.44048077 C12.6665594,2.0864351 13.4268746,2.77492141 14.2101071,3.43549611 C15.2063357,4.2768317 16.2120008,5.10753429 17.2109256,5.94621163 C17.5627736,6.24127719 17.9065331,6.54697574 18.2502927,6.85134517 C18.2853427,6.88191503 18.3028676,6.93242174 18.3284811,6.97362459 L18.3352215,6.96963722 Z" id="Path"></path>
                <path d="M0.470510411,7.15837285 C0.575660386,7.32318424 0.636323833,7.47204615 0.741473807,7.57837608 C2.38477918,9.23712301 4.03347686,10.8905535 5.68487069,12.5413256 C5.81428605,12.6702507 5.83855142,12.759302 5.6956553,12.9001892 C4.22085951,14.3422889 2.75280409,15.7910342 1.28205252,17.2371213 C1.00165259,17.51225 0.715860352,17.7820622 0.439504649,18.0611782 C0.295260453,18.2060528 0.206287398,18.1621917 0.168541253,17.9880764 C0.105181653,17.6890235 0.0108162911,17.3859832 0.0094682145,17.084272 C-0.00266447488,14.1269707 -0.00266447488,11.1696695 0.0067720613,8.21369742 C0.0067720613,7.79103594 0.144275874,7.40426082 0.470510411,7.15837285 Z" id="Path"></path>
                <path d="M18.3284811,6.97362459 C18.7099868,7.13311949 18.908154,7.43350155 18.9876906,7.81894755 C19.0079117,7.91331536 18.9971271,8.0143288 18.9971271,8.11135486 C18.9971271,11.2002394 18.9971271,14.2891239 18.9984752,17.3780084 C18.9984752,17.6571245 18.9917348,17.9309241 18.7733464,18.1821285 C18.7086387,18.1263053 18.6412349,18.0718112 18.5805714,18.0120006 C16.8779507,16.3359751 15.176678,14.6599495 13.4767534,12.9825949 C13.2206189,12.7300613 13.2206189,12.6795546 13.4740573,12.427021 C14.912455,11.0021999 16.3508527,9.5773788 17.7879024,8.15122859 C17.973937,7.96648033 18.1491869,7.77109908 18.3352215,7.58635082 C18.6331464,7.28862701 18.6344945,7.28995614 18.3352215,6.96697897 C18.3352215,6.96963722 18.3284811,6.97362459 18.3284811,6.97362459 Z" id="Path"></path>
            </g>
        </g>
    </g>
</svg>