<?xml version="1.0" encoding="UTF-8"?>
<svg width="42px" height="42px" viewBox="0 0 42 42" version="1.1" xmlns="http://www.w3.org/2000/svg" xmlns:xlink="http://www.w3.org/1999/xlink">
    <!-- Generator: Sketch 64 (93537) - https://sketch.com -->
    <title>icono youtube</title>
    <desc>Created with Sketch.</desc>
    <g id="Page-1" stroke="none" stroke-width="1" fill="none" fill-rule="evenodd">
        <g id="inicio-2-propuesta" transform="translate(-804.000000, -6597.000000)">
            <g id="icono-youtube" transform="translate(804.000000, 6597.000000)">
                <rect id="Rectangle-Copy-42" stroke="#FFFFFF" x="0.5" y="0.5" width="41" height="41" rx="9"></rect>
                <path d="M21.5892903,28.997094 C18.9973939,28.9261498 16.9005469,28.8793267 14.8051224,28.8069636 C14.2759317,28.7885181 13.7325155,28.7601404 13.2260857,28.6210898 C12.4308771,28.4025818 11.7964172,27.9499579 11.5190189,27.1099788 C11.1064777,25.8613612 11.0652236,24.5687583 11.0310823,23.2761553 C10.9869831,21.5380229 10.9571094,19.7970528 11.1790281,18.0688525 C11.2515784,17.5083935 11.4336655,16.9394212 11.6797677,16.4286231 C12.0482096,15.6652637 12.7580649,15.2793274 13.580302,15.2098021 C14.8933209,15.0991292 16.21203,15.0097395 17.5293165,15.0026451 C20.5266413,14.9856185 23.5253886,15.0097395 26.5227133,15.0480493 C27.2681325,15.0579815 28.0206644,15.1416957 28.7561257,15.272233 C29.5228832,15.4070269 30.1004408,15.8582319 30.4404316,16.576187 C30.7875352,17.3083309 30.9141426,18.0943924 30.9340584,18.8875484 C30.9795802,20.7179082 31.025102,22.5511058 30.9838479,24.3814657 C30.9653547,25.2115126 30.8174089,26.0585861 30.5883774,26.8574175 C30.2384287,28.0847518 29.3991209,28.6934529 28.1188208,28.7502083 C25.7801393,28.8552056 23.4371901,28.9289876 21.5892903,28.997094 Z M18.3359056,19.1500418 C18.3359056,21.0399948 18.3359056,22.8731924 18.3359056,24.7404432 C20.136861,23.8124933 21.9065203,22.9015701 23.7373494,21.9580125 C21.9093654,21.0073605 20.1411287,20.0879239 18.3359056,19.1500418 Z" fill="#FFFFFF" fill-rule="nonzero"></path>
            </g>
        </g>
    </g>
</svg>