<?xml version="1.0" encoding="UTF-8"?>
<svg width="19px" height="19px" viewBox="0 0 19 19" version="1.1" xmlns="http://www.w3.org/2000/svg" xmlns:xlink="http://www.w3.org/1999/xlink">
    <!-- Generator: Sketch 64 (93537) - https://sketch.com -->
    <title>icono telefono</title>
    <desc>Created with Sketch.</desc>
    <g id="Page-1" stroke="none" stroke-width="1" fill="none" fill-rule="evenodd">
        <g id="inicio-2-propuesta" transform="translate(-250.000000, -6806.000000)" fill="#84D1FF" fill-rule="nonzero">
            <g id="icono-telefono" transform="translate(250.000000, 6806.000000)">
                <path d="M17.6737675,15.8077111 C17.6769719,16.2277637 17.6929936,16.7509086 17.495606,17.2561243 C17.0912177,18.2928091 16.0895396,18.9933237 14.9750685,18.999727 C9.55395828,19.0330238 4.44366948,16.0183777 1.84045992,11.2614097 C0.865057416,9.47938756 0.262640628,7.58210712 0.0665347372,5.56252476 C0.00565218952,4.93756839 -0.0244686499,4.30044587 0.0242373883,3.6754895 C0.119085989,2.44734779 1.25086051,1.39529521 2.48261058,1.33958701 C3.03055351,1.3152547 3.58041904,1.32998215 4.12900284,1.32549988 C4.32767221,1.32421923 4.44495122,1.42090818 4.50711551,1.60724251 C4.9320116,2.8878908 5.36075291,4.16789877 5.78693075,5.44854706 C5.86255328,5.67586213 5.82025593,5.78791886 5.61197353,5.92750952 C5.07748885,6.2848104 4.54172243,6.6401903 4.00659688,6.99621052 C3.72717803,7.18190453 3.69321197,7.28755801 3.82138576,7.60259749 C4.65707883,9.65291541 5.95419754,11.3696244 7.61276631,12.8212393 C8.74005474,13.8079788 9.99039001,14.6013404 11.3829982,15.163545 C11.7111231,15.2960921 11.8066125,15.2666372 12.0027184,14.9740091 C12.3571189,14.4451013 12.708956,13.9142726 13.0639974,13.3860052 C13.2146016,13.1625321 13.3209858,13.1273142 13.574129,13.211837 C14.8443312,13.634451 16.1145334,14.0577052 17.3847357,14.4815998 C17.6000676,14.5533161 17.6686406,14.6436018 17.6718449,14.8715572 C17.676331,15.1488176 17.6737675,15.4260779 17.6737675,15.8077111 Z" id="Path"></path>
                <path d="M10.224948,-3.80140364e-13 C11.1048611,0.0666226101 11.9790063,0.236308509 12.8095724,0.572478686 C16.1299143,1.91587875 18.1646731,4.33950564 18.8862915,7.85168358 C18.9394837,8.11037454 18.9580689,8.37674938 18.9920349,8.63928228 C19.0484314,9.07918497 18.8004151,9.43328423 18.4043581,9.47938756 C17.994202,9.52741188 17.6692815,9.24310795 17.6314702,8.79167943 C17.5186773,7.4489197 17.1014716,6.20733118 16.356141,5.08740424 C14.9705824,3.00699109 13.0409261,1.76412192 10.5549955,1.40746137 C10.3973418,1.38505003 10.2377654,1.37928711 10.0807525,1.35175317 C9.71802072,1.28836108 9.47961748,0.973961926 9.5123018,0.61474008 C9.54434524,0.260000502 9.84363103,-0.00317272192 10.224948,-3.80140364e-13 Z" id="Path"></path>
                <path d="M16.2741098,8.72892767 C16.2798776,9.14833998 16.0107127,9.45249395 15.6575939,9.48130854 C15.2916577,9.51140377 14.9718642,9.27704513 14.9250807,8.91142005 C14.7981887,7.90611114 14.4508377,6.99044761 13.8253497,6.19132307 C12.8960897,5.00480243 11.6854883,4.29404263 10.1832916,4.09362117 C9.68533641,4.02702746 9.40335408,3.63194746 9.54242264,3.20036898 C9.6443208,2.88340853 9.95642396,2.69067096 10.3050567,2.72909041 C13.2229329,3.05245411 15.7030956,5.38515497 16.204896,8.27685882 C16.2343759,8.44462374 16.2568063,8.61430964 16.2741098,8.72892767 Z" id="Path"></path>
                <path d="M13.5209561,8.78335522 C13.5235004,9.14705933 13.2690754,9.43968747 12.928774,9.47938756 C12.5711692,9.52100863 12.2532982,9.29625486 12.1738304,8.93319107 C12.0751366,8.48112222 11.8847986,8.07579704 11.5835902,7.72361876 C11.1792019,7.24977889 10.6690702,6.95522978 10.0608856,6.82140203 C9.73276071,6.7490454 9.51806962,6.48971412 9.50909745,6.17403432 C9.50076616,5.86475776 9.68597728,5.59069902 9.98590393,5.50873753 C10.1063873,5.476081 10.2480193,5.46711646 10.3678618,5.49657137 C12.0302758,5.9082998 13.0742513,6.94690557 13.4985065,8.60598543 C13.5055561,8.63415969 13.5100421,8.6636146 13.5132465,8.69306951 C13.5183734,8.72764702 13.5196552,8.76350517 13.5209561,8.78335522 Z" id="Path"></path>
            </g>
        </g>
    </g>
</svg>